<svg width="70" height="70" viewBox="0 0 70 70" fill="none" xmlns="http://www.w3.org/2000/svg">
<circle cx="35" cy="35" r="34.5" fill="#F2F6F8" stroke="#F2F6F8"/>
<path d="M50.9019 35.874L45.2565 32.5148L45.3965 22.297C45.3965 22.297 45.3965 22.297 45.3965 22.2504C45.3965 22.2037 45.3965 22.1571 45.3965 22.1104V22.0638C45.3965 22.0171 45.3498 21.9238 45.3031 21.8771C45.2565 21.8305 45.2098 21.7838 45.2098 21.7372C45.2098 21.7372 45.1632 21.7372 45.1632 21.6905C45.1165 21.6439 45.0699 21.6439 45.0232 21.5972C45.0232 21.5972 45.0232 21.5972 44.9765 21.5972L36.2052 16.3717V9.83981C36.2052 9.37325 35.8319 9 35.412 9C34.9454 9 34.6188 9.37325 34.5722 9.79316V16.325L25.6608 21.3173C25.6608 21.3173 25.6608 21.3173 25.6142 21.3173C25.5675 21.3639 25.5209 21.3639 25.4742 21.4106C25.4742 21.4106 25.4276 21.4106 25.4276 21.4572C25.3809 21.5039 25.3342 21.5505 25.2876 21.5972C25.2409 21.6439 25.2409 21.7372 25.1943 21.7838V21.8305C25.1943 21.8771 25.1943 21.9238 25.1943 21.9705C25.1943 21.9705 25.1943 21.9704 25.1943 22.0171L25.0543 32.2815L19.4089 35.4541C19.0356 35.6874 18.8957 36.154 19.0823 36.5739C19.2223 36.8538 19.5022 36.9938 19.7821 36.9938C19.9221 36.9938 20.0621 36.9471 20.2021 36.9005L25.8941 33.7278L34.6189 38.9067C34.6189 38.9067 34.6188 38.9067 34.6655 38.9067C34.7122 38.9533 34.7588 38.9533 34.8055 38.9533H34.8521C34.8988 38.9533 34.9921 39 35.0388 39C35.0854 39 35.1787 39 35.2254 38.9533H35.272C35.3187 38.9533 35.3654 38.9067 35.412 38.9067C35.412 38.9067 35.412 38.9067 35.4587 38.9067L44.37 33.9145L50.0154 37.2737C50.1554 37.367 50.2954 37.367 50.4353 37.367C50.7153 37.367 50.9952 37.2271 51.1352 36.9471C51.4151 36.6205 51.2751 36.1073 50.9019 35.874ZM26.7339 32.2815L26.8273 23.4635L34.3856 27.9425L34.2923 36.7605L26.7339 32.2815ZM35.3653 17.7714L42.9237 22.2504L35.272 26.5428L27.7137 22.0638L35.3653 17.7714ZM36.0652 28.0358L43.7168 23.7434L43.6235 32.5614L35.9719 36.8538L36.0652 28.0358Z" fill="black"/>
<path d="M27.192 50.162V51.562C27.4347 51.562 27.6867 51.5713 27.948 51.59C28.2187 51.5993 28.466 51.6507 28.69 51.744C28.914 51.828 29.096 51.968 29.236 52.164C29.3853 52.36 29.46 52.6447 29.46 53.018C29.46 53.494 29.306 53.872 28.998 54.152C28.69 54.4227 28.312 54.558 27.864 54.558C27.5747 54.558 27.3227 54.5067 27.108 54.404C26.9027 54.3013 26.73 54.166 26.59 53.998C26.45 53.8207 26.3427 53.6153 26.268 53.382C26.1933 53.1393 26.1513 52.8873 26.142 52.626H24.252C24.2427 53.1953 24.322 53.6993 24.49 54.138C24.6673 54.5767 24.9147 54.95 25.232 55.258C25.5493 55.5567 25.932 55.7853 26.38 55.944C26.8373 56.1027 27.3413 56.182 27.892 56.182C28.368 56.182 28.8253 56.112 29.264 55.972C29.7027 55.832 30.09 55.6267 30.426 55.356C30.762 55.0853 31.028 54.7493 31.224 54.348C31.4293 53.9467 31.532 53.4893 31.532 52.976C31.532 52.416 31.378 51.9353 31.07 51.534C30.762 51.1327 30.3373 50.8713 29.796 50.75V50.722C30.2533 50.5913 30.594 50.344 30.818 49.98C31.0513 49.616 31.168 49.196 31.168 48.72C31.168 48.2813 31.07 47.894 30.874 47.558C30.678 47.222 30.4213 46.9373 30.104 46.704C29.796 46.4707 29.446 46.298 29.054 46.186C28.662 46.0647 28.27 46.004 27.878 46.004C27.374 46.004 26.9167 46.088 26.506 46.256C26.0953 46.4147 25.7407 46.6433 25.442 46.942C25.1527 47.2407 24.924 47.6 24.756 48.02C24.5973 48.4307 24.5087 48.888 24.49 49.392H26.38C26.3707 48.888 26.492 48.4727 26.744 48.146C27.0053 47.81 27.388 47.642 27.892 47.642C28.256 47.642 28.578 47.754 28.858 47.978C29.138 48.202 29.278 48.524 29.278 48.944C29.278 49.224 29.208 49.448 29.068 49.616C28.9373 49.784 28.7647 49.9147 28.55 50.008C28.3447 50.092 28.1207 50.1433 27.878 50.162C27.6353 50.1807 27.4067 50.1807 27.192 50.162ZM38.8398 54.152V47.852H40.4078C40.9491 47.852 41.4018 47.9313 41.7658 48.09C42.1391 48.2393 42.4378 48.4587 42.6618 48.748C42.8858 49.0373 43.0444 49.3873 43.1378 49.798C43.2404 50.1993 43.2918 50.652 43.2918 51.156C43.2918 51.7067 43.2218 52.1733 43.0818 52.556C42.9418 52.9387 42.7551 53.2513 42.5218 53.494C42.2884 53.7273 42.0224 53.8953 41.7238 53.998C41.4251 54.1007 41.1171 54.152 40.7998 54.152H38.8398ZM36.6418 46.004V56H40.9538C41.7191 56 42.3818 55.874 42.9418 55.622C43.5111 55.3607 43.9824 55.006 44.3558 54.558C44.7384 54.11 45.0231 53.578 45.2098 52.962C45.3964 52.346 45.4898 51.674 45.4898 50.946C45.4898 50.1153 45.3731 49.392 45.1398 48.776C44.9158 48.16 44.5984 47.6467 44.1878 47.236C43.7864 46.8253 43.3058 46.5173 42.7458 46.312C42.1951 46.1067 41.5978 46.004 40.9538 46.004H36.6418Z" fill="black"/>
</svg>
