<svg width="84" height="60" viewBox="0 0 84 60" fill="none" xmlns="http://www.w3.org/2000/svg">
<circle cx="54" cy="30" r="30" fill="#EFD643"/>
<path d="M67 36.3L71.7999 17.4C72.2999 14.3 70.0999 12.6 68.5 12.8H38.1C36.5 13 35.6999 13.6 35.2999 15.3L30.6 33.8C29.9 36.2 31.5999 38.6 33.4999 38.9H63.3999C65.3999 38.8 66.7 37.4 67 36.3Z" fill="black"/>
<path d="M30 15.2H8.40005C7.50005 15.2 6.80005 14.5 6.80005 13.6C6.80005 12.7 7.50005 12 8.40005 12H30C30.9 12 31.6 12.7 31.6 13.6C31.6 14.5 30.9 15.2 30 15.2Z" fill="black"/>
<path d="M25 23.5H10.4C9.50005 23.5 8.80005 22.8 8.80005 21.9C8.80005 21 9.50005 20.3 10.4 20.3H25C25.9 20.3 26.6 21 26.6 21.9C26.6 22.8 25.9 23.5 25 23.5Z" fill="black"/>
<path d="M23.2 31.5H1.6C0.7 31.5 0 30.8 0 29.9C0 29 0.7 28.3 1.6 28.3H23.2C24.1 28.3 24.8 29 24.8 29.9C24.8 30.8 24.1 31.5 23.2 31.5Z" fill="black"/>
<path d="M39.5272 41.5398C38.1386 40.4466 35.8774 41.0025 34.4766 42.7817C33.0759 44.5608 33.066 46.8893 34.4546 47.9825C35.8432 49.0758 38.1044 48.5198 39.5051 46.7407C40.9059 44.9616 40.9157 42.6331 39.5272 41.5398Z" fill="black"/>
<path d="M57.4174 41.5702C56.0288 40.4769 53.7676 41.0329 52.3669 42.812C50.9662 44.5911 50.9563 46.9197 52.3449 48.0129C53.7335 49.1062 55.9947 48.5502 57.3954 46.7711C58.7961 44.9919 58.806 42.6634 57.4174 41.5702Z" fill="black"/>
</svg>
