<svg width="84" height="60" viewBox="-24 0 84 60" fill="none" xmlns="http://www.w3.org/2000/svg">
<circle cx="30" cy="30" r="30" fill="#EFD643"/>
<path d="M0 12V33.6917C0 44.1417 10.5238 48.3375 17 50C23.4762 48.4167 34 44.1417 34 33.6917V12H0ZM22.6667 37.7292L17 34.6417L11.3333 37.7292L12.6286 31.5542L7.85238 27.2792L14.3286 26.5667L17 20.7875L19.6714 26.5667L26.1476 27.2792L21.3714 31.5542L22.6667 37.7292ZM22.4238 28.3875L19.5905 30.9208L20.319 34.6417L17 32.8208L13.681 34.6417L14.4095 30.9208L11.5762 28.3875L15.381 27.9917L17 24.5875L18.619 27.9917L22.4238 28.3875Z" fill="black"/>
</svg>
