<svg width="84" height="60" viewBox="-20 0 84 60" fill="none" xmlns="http://www.w3.org/2000/svg">
<circle cx="33" cy="30" r="30" fill="#EFD643"/>
<g clip-path="url(#clip0)">
<path d="M32.9 15.16H30.1C29.925 15.16 29.75 15.332 29.75 15.504V40.96H7C5.95 40.96 5.25 40.272 5.25 39.24C5.25 38.208 5.95 37.52 7 37.52H25.9C26.075 37.52 26.25 37.348 26.25 37.176V10.344C26.25 10.172 26.075 10 25.9 10H5.25C3.325 10 1.75 11.548 1.75 13.44V39.068C1.75 40.1 1.925 41.132 2.8 42.164C3.85 43.54 5.6 44.4 7.35 44.4H31.5C32.55 44.4 33.25 43.712 33.25 42.68V15.504C33.25 15.332 33.075 15.16 32.9 15.16Z" fill="black"/>
</g>
<defs>
<clipPath id="clip0">
<rect width="35" height="43" fill="white" transform="translate(0 10)"/>
</clipPath>
</defs>
</svg>
