<svg width="84" height="60" viewBox="-14 0 84 60" fill="none" xmlns="http://www.w3.org/2000/svg">
<circle cx="40" cy="30" r="30" fill="#EFD643"/>
<path d="M40.6049 34.7406L46 28.9857L40.5974 23.2389L41.5972 15.3944L33.868 13.9361L30.0923 7L22.9861 10.3877L15.8792 7.00916L12.1122 13.949L4.38299 15.4181L5.39351 23.2604L0 29.0137L5.40155 34.7622L4.39961 42.6056L12.1299 44.0644L15.9055 51L23.0096 47.6123L30.1202 50.9925L33.8873 44.0515L41.6143 42.5824L41.5168 41.8261L40.6049 34.7406ZM23 43.8262C14.8564 43.8262 8.25778 37.1882 8.25778 29.0008C8.25778 20.8134 14.8564 14.1755 23 14.1755C31.1425 14.1755 37.7422 20.8134 37.7422 29.0008C37.7422 37.1882 31.1425 43.8262 23 43.8262Z" fill="black"/>
<path d="M23 16C15.8314 16 10 21.8314 10 29C10 36.1686 15.8314 42 23 42C30.1675 42 36 36.1686 36 29C36 21.8314 30.1675 16 23 16ZM28.4038 26.1214L22.835 32.9674L18.6479 29.476C18.311 29.1942 18.2653 28.6922 18.5466 28.3548C18.8283 28.0173 19.3303 27.9717 19.6678 28.2534L22.6174 30.7133L27.168 25.118C27.4455 24.7769 27.9474 24.7254 28.2881 25.0024C28.6293 25.2793 28.6802 25.7808 28.4038 26.1214Z" fill="black"/>
</svg>
