<svg width="84" height="60" viewBox="-20 0 84 60" fill="none" xmlns="http://www.w3.org/2000/svg">
<circle cx="33" cy="30" r="30" fill="#EFD643"/>
<path d="M19 9C8.50672 9 0 17.5067 0 28C0 38.4933 8.50672 47 19 47C29.4933 47 38 38.4933 38 28C38 17.5067 29.4933 9 19 9ZM30.2364 22.1617L18.6253 35.8839C18.05 36.5616 17.0377 36.6323 16.3738 36.0528L7.92933 28.6639C7.27067 28.0887 7.20416 27.088 7.7805 26.4293C8.35578 25.7707 9.35644 25.7042 10.0151 26.2805L17.2478 32.6096L27.8202 20.1171C28.3849 19.45 29.3824 19.3666 30.0506 19.9313C30.7188 20.4961 30.8011 21.4936 30.2364 22.1617Z" fill="black"/>
</svg>
