<svg width="84" height="60" viewBox="-24 0 84 60" fill="none" xmlns="http://www.w3.org/2000/svg">
<circle cx="30" cy="30" r="30" fill="#EFD643"/>
<path d="M23.4995 7C11.074 7 1 17.074 1 29.5005C1 41.927 11.074 52 23.4995 52C35.927 52 46 41.927 46 29.5005C46 17.074 35.927 7 23.4995 7ZM29.141 34.8975C27.083 38.257 25.0615 41.05 24.982 41.169L23.498 43.215L22.0115 41.169C21.93 41.05 19.9035 38.257 17.844 34.8975C14.937 30.156 13.52 26.8695 13.52 24.854C13.52 19.8535 17.9925 15.782 23.498 15.782C28.989 15.782 33.465 19.8535 33.465 24.854C33.465 26.8695 32.0555 30.156 29.141 34.8975Z" fill="black"/>
<path d="M23.4983 20.0938C20.6423 20.0938 18.3223 22.1957 18.3223 24.7937C18.3223 27.3907 20.6418 29.5012 23.4983 29.5012C26.3458 29.5012 28.6643 27.3907 28.6643 24.7937C28.6643 22.1957 26.3458 20.0938 23.4983 20.0938Z" fill="black"/>
</svg>
