<svg width="67" height="61" viewBox="0 0 67 61" fill="none" xmlns="http://www.w3.org/2000/svg">
<circle cx="37" cy="30" r="30" fill="#EFD643"/>
<path d="M22.5209 24.6902C22.2611 24.5479 21.8719 24.4768 21.3522 24.4768H18.5634V27.7254H21.2822C21.8221 27.7254 22.2275 27.6598 22.4974 27.5282C22.9751 27.2986 23.2142 26.8445 23.2142 26.1663C23.2148 25.4338 22.9835 24.9416 22.5209 24.6902Z" fill="black"/>
<path d="M27.0653 6.8783C15.0998 6.8783 5.36534 16.6133 5.36534 28.5789C5.36534 32.7223 6.53742 36.742 8.75782 40.2235L5.2427 49.4579C5.15534 49.6869 5.2147 49.9451 5.39278 50.1131C5.50758 50.2217 5.6571 50.2789 5.8083 50.2789C5.89174 50.2789 5.9763 50.2621 6.05582 50.2262L14.658 46.3762C18.3114 48.9309 22.5943 50.2789 27.0659 50.2789C39.032 50.2789 48.7665 40.5438 48.7665 28.5789C48.7659 16.6128 39.0314 6.8783 27.0653 6.8783ZM25.9465 34.4684H23.1577C23.0809 34.2001 23.0266 33.9845 22.9936 33.8205C22.9281 33.4817 22.8922 33.1339 22.8872 32.7789L22.8709 31.6549C22.8603 30.8838 22.7276 30.3697 22.4711 30.1127C22.2152 29.8557 21.7353 29.7274 21.0319 29.7274H18.5645V34.4689H16.0944V22.3769H21.8781C22.7046 22.3931 23.3402 22.4973 23.786 22.6888C24.2312 22.8803 24.6086 23.162 24.9177 23.5338C25.1737 23.8401 25.3764 24.1789 25.5259 24.5508C25.6754 24.9226 25.7499 25.3465 25.7499 25.8225C25.7499 26.3965 25.6049 26.9616 25.3153 27.5165C25.0258 28.0715 24.547 28.4641 23.8801 28.6937C24.4378 28.9177 24.8332 29.2363 25.0656 29.6496C25.298 30.0623 25.4145 30.6923 25.4145 31.5401V32.3521C25.4145 32.9043 25.4369 33.2789 25.4811 33.4761C25.5477 33.788 25.7029 34.0176 25.9476 34.1649V34.4684H25.9465ZM37.8739 29.8086C37.8739 31.0938 37.6751 32.0945 37.2758 32.8108C36.5333 34.1234 35.117 34.7797 33.0254 34.7797C30.9355 34.7797 29.5148 34.1234 28.7672 32.8108C28.3685 32.0945 28.1691 31.0938 28.1691 29.8086V22.3769H30.7367V29.803C30.7367 30.6335 30.8347 31.24 31.0307 31.623C31.3359 32.3006 32.0006 32.6389 33.0249 32.6389C34.0441 32.6389 34.706 32.3006 35.0112 31.623C35.2072 31.24 35.3052 30.6335 35.3052 29.803V22.3769H37.8733V29.8086H37.8739Z" fill="black"/>
</svg>
