<svg width="63" height="57" viewBox="0 0 63 57" fill="none" xmlns="http://www.w3.org/2000/svg">
<circle cx="33" cy="30" r="30" fill="#EFD643"/>
<path d="M48.85 28.3616L46.35 24.0464V19.2848C46.35 18.1936 45.75 17.2016 44.85 16.656L40.7 14.2752L38.2 10.0096C37.65 9.06721 36.65 8.52161 35.55 8.52161H30.6L26.35 6.09121C25.4 5.54561 24.25 5.54561 23.3 6.09121L19.05 8.52161H14.2C13.1 8.52161 12.1 9.11681 11.55 10.0096L9.1 14.176L4.8 16.656C3.85 17.2016 3.3 18.1936 3.3 19.2848V24.2448L0.9 28.3616C0.65 28.808 0.5 29.3536 0.5 29.8496C0.5 30.3456 0.65 30.8912 0.9 31.3376L3.3 35.4544V40.4144C3.3 41.5056 3.9 42.4976 4.8 43.0432L9.1 45.5232L11.55 49.6896C12.1 50.632 13.1 51.1776 14.2 51.1776H19.05L23.3 53.608C23.75 53.856 24.3 54.0048 24.8 54.0048C25.3 54.0048 25.85 53.856 26.3 53.608L30.55 51.1776H35.5C36.6 51.1776 37.6 50.5824 38.15 49.6896L40.65 45.424L44.8 43.0432C45.75 42.4976 46.3 41.5056 46.3 40.4144V35.6528L48.8 31.3376C49.4 30.4448 49.4 29.304 48.85 28.3616Z" fill="black"/>
<path d="M22.96 32.504V33.848H28.144V35.84H22.96V38H19.048V35.84H16.72V33.848H19.048V21.2H26.32C28.608 21.2 30.392 21.68 31.672 22.64C32.968 23.6 33.616 25.008 33.616 26.864C33.616 28.704 32.968 30.104 31.672 31.064C30.392 32.024 28.608 32.504 26.32 32.504H22.96ZM29.68 26.888C29.68 26.072 29.384 25.448 28.792 25.016C28.216 24.584 27.384 24.368 26.296 24.368H22.96V29.456H26.296C27.384 29.456 28.216 29.24 28.792 28.808C29.384 28.36 29.68 27.72 29.68 26.888Z" fill="#EFD643"/>
</svg>
