<svg width="70" height="70" viewBox="0 0 70 70" fill="none" xmlns="http://www.w3.org/2000/svg">
<circle cx="35" cy="35" r="35" transform="rotate(-180 35 35)" fill="#EFD643"/>
<path fill-rule="evenodd" clip-rule="evenodd" d="M34.0571 45.2762C34.5778 45.7969 35.4221 45.7969 35.9428 45.2762C36.4635 44.7555 36.4635 43.9113 35.9428 43.3906L28.8856 36.3334H44.3333C45.0697 36.3334 45.6666 35.7365 45.6666 35.0001C45.6666 34.2637 45.0697 33.6667 44.3333 33.6667H28.8856L35.9428 26.6096C36.4635 26.0889 36.4635 25.2446 35.9428 24.7239C35.4221 24.2032 34.5778 24.2032 34.0571 24.7239L24.7238 34.0573C24.2031 34.578 24.2031 35.4222 24.7238 35.9429L34.0571 45.2762Z" fill="black"/>
</svg>
