<svg width="36" height="24" viewBox="0 0 36 24" fill="none" xmlns="http://www.w3.org/2000/svg">
<path d="M25.0302 23.9999C26.0941 23.9999 26.9566 23.1484 26.9566 22.0981C26.9566 21.0478 26.0941 20.1963 25.0302 20.1963C23.9662 20.1963 23.1038 21.0478 23.1038 22.0981C23.1038 23.1484 23.9662 23.9999 25.0302 23.9999Z" fill="black"/>
<path d="M19.251 9.16579H30.8094L31.9653 6.50325H18.8657C16.9393 6.50325 16.9393 3.84071 18.8657 3.84071H34.277C35.4328 3.84071 35.8181 4.9818 35.4328 5.74252L30.0389 18.2945C29.6536 19.0552 29.2683 19.8159 28.4977 19.8159H12.3159C11.1601 19.8159 11.1601 19.0552 10.7748 18.6749L8.07782 4.60143L1.14276 2.69962C-0.783647 2.31926 -0.0130839 -0.343284 1.52804 0.0370791L9.61895 1.93889C10.0042 1.93889 10.3895 2.31926 10.7748 3.07998L13.4718 16.773H27.7272L29.6536 11.8283H19.251C17.3246 11.8283 17.3246 9.16579 19.251 9.16579Z" fill="black"/>
<path d="M16.9393 23.9999C18.0033 23.9999 18.8658 23.1484 18.8658 22.0981C18.8658 21.0478 18.0033 20.1963 16.9393 20.1963C15.8754 20.1963 15.0129 21.0478 15.0129 22.0981C15.0129 23.1484 15.8754 23.9999 16.9393 23.9999Z" fill="black"/>
</svg>
