<svg width="50" height="50" viewBox="0 0 50 50" fill="none" xmlns="http://www.w3.org/2000/svg">
<circle cx="25" cy="25" r="25" fill="#F2F6F8"/>
<path d="M30.7727 34.4185C31.5707 34.4185 32.2175 33.7813 32.2175 32.9954C32.2175 32.2094 31.5707 31.5723 30.7727 31.5723C29.9748 31.5723 29.3279 32.2094 29.3279 32.9954C29.3279 33.7813 29.9748 34.4185 30.7727 34.4185Z" fill="black"/>
<path d="M26.4382 23.3186H35.1071L35.974 21.3263H26.1493C24.7045 21.3263 24.7045 19.3339 26.1493 19.3339H37.7077C38.5746 19.3339 38.8636 20.1878 38.5746 20.757L34.5292 30.1495C34.2402 30.7188 33.9512 31.288 33.3733 31.288H21.2369C20.3701 31.288 20.3701 30.7188 20.0811 30.4342L18.0584 19.9032L12.8571 18.4801C11.4123 18.1954 11.9902 16.2031 13.146 16.4877L19.2142 17.9108C19.5032 17.9108 19.7921 18.1954 20.0811 18.7647L22.1038 29.0111H32.7954L34.2402 25.311H26.4382C24.9934 25.311 24.9934 23.3186 26.4382 23.3186Z" fill="black"/>
<path d="M24.7044 34.4185C25.5024 34.4185 26.1492 33.7813 26.1492 32.9954C26.1492 32.2094 25.5024 31.5723 24.7044 31.5723C23.9065 31.5723 23.2596 32.2094 23.2596 32.9954C23.2596 33.7813 23.9065 34.4185 24.7044 34.4185Z" fill="black"/>
</svg>
