<svg width="12" height="14" viewBox="0 0 12 14" fill="none" xmlns="http://www.w3.org/2000/svg">
<path fill-rule="evenodd" clip-rule="evenodd" d="M5.99998 9.64992C3.45469 9.64992 1.64998 11.2776 1.64998 12.9999C1.64998 13.3589 1.35896 13.6499 0.999976 13.6499C0.64099 13.6499 0.349976 13.3589 0.349976 12.9999C0.349976 10.3039 3.02241 8.34992 5.99998 8.34992C8.97754 8.34992 11.65 10.3039 11.65 12.9999C11.65 13.3589 11.359 13.6499 11 13.6499C10.641 13.6499 10.35 13.3589 10.35 12.9999C10.35 11.2776 8.54526 9.64992 5.99998 9.64992Z" fill="black"/>
<path fill-rule="evenodd" clip-rule="evenodd" d="M5.99996 1.66659C4.89539 1.66659 3.99996 2.56202 3.99996 3.66658C3.99996 4.77115 4.89539 5.66658 5.99996 5.66658C7.10453 5.66658 7.99996 4.77115 7.99996 3.66658C7.99996 2.56202 7.10453 1.66659 5.99996 1.66659ZM2.66663 3.66658C2.66663 1.82564 4.15901 0.333252 5.99996 0.333252C7.84091 0.333252 9.33329 1.82564 9.33329 3.66658C9.33329 5.50753 7.84091 6.99992 5.99996 6.99992C4.15901 6.99992 2.66663 5.50753 2.66663 3.66658Z" fill="black"/>
</svg>
