<svg width="18" height="20" viewBox="0 0 18 20" fill="none" xmlns="http://www.w3.org/2000/svg">
<path d="M8.2906 8.92043C8.5641 8.64516 8.5641 8.19785 8.2906 7.92258C8.01709 7.64731 7.57265 7.64731 7.29915 7.92258L3.58974 11.6559C2.95726 12.2925 2.61538 13.1183 2.61538 14.0129C2.61538 14.9075 2.95726 15.7333 3.58974 16.3699C4.88889 17.6774 6.99145 17.6774 8.2735 16.3699L16.6496 7.93979C17.5214 7.06237 18 5.89247 18 4.65376C18 3.41505 17.5214 2.24516 16.6496 1.36774C14.8376 -0.455914 11.9145 -0.455914 10.1026 1.36774L1.74359 9.78065C0.615385 10.9161 0 12.4129 0 14.0129C0 15.6129 0.615385 17.1269 1.74359 18.2452C2.87179 19.3806 4.35897 20 5.94872 20C7.53846 20 9.04273 19.3806 10.1538 18.2452L13.8632 14.5118C14.1368 14.2366 14.1368 13.7892 13.8632 13.514C13.5897 13.2387 13.1453 13.2387 12.8718 13.514L9.16239 17.2473C8.30769 18.1075 7.16239 18.5892 5.94872 18.5892C4.73504 18.5892 3.58974 18.1075 2.73504 17.2473C1.88034 16.3871 1.40171 15.2344 1.40171 14.0129C1.40171 12.7914 1.88034 11.6387 2.73504 10.7785L11.094 2.36559C11.7094 1.74624 12.5128 1.41935 13.3675 1.41935C14.2222 1.41935 15.0427 1.76344 15.641 2.36559C16.2564 2.98495 16.5812 3.79355 16.5812 4.65376C16.5812 5.51398 16.2393 6.33979 15.641 6.94194L7.26496 15.372C6.52991 16.1118 5.31624 16.1118 4.5641 15.372C4.20513 15.0108 4 14.529 4 14.0129C4 13.4968 4.20513 13.0151 4.5641 12.6538L8.2906 8.92043Z" fill="black"/>
</svg>
