<svg width="32" height="32" viewBox="0 0 32 32" fill="none" xmlns="http://www.w3.org/2000/svg">
<path d="M29.9031 13.8156L26.9313 13.3197C26.7156 12.4366 26.4006 11.5928 25.99 10.8053L27.8922 8.44656C28.2972 7.94781 28.2784 7.23062 27.8519 6.74969L26.6706 5.41938C26.2422 4.93844 25.5316 4.83719 24.9897 5.17938L22.4481 6.77688C21.3297 5.99594 20.0641 5.41937 18.6981 5.08469L18.2013 2.09687C18.0963 1.46406 17.5488 1 16.9066 1H15.1253C14.4841 1 13.9347 1.46406 13.8325 2.09687L13.3328 5.08562C12.2031 5.36219 11.1447 5.80844 10.1781 6.39625L7.76125 4.67125C7.24 4.29906 6.52469 4.35719 6.07 4.81094L4.81188 6.07C4.35813 6.52469 4.3 7.24 4.67313 7.76125L6.40188 10.1828C5.81969 11.1419 5.37813 12.1947 5.10156 13.3141L2.09688 13.8156C1.465 13.9197 1 14.4672 1 15.1103V16.8897C1 17.5328 1.465 18.0803 2.09688 18.1844L5.10156 18.6859C5.32844 19.6066 5.65844 20.4869 6.09625 21.3025L4.2025 23.6481C3.79938 24.1459 3.81625 24.8641 4.24281 25.345L5.42406 26.6753C5.8525 27.1562 6.56313 27.2566 7.105 26.9153L9.68313 25.2953C10.7744 26.0416 12.0081 26.59 13.3328 26.9144L13.8325 29.9031C13.9347 30.5359 14.4841 31 15.1253 31H16.9066C17.5497 31 18.0972 30.5359 18.2013 29.9031L18.6991 26.9144C19.8138 26.6416 20.86 26.2037 21.8172 25.6262L24.3353 27.4234C24.8556 27.7975 25.5709 27.7384 26.0256 27.2837L27.2838 26.0256C27.7375 25.5719 27.7984 24.8566 27.4225 24.3344L25.63 21.8219C26.2141 20.8591 26.6575 19.8044 26.9322 18.6803L29.9041 18.1844C30.5378 18.0803 31.0009 17.5328 31.0009 16.8897V15.1103C31 14.4672 30.5369 13.9197 29.9031 13.8156ZM16.0478 21.625C12.9419 21.625 10.4228 19.1059 10.4228 16C10.4228 12.8941 12.9419 10.375 16.0478 10.375C19.1538 10.375 21.6728 12.8941 21.6728 16C21.6728 19.1059 19.1538 21.625 16.0478 21.625Z" stroke="#929A9C" stroke-width="2"/>
</svg>
