<svg width="20" height="16" viewBox="0 0 20 16" fill="none" xmlns="http://www.w3.org/2000/svg">
<path d="M1.92 0.666666C1.92 0.298477 1.49019 0 0.96 0C0.429807 0 0 0.298477 0 0.666666V15.3333C0 15.7015 0.429807 16 0.96 16C1.49019 16 1.92 15.7015 1.92 15.3333V0.666666Z" fill="#929A9C"/>
<path d="M19.2002 0.666666C19.2002 0.298477 18.7703 0 18.2402 0C17.71 0 17.2802 0.298477 17.2802 0.666666V15.3333C17.2802 15.7015 17.71 16 18.2402 16C18.7703 16 19.2002 15.7015 19.2002 15.3333V0.666666Z" fill="#929A9C"/>
<path d="M7.68001 10C7.68001 9.63185 7.2502 9.33337 6.72001 9.33337C6.18982 9.33337 5.76001 9.63185 5.76001 10V15.3334C5.76001 15.7016 6.18982 16 6.72001 16C7.2502 16 7.68001 15.7016 7.68001 15.3334V10Z" fill="#929A9C"/>
<path d="M13.44 4.66672C13.44 4.29854 13.0102 4.00006 12.48 4.00006C11.9498 4.00006 11.52 4.29854 11.52 4.66672V15.3333C11.52 15.7015 11.9498 16 12.48 16C13.0102 16 13.44 15.7015 13.44 15.3333V4.66672Z" fill="#929A9C"/>
</svg>
