<svg width="3" height="14" viewBox="100 0 3 14" fill="none" xmlns="http://www.w3.org/2000/svg">
<path d="M9.184 9.104V0.199999H2.576L2.464 3.378C2.366 6.5 2.058 9.02 0.658 9.104H0.168L0.154 12.198H1.12L1.134 10H9.688V12.198H10.654V9.104H9.184ZM3.388 3.476L3.472 1.096H8.162V9.104H2.128C3.066 8.39 3.304 6.024 3.388 3.476ZM17.2192 6.192C17.9892 5.912 18.4652 5.352 18.4652 4.526C18.4652 3.308 17.4432 2.636 15.7772 2.636H12.5292V10H15.8752C17.7932 10 18.7172 9.272 18.7172 7.998C18.7172 7.032 18.2412 6.43 17.2192 6.192ZM13.4952 3.42H15.7072C16.8412 3.42 17.4712 3.826 17.4712 4.652C17.4712 5.478 16.8412 5.912 15.7072 5.912H13.4952V3.42ZM15.8332 9.216H13.4952V6.654H15.9312C17.1772 6.654 17.7372 7.06 17.7372 7.942C17.7372 8.824 17.0792 9.216 15.8332 9.216ZM21.0468 10H21.9428L26.8428 4.148V10H27.8368V2.636H26.9548L22.0408 8.488V2.636H21.0468V10ZM35.8935 2.636H30.6855V10H31.6795V3.518H35.8935V2.636ZM39.864 2.58C38.702 2.58 37.61 2.944 36.868 3.574L37.316 4.316C37.918 3.784 38.814 3.448 39.766 3.448C41.138 3.448 41.852 4.134 41.852 5.394V5.842H39.514C37.4 5.842 36.672 6.794 36.672 7.928C36.672 9.202 37.694 10.07 39.36 10.07C40.578 10.07 41.446 9.608 41.894 8.852V10H42.846V5.436C42.846 3.532 41.768 2.58 39.864 2.58ZM39.514 9.286C38.338 9.286 37.652 8.754 37.652 7.9C37.652 7.144 38.114 6.584 39.542 6.584H41.852V7.788C41.46 8.754 40.634 9.286 39.514 9.286ZM50.6721 2.636H44.1061V3.518H46.8921V10H47.8861V3.518H50.6721V2.636ZM58.2215 6.318C58.2215 4.106 56.7235 2.58 54.6515 2.58C52.5795 2.58 51.0535 4.134 51.0535 6.318C51.0535 8.502 52.6215 10.07 54.9175 10.07C56.0795 10.07 57.1015 9.65 57.7595 8.866L57.1995 8.222C56.6395 8.866 55.8415 9.188 54.9455 9.188C53.3355 9.188 52.1595 8.166 52.0475 6.626H58.2075C58.2075 6.514 58.2215 6.402 58.2215 6.318ZM54.6515 3.434C56.0935 3.434 57.1435 4.442 57.2695 5.884H52.0475C52.1735 4.442 53.2235 3.434 54.6515 3.434ZM60.9014 2.636L60.7754 5.268C60.6774 7.214 60.5654 9.188 59.3474 9.188C59.2494 9.188 59.1234 9.16 58.9974 9.132L58.9274 9.986C59.1934 10.056 59.4174 10.098 59.6414 10.098C61.2234 10.098 61.5454 7.914 61.6714 5.338L61.7694 3.518H65.2974V10H66.2914V2.636H60.9014ZM72.2811 5.24L70.1111 5.212V2.636H69.1171V10L72.0851 10.014C74.0451 10.042 75.1091 9.16 75.1091 7.592C75.1091 6.08 74.1291 5.254 72.2811 5.24ZM72.0291 9.258L70.1111 9.23V5.954L72.0291 5.982C73.4011 5.996 74.1011 6.5 74.1011 7.592C74.1011 8.698 73.3871 9.272 72.0291 9.258ZM195.413 10.084C196.855 10.084 198.143 9.594 199.011 8.642L198.353 7.984C197.555 8.81 196.575 9.16 195.455 9.16C193.089 9.16 191.311 7.424 191.311 5.1C191.311 2.776 193.089 1.04 195.455 1.04C196.575 1.04 197.555 1.39 198.353 2.202L199.011 1.544C198.143 0.591999 196.855 0.116 195.427 0.116C192.473 0.116 190.289 2.23 190.289 5.1C190.289 7.97 192.473 10.084 195.413 10.084ZM205.14 10.084C207.646 10.084 209.158 8.628 209.158 5.814V0.199999H208.15V5.772C208.15 8.096 207.058 9.16 205.14 9.16C203.236 9.16 202.144 8.096 202.144 5.772V0.199999H201.108V5.814C201.108 8.628 202.634 10.084 205.14 10.084ZM218.454 4.946C219.35 4.582 219.952 3.84 219.952 2.72C219.952 1.124 218.692 0.199999 216.508 0.199999H212.28V10H216.788C219.238 10 220.47 9.048 220.47 7.382C220.47 6.052 219.714 5.226 218.454 4.946ZM216.438 1.054C218.006 1.054 218.916 1.656 218.916 2.832C218.916 4.008 218.006 4.61 216.438 4.61H213.316V1.054H216.438ZM216.774 9.146H213.316V5.464H216.774C218.496 5.464 219.434 6.024 219.434 7.298C219.434 8.586 218.496 9.146 216.774 9.146ZM230.754 10.084C232.196 10.084 233.484 9.594 234.352 8.642L233.694 7.984C232.896 8.81 231.916 9.16 230.796 9.16C228.43 9.16 226.652 7.424 226.652 5.1C226.652 2.776 228.43 1.04 230.796 1.04C231.916 1.04 232.896 1.39 233.694 2.202L234.352 1.544C233.484 0.591999 232.196 0.116 230.768 0.116C227.814 0.116 225.63 2.23 225.63 5.1C225.63 7.97 227.814 10.084 230.754 10.084ZM243.637 10H244.729L240.249 0.199999H239.227L234.747 10H235.825L237.001 7.382H242.461L243.637 10ZM237.379 6.542L239.731 1.278L242.083 6.542H237.379ZM246.35 10H250.34C253.476 10 255.59 7.984 255.59 5.1C255.59 2.216 253.476 0.199999 250.34 0.199999H246.35V10ZM247.386 9.104V1.096H250.284C252.888 1.096 254.568 2.748 254.568 5.1C254.568 7.452 252.888 9.104 250.284 9.104H247.386ZM258.952 9.104V5.464H264.02V4.582H258.952V1.096H264.636V0.199999H257.916V10H264.846V9.104H258.952ZM269.186 10H270.222V1.096H273.666V0.199999H265.742V1.096H269.186V10ZM286.447 6.528H284.487V4.26H283.507V6.528H279.251L284.263 0.199999H283.143L277.949 6.696V7.424H283.479V10H284.487V7.424H286.447V6.528ZM289.894 4.218H288.634L288.97 1.096H293.45V0.199999H288.088L287.584 5.114H289.67C292.162 5.114 292.946 5.898 292.946 7.158C292.946 8.348 292.064 9.16 290.398 9.16C289.138 9.16 288.018 8.684 287.388 8.026L286.898 8.824C287.654 9.594 288.998 10.084 290.412 10.084C292.806 10.084 293.968 8.782 293.968 7.116C293.968 5.38 292.848 4.218 289.894 4.218ZM304.064 10.084C307.004 10.084 309.202 7.97 309.202 5.1C309.202 2.23 307.004 0.116 304.064 0.116C301.096 0.116 298.912 2.244 298.912 5.1C298.912 7.956 301.096 10.084 304.064 10.084ZM304.064 9.16C301.698 9.16 299.934 7.438 299.934 5.1C299.934 2.762 301.698 1.04 304.064 1.04C306.416 1.04 308.166 2.762 308.166 5.1C308.166 7.438 306.416 9.16 304.064 9.16ZM318.692 0.199999V4.568H312.56V0.199999H311.524V10H312.56V5.478H318.692V10H319.714V0.199999H318.692ZM329.901 0.199999L326.121 8.712L322.369 0.199999H321.249L325.589 10H326.611L330.951 0.199999H329.901ZM10.976 25.2L6.762 32.466L2.506 25.2H1.652V35H2.646V27.202L6.496 33.754H6.986L10.836 27.16V35H11.83V25.2H10.976ZM17.9325 35.07C20.0885 35.07 21.6705 33.502 21.6705 31.318C21.6705 29.134 20.0885 27.58 17.9325 27.58C15.7765 27.58 14.1805 29.134 14.1805 31.318C14.1805 33.502 15.7765 35.07 17.9325 35.07ZM17.9325 34.188C16.3645 34.188 15.1885 33.04 15.1885 31.318C15.1885 29.596 16.3645 28.448 17.9325 28.448C19.5005 28.448 20.6625 29.596 20.6625 31.318C20.6625 33.04 19.5005 34.188 17.9325 34.188ZM33.9589 34.132V27.636H32.9649V34.132H29.3949V27.636H28.4009V34.132H24.7889V27.636H23.7949V35H34.1549V36.61H35.0929V34.132H33.9589ZM36.7968 35H37.7908V31.752H42.4248V35H43.4188V27.636H42.4248V30.898H37.7908V27.636H36.7968V35ZM49.2821 35.07C51.4381 35.07 53.0201 33.502 53.0201 31.318C53.0201 29.134 51.4381 27.58 49.2821 27.58C47.1261 27.58 45.5301 29.134 45.5301 31.318C45.5301 33.502 47.1261 35.07 49.2821 35.07ZM49.2821 34.188C47.7141 34.188 46.5381 33.04 46.5381 31.318C46.5381 29.596 47.7141 28.448 49.2821 28.448C50.8501 28.448 52.0121 29.596 52.0121 31.318C52.0121 33.04 50.8501 34.188 49.2821 34.188ZM58.2245 35.07C59.4705 35.07 60.5205 34.566 61.1085 33.614L60.3665 33.11C59.8625 33.852 59.0785 34.188 58.2245 34.188C56.6145 34.188 55.4385 33.054 55.4385 31.318C55.4385 29.596 56.6145 28.448 58.2245 28.448C59.0785 28.448 59.8625 28.798 60.3665 29.54L61.1085 29.036C60.5205 28.07 59.4705 27.58 58.2245 27.58C56.0265 27.58 54.4305 29.12 54.4305 31.318C54.4305 33.516 56.0265 35.07 58.2245 35.07ZM68.0764 27.636H61.5104V28.518H64.2964V35H65.2904V28.518H68.0764V27.636ZM72.6776 30.24L70.5076 30.212V27.636H69.5136V35L72.4816 35.014C74.4416 35.042 75.5056 34.16 75.5056 32.592C75.5056 31.08 74.5256 30.254 72.6776 30.24ZM72.4256 34.258L70.5076 34.23V30.954L72.4256 30.982C73.7976 30.996 74.4976 31.5 74.4976 32.592C74.4976 33.698 73.7836 34.272 72.4256 34.258ZM81.0663 35H82.0603V31.752H86.6943V35H87.6883V27.636H86.6943V30.898H82.0603V27.636H81.0663V35ZM93.5516 35.07C95.7076 35.07 97.2896 33.502 97.2896 31.318C97.2896 29.134 95.7076 27.58 93.5516 27.58C91.3956 27.58 89.7996 29.134 89.7996 31.318C89.7996 33.502 91.3956 35.07 93.5516 35.07ZM93.5516 34.188C91.9836 34.188 90.8076 33.04 90.8076 31.318C90.8076 29.596 91.9836 28.448 93.5516 28.448C95.1196 28.448 96.2816 29.596 96.2816 31.318C96.2816 33.04 95.1196 34.188 93.5516 34.188ZM106.722 27.636L103.544 32.942L100.422 27.636H99.414V35H100.324V29.162L103.306 34.104H103.754L106.736 29.176V35H107.646V27.636H106.722ZM110.475 35H111.371L116.271 29.148V35H117.265V27.636H116.383L111.469 33.488V27.636H110.475V35ZM120.113 35H121.107V31.752H125.741V35H126.735V27.636H125.741V30.898H121.107V27.636H120.113V35ZM132.094 27.58C130.932 27.58 129.84 27.944 129.098 28.574L129.546 29.316C130.148 28.784 131.044 28.448 131.996 28.448C133.368 28.448 134.082 29.134 134.082 30.394V30.842H131.744C129.63 30.842 128.902 31.794 128.902 32.928C128.902 34.202 129.924 35.07 131.59 35.07C132.808 35.07 133.676 34.608 134.124 33.852V35H135.076V30.436C135.076 28.532 133.998 27.58 132.094 27.58ZM131.744 34.286C130.568 34.286 129.882 33.754 129.882 32.9C129.882 32.144 130.344 31.584 131.772 31.584H134.082V32.788C133.69 33.754 132.864 34.286 131.744 34.286ZM138.353 27.636L138.227 30.268C138.129 32.214 138.017 34.188 136.799 34.188C136.701 34.188 136.575 34.16 136.449 34.132L136.379 34.986C136.645 35.056 136.869 35.098 137.093 35.098C138.675 35.098 138.997 32.914 139.123 30.338L139.221 28.518H142.749V35H143.743V27.636H138.353ZM149.732 30.24L147.562 30.212V27.636H146.568V35L149.536 35.014C151.496 35.042 152.56 34.16 152.56 32.592C152.56 31.08 151.58 30.254 149.732 30.24ZM149.48 34.258L147.562 34.23V30.954L149.48 30.982C150.852 30.996 151.552 31.5 151.552 32.592C151.552 33.698 150.838 34.272 149.48 34.258ZM154.457 35H155.451V31.752H160.085V35H161.079V27.636H160.085V30.898H155.451V27.636H154.457V35ZM166.438 27.58C165.276 27.58 164.184 27.944 163.442 28.574L163.89 29.316C164.492 28.784 165.388 28.448 166.34 28.448C167.712 28.448 168.426 29.134 168.426 30.394V30.842H166.088C163.974 30.842 163.246 31.794 163.246 32.928C163.246 34.202 164.268 35.07 165.934 35.07C167.152 35.07 168.02 34.608 168.468 33.852V35H169.42V30.436C169.42 28.532 168.342 27.58 166.438 27.58ZM166.088 34.286C164.912 34.286 164.226 33.754 164.226 32.9C164.226 32.144 164.688 31.584 166.116 31.584H168.426V32.788C168.034 33.754 167.208 34.286 166.088 34.286ZM174.628 27.636C172.724 27.636 171.492 28.476 171.492 30.156C171.492 31.346 172.136 32.116 173.27 32.424L171.436 35H172.514L174.222 32.564H174.502H176.812V35H177.722V27.636H174.628ZM172.5 30.184C172.5 29.008 173.284 28.518 174.656 28.518H176.812V31.822H174.586C173.214 31.822 172.5 31.304 172.5 30.184ZM180.641 33.544C180.221 33.544 179.899 33.866 179.899 34.3C179.899 34.664 180.109 34.93 180.403 35.014L179.927 37.044H180.599L181.187 35.112C181.327 34.72 181.383 34.538 181.383 34.3C181.383 33.88 181.075 33.544 180.641 33.544ZM187.817 27.636L187.691 30.268C187.593 32.214 187.481 34.188 186.263 34.188C186.165 34.188 186.039 34.16 185.913 34.132L185.843 34.986C186.109 35.056 186.333 35.098 186.557 35.098C188.139 35.098 188.461 32.914 188.587 30.338L188.685 28.518H192.213V35H193.207V27.636H187.817ZM199.113 35.07C200.359 35.07 201.409 34.566 201.997 33.614L201.255 33.11C200.751 33.852 199.967 34.188 199.113 34.188C197.503 34.188 196.327 33.054 196.327 31.318C196.327 29.596 197.503 28.448 199.113 28.448C199.967 28.448 200.751 28.798 201.255 29.54L201.997 29.036C201.409 28.07 200.359 27.58 199.113 27.58C196.915 27.58 195.319 29.12 195.319 31.318C195.319 33.516 196.915 35.07 199.113 35.07ZM312.176 34.104L315.508 30.828C316.824 29.54 317.118 28.7 317.118 27.762C317.118 26.124 315.858 25.116 313.87 25.116C312.372 25.116 311.154 25.62 310.398 26.516L311.112 27.132C311.756 26.39 312.638 26.04 313.786 26.04C315.284 26.04 316.082 26.74 316.082 27.874C316.082 28.546 315.872 29.204 314.766 30.296L310.692 34.286V35H317.566V34.104H312.176ZM319.724 35.07C320.13 35.07 320.48 34.734 320.48 34.3C320.48 33.866 320.13 33.544 319.724 33.544C319.318 33.544 318.982 33.866 318.982 34.3C318.982 34.734 319.318 35.07 319.724 35.07ZM324.987 25.116C323.083 25.116 321.641 26.292 321.641 28.126C321.641 29.918 322.999 31.066 324.945 31.066C326.303 31.066 327.451 30.464 327.941 29.386C327.969 29.68 327.983 29.96 327.983 30.184C327.983 32.844 326.625 34.202 324.511 34.202C323.783 34.202 323.111 34.076 322.607 33.74L322.201 34.552C322.817 34.93 323.643 35.084 324.525 35.084C327.185 35.084 329.005 33.348 329.005 30.016C329.005 26.922 327.591 25.116 324.987 25.116ZM325.099 30.212C323.587 30.212 322.635 29.386 322.635 28.098C322.635 26.796 323.615 25.97 325.029 25.97C326.723 25.97 327.619 26.992 327.619 28.07C327.619 29.288 326.597 30.212 325.099 30.212ZM12.642 51.2V60.104H8.176V51.2H7.154V60.104H2.674V51.2H1.652V61H13.664V51.2H12.642ZM16.7265 61H17.6225L22.5225 55.148V61H23.5165V53.636H22.6345L17.7205 59.488V53.636H16.7265V61ZM30.1592 53.58C28.9412 53.58 27.9192 54.112 27.3172 55.092V53.636H26.3652V63.716H27.3592V59.614C27.9752 60.566 28.9832 61.07 30.1592 61.07C32.2592 61.07 33.8272 59.558 33.8272 57.318C33.8272 55.092 32.2592 53.58 30.1592 53.58ZM30.0892 60.188C28.5212 60.188 27.3452 59.04 27.3452 57.318C27.3452 55.61 28.5212 54.448 30.0892 54.448C31.6432 54.448 32.8332 55.61 32.8332 57.318C32.8332 59.04 31.6432 60.188 30.0892 60.188ZM35.9628 61H36.8588L41.7588 55.148V61H42.7528V53.636H41.8708L36.9568 59.488V53.636H35.9628V61ZM45.6015 61H46.5955V57.752H51.2295V61H52.2235V53.636H51.2295V56.898H46.5955V53.636H45.6015V61ZM57.5828 53.58C56.4208 53.58 55.3288 53.944 54.5868 54.574L55.0348 55.316C55.6368 54.784 56.5328 54.448 57.4848 54.448C58.8568 54.448 59.5708 55.134 59.5708 56.394V56.842H57.2328C55.1188 56.842 54.3908 57.794 54.3908 58.928C54.3908 60.202 55.4128 61.07 57.0788 61.07C58.2968 61.07 59.1648 60.608 59.6128 59.852V61H60.5648V56.436C60.5648 54.532 59.4868 53.58 57.5828 53.58ZM57.2328 60.286C56.0568 60.286 55.3708 59.754 55.3708 58.9C55.3708 58.144 55.8328 57.584 57.2608 57.584H59.5708V58.788C59.1788 59.754 58.3528 60.286 57.2328 60.286ZM72.2649 61H73.4409L70.3329 57.206L73.2309 53.636H72.1529L69.5629 56.87H67.8689V53.636H66.8749V61H67.8689V57.724H69.5489L72.2649 61ZM77.7879 61.07C79.9439 61.07 81.5259 59.502 81.5259 57.318C81.5259 55.134 79.9439 53.58 77.7879 53.58C75.6319 53.58 74.0359 55.134 74.0359 57.318C74.0359 59.502 75.6319 61.07 77.7879 61.07ZM77.7879 60.188C76.2199 60.188 75.0439 59.04 75.0439 57.318C75.0439 55.596 76.2199 54.448 77.7879 54.448C79.3559 54.448 80.5179 55.596 80.5179 57.318C80.5179 59.04 79.3559 60.188 77.7879 60.188ZM92.8203 53.636V60.132H89.2503V53.636H88.2563V60.132H84.6443V53.636H83.6503V61H93.8143V53.636H92.8203ZM103.106 57.318C103.106 55.106 101.608 53.58 99.5363 53.58C97.4643 53.58 95.9383 55.134 95.9383 57.318C95.9383 59.502 97.5063 61.07 99.8023 61.07C100.964 61.07 101.986 60.65 102.644 59.866L102.084 59.222C101.524 59.866 100.726 60.188 99.8303 60.188C98.2203 60.188 97.0443 59.166 96.9323 57.626H103.092C103.092 57.514 103.106 57.402 103.106 57.318ZM99.5363 54.434C100.978 54.434 102.028 55.442 102.154 56.884H96.9323C97.0583 55.442 98.1083 54.434 99.5363 54.434ZM105.307 61H106.301V57.752H110.935V61H111.929V53.636H110.935V56.898H106.301V53.636H105.307V61ZM114.754 61H115.65L120.55 55.148V61H121.544V53.636H120.662L115.748 59.488V53.636H114.754V61ZM126.955 53.636C125.051 53.636 123.819 54.476 123.819 56.156C123.819 57.346 124.463 58.116 125.597 58.424L123.763 61H124.841L126.549 58.564H126.829H129.139V61H130.049V53.636H126.955ZM124.827 56.184C124.827 55.008 125.611 54.518 126.983 54.518H129.139V57.822H126.913C125.541 57.822 124.827 57.304 124.827 56.184ZM132.967 59.544C132.547 59.544 132.225 59.866 132.225 60.3C132.225 60.664 132.435 60.93 132.729 61.014L132.253 63.044H132.925L133.513 61.112C133.653 60.72 133.709 60.538 133.709 60.3C133.709 59.88 133.401 59.544 132.967 59.544ZM142.594 61.07C143.84 61.07 144.89 60.566 145.478 59.614L144.736 59.11C144.232 59.852 143.448 60.188 142.594 60.188C140.984 60.188 139.808 59.054 139.808 57.318C139.808 55.596 140.984 54.448 142.594 54.448C143.448 54.448 144.232 54.798 144.736 55.54L145.478 55.036C144.89 54.07 143.84 53.58 142.594 53.58C140.396 53.58 138.8 55.12 138.8 57.318C138.8 59.516 140.396 61.07 142.594 61.07ZM154.71 53.636L151.532 58.942L148.41 53.636H147.402V61H148.312V55.162L151.294 60.104H151.742L154.724 55.176V61H155.634V53.636H154.71ZM320.066 57.528H318.106V55.26H317.126V57.528H312.87L317.882 51.2H316.762L311.568 57.696V58.424H317.098V61H318.106V58.424H320.066V57.528ZM322.239 60.104L325.571 56.828C326.887 55.54 327.181 54.7 327.181 53.762C327.181 52.124 325.921 51.116 323.933 51.116C322.435 51.116 321.217 51.62 320.461 52.516L321.175 53.132C321.819 52.39 322.701 52.04 323.849 52.04C325.347 52.04 326.145 52.74 326.145 53.874C326.145 54.546 325.935 55.204 324.829 56.296L320.755 60.286V61H327.629V60.104H322.239ZM8.064 76.2H0.154V77.096H3.598V86H4.62V77.096H8.064V76.2ZM13.2471 78.58C12.0291 78.58 11.0071 79.112 10.4051 80.092V78.636H9.45306V88.716H10.4471V84.614C11.0631 85.566 12.0711 86.07 13.2471 86.07C15.3471 86.07 16.9151 84.558 16.9151 82.318C16.9151 80.092 15.3471 78.58 13.2471 78.58ZM13.1771 85.188C11.6091 85.188 10.4331 84.04 10.4331 82.318C10.4331 80.61 11.6091 79.448 13.1771 79.448C14.7311 79.448 15.9211 80.61 15.9211 82.318C15.9211 84.04 14.7311 85.188 13.1771 85.188ZM21.5437 78.58C20.3817 78.58 19.2897 78.944 18.5477 79.574L18.9957 80.316C19.5977 79.784 20.4937 79.448 21.4457 79.448C22.8177 79.448 23.5317 80.134 23.5317 81.394V81.842H21.1937C19.0797 81.842 18.3517 82.794 18.3517 83.928C18.3517 85.202 19.3737 86.07 21.0397 86.07C22.2577 86.07 23.1257 85.608 23.5737 84.852V86H24.5257V81.436C24.5257 79.532 23.4477 78.58 21.5437 78.58ZM21.1937 85.286C20.0177 85.286 19.3317 84.754 19.3317 83.9C19.3317 83.144 19.7937 82.584 21.2217 82.584H23.5317V83.788C23.1397 84.754 22.3137 85.286 21.1937 85.286ZM31.8618 82.192C32.6318 81.912 33.1078 81.352 33.1078 80.526C33.1078 79.308 32.0858 78.636 30.4198 78.636H27.1718V86H30.5178C32.4358 86 33.3598 85.272 33.3598 83.998C33.3598 83.032 32.8838 82.43 31.8618 82.192ZM28.1378 79.42H30.3498C31.4838 79.42 32.1138 79.826 32.1138 80.652C32.1138 81.478 31.4838 81.912 30.3498 81.912H28.1378V79.42ZM30.4758 85.216H28.1378V82.654H30.5738C31.8198 82.654 32.3798 83.06 32.3798 83.942C32.3798 84.824 31.7218 85.216 30.4758 85.216ZM38.7274 86.07C40.8834 86.07 42.4654 84.502 42.4654 82.318C42.4654 80.134 40.8834 78.58 38.7274 78.58C36.5714 78.58 34.9754 80.134 34.9754 82.318C34.9754 84.502 36.5714 86.07 38.7274 86.07ZM38.7274 85.188C37.1594 85.188 35.9834 84.04 35.9834 82.318C35.9834 80.596 37.1594 79.448 38.7274 79.448C40.2954 79.448 41.4574 80.596 41.4574 82.318C41.4574 84.04 40.2954 85.188 38.7274 85.188ZM47.6698 86.07C48.9158 86.07 49.9658 85.566 50.5538 84.614L49.8118 84.11C49.3078 84.852 48.5238 85.188 47.6698 85.188C46.0598 85.188 44.8838 84.054 44.8838 82.318C44.8838 80.596 46.0598 79.448 47.6698 79.448C48.5238 79.448 49.3078 79.798 49.8118 80.54L50.5538 80.036C49.9658 79.07 48.9158 78.58 47.6698 78.58C45.4718 78.58 43.8758 80.12 43.8758 82.318C43.8758 84.516 45.4718 86.07 47.6698 86.07ZM56.0211 78.818C54.6351 78.818 53.5291 79.504 52.9411 80.638C53.0391 78.286 53.9911 77.236 56.0771 76.774L59.1851 76.06L59.0171 75.15L55.7131 75.906C53.2071 76.494 51.9891 78.034 51.9891 81.24C51.9891 84.236 53.3611 86.084 55.8391 86.084C58.0371 86.084 59.5491 84.586 59.5491 82.416C59.5491 80.288 58.0931 78.818 56.0211 78.818ZM55.8671 85.258C54.2991 85.258 53.1791 84.096 53.1791 82.444C53.1791 80.806 54.2851 79.714 55.8671 79.714C57.4491 79.714 58.5411 80.806 58.5411 82.444C58.5411 84.096 57.4351 85.258 55.8671 85.258ZM64.7176 86.07C66.8736 86.07 68.4556 84.502 68.4556 82.318C68.4556 80.134 66.8736 78.58 64.7176 78.58C62.5616 78.58 60.9656 80.134 60.9656 82.318C60.9656 84.502 62.5616 86.07 64.7176 86.07ZM64.7176 85.188C63.1496 85.188 61.9736 84.04 61.9736 82.318C61.9736 80.596 63.1496 79.448 64.7176 79.448C66.2856 79.448 67.4476 80.596 67.4476 82.318C67.4476 84.04 66.2856 85.188 64.7176 85.188ZM74.374 78.58C73.156 78.58 72.134 79.112 71.532 80.092V78.636H70.58V88.716H71.574V84.614C72.19 85.566 73.198 86.07 74.374 86.07C76.474 86.07 78.042 84.558 78.042 82.318C78.042 80.092 76.474 78.58 74.374 78.58ZM74.304 85.188C72.736 85.188 71.56 84.04 71.56 82.318C71.56 80.61 72.736 79.448 74.304 79.448C75.858 79.448 77.048 80.61 77.048 82.318C77.048 84.04 75.858 85.188 74.304 85.188ZM80.1777 86H81.1717V82.752H85.8057V86H86.7997V78.636H85.8057V81.898H81.1717V78.636H80.1777V86ZM89.6249 86H90.5209L95.4209 80.148V86H96.4149V78.636H95.5329L90.6189 84.488V78.636H89.6249V86ZM104.654 86H105.83L102.722 82.206L105.62 78.636H104.542L101.952 81.87H100.258V78.636H99.2636V86H100.258V82.724H101.938L104.654 86ZM112.728 88.716H113.68C112.574 86.798 112.084 84.656 112.084 82.164C112.084 79.672 112.574 77.53 113.68 75.612H112.728C111.692 77.278 111.104 79.588 111.104 82.164C111.104 84.74 111.692 87.022 112.728 88.716ZM116.136 78.636L116.01 81.268C115.912 83.214 115.8 85.188 114.582 85.188C114.484 85.188 114.358 85.16 114.232 85.132L114.162 85.986C114.428 86.056 114.652 86.098 114.876 86.098C116.458 86.098 116.78 83.914 116.906 81.338L117.004 79.518H120.532V86H121.526V78.636H116.136ZM124.45 88.716C125.5 87.022 126.088 84.74 126.088 82.164C126.088 79.588 125.5 77.278 124.45 75.612H123.498C124.618 77.53 125.108 79.672 125.108 82.164C125.108 84.656 124.618 86.798 123.498 88.716H124.45ZM260.777 78.636L257.599 83.942L254.477 78.636H253.469V86H254.379V80.162L257.361 85.104H257.809L260.791 80.176V86H261.701V78.636H260.777ZM267.091 78.636C265.187 78.636 263.955 79.476 263.955 81.156C263.955 82.346 264.599 83.116 265.733 83.424L263.899 86H264.977L266.685 83.564H266.965H269.275V86H270.185V78.636H267.091ZM264.963 81.184C264.963 80.008 265.747 79.518 267.119 79.518H269.275V82.822H267.049C265.677 82.822 264.963 82.304 264.963 81.184ZM278.227 78.636H273.019V86H274.013V79.518H278.227V78.636ZM285.054 86H286.23L283.122 82.206L286.02 78.636H284.942L282.352 81.87H280.658V78.636H279.664V86H280.658V82.724H282.338L285.054 86ZM287.799 86H288.695L293.595 80.148V86H294.589V78.636H293.707L288.793 84.488V78.636H287.799V86ZM300.783 77.586C302.029 77.586 302.855 76.942 302.883 75.766H302.169C302.141 76.508 301.581 76.97 300.783 76.97C299.985 76.97 299.425 76.508 299.411 75.766H298.697C298.725 76.942 299.537 77.586 300.783 77.586ZM297.437 86H298.333L303.233 80.148V86H304.227V78.636H303.345L298.431 84.488V78.636H297.437V86ZM307.16 84.544C306.74 84.544 306.418 84.866 306.418 85.3C306.418 85.664 306.628 85.93 306.922 86.014L306.446 88.044H307.118L307.706 86.112C307.846 85.72 307.902 85.538 307.902 85.3C307.902 84.88 307.594 84.544 307.16 84.544ZM317.081 80.134C315.723 80.134 314.575 80.736 314.085 81.814C314.057 81.52 314.043 81.24 314.043 81.016C314.043 78.356 315.401 76.998 317.515 76.998C318.243 76.998 318.915 77.124 319.419 77.46L319.825 76.648C319.209 76.27 318.383 76.116 317.501 76.116C314.841 76.116 313.021 77.852 313.021 81.184C313.021 84.278 314.435 86.084 317.039 86.084C318.943 86.084 320.385 84.908 320.385 83.074C320.385 81.282 319.027 80.134 317.081 80.134ZM316.997 85.23C315.303 85.23 314.407 84.208 314.407 83.13C314.407 81.912 315.429 80.988 316.927 80.988C318.439 80.988 319.391 81.814 319.391 83.102C319.391 84.404 318.411 85.23 316.997 85.23ZM325.458 86.084C327.726 86.084 329.378 84.222 329.378 81.1C329.378 77.978 327.726 76.116 325.458 76.116C323.19 76.116 321.552 77.978 321.552 81.1C321.552 84.222 323.19 86.084 325.458 86.084ZM325.458 85.16C323.75 85.16 322.574 83.718 322.574 81.1C322.574 78.482 323.75 77.04 325.458 77.04C327.166 77.04 328.342 78.482 328.342 81.1C328.342 83.718 327.166 85.16 325.458 85.16ZM10.976 102.2L6.762 109.466L2.506 102.2H1.652V112H2.646V104.202L6.496 110.754H6.986L10.836 104.16V112H11.83V102.2H10.976ZM20.1725 104.636L17.4005 110.894L14.6285 104.636H13.5925L16.8825 111.986L16.5605 112.7C16.1405 113.624 15.6925 113.932 15.0345 113.932C14.5025 113.932 14.0545 113.736 13.6905 113.372L13.2285 114.114C13.6765 114.562 14.3345 114.786 15.0205 114.786C16.0705 114.786 16.8545 114.324 17.4705 112.882L21.1525 104.636H20.1725ZM23.003 104.636L22.877 107.268C22.779 109.214 22.667 111.188 21.449 111.188C21.351 111.188 21.225 111.16 21.099 111.132L21.029 111.986C21.295 112.056 21.519 112.098 21.743 112.098C23.325 112.098 23.647 109.914 23.773 107.338L23.871 105.518H27.399V112H28.393V104.636H23.003ZM34.3827 107.24L32.2127 107.212V104.636H31.2187V112L34.1867 112.014C36.1467 112.042 37.2107 111.16 37.2107 109.592C37.2107 108.08 36.2307 107.254 34.3827 107.24ZM34.1307 111.258L32.2127 111.23V107.954L34.1307 107.982C35.5027 107.996 36.2027 108.5 36.2027 109.592C36.2027 110.698 35.4887 111.272 34.1307 111.258ZM43.6714 104.636V108.136C42.8454 108.486 42.0614 108.682 41.3474 108.682C40.1154 108.682 39.3454 108.122 39.3454 107.002V104.636H38.3514V107.058C38.3514 108.724 39.4434 109.494 41.1654 109.494C41.9914 109.494 42.8454 109.298 43.6714 108.934V112H44.6654V104.636H43.6714ZM47.4882 112H48.3842L53.2842 106.148V112H54.2782V104.636H53.3962L48.4822 110.488V104.636H47.4882V112ZM60.9209 104.58C59.7029 104.58 58.6809 105.112 58.0789 106.092V104.636H57.1269V114.716H58.1209V110.614C58.7369 111.566 59.7449 112.07 60.9209 112.07C63.0209 112.07 64.5889 110.558 64.5889 108.318C64.5889 106.092 63.0209 104.58 60.9209 104.58ZM60.8509 111.188C59.2829 111.188 58.1069 110.04 58.1069 108.318C58.1069 106.61 59.2829 105.448 60.8509 105.448C62.4049 105.448 63.5949 106.61 63.5949 108.318C63.5949 110.04 62.4049 111.188 60.8509 111.188ZM69.7625 112.07C71.9185 112.07 73.5005 110.502 73.5005 108.318C73.5005 106.134 71.9185 104.58 69.7625 104.58C67.6065 104.58 66.0105 106.134 66.0105 108.318C66.0105 110.502 67.6065 112.07 69.7625 112.07ZM69.7625 111.188C68.1945 111.188 67.0185 110.04 67.0185 108.318C67.0185 106.596 68.1945 105.448 69.7625 105.448C71.3305 105.448 72.4925 106.596 72.4925 108.318C72.4925 110.04 71.3305 111.188 69.7625 111.188ZM80.3149 108.192C81.0849 107.912 81.5609 107.352 81.5609 106.526C81.5609 105.308 80.5389 104.636 78.8729 104.636H75.6249V112H78.9709C80.8889 112 81.8129 111.272 81.8129 109.998C81.8129 109.032 81.3369 108.43 80.3149 108.192ZM76.5909 105.42H78.8029C79.9369 105.42 80.5669 105.826 80.5669 106.652C80.5669 107.478 79.9369 107.912 78.8029 107.912H76.5909V105.42ZM78.9289 111.216H76.5909V108.654H79.0269C80.2729 108.654 80.8329 109.06 80.8329 109.942C80.8329 110.824 80.1749 111.216 78.9289 111.216ZM86.6765 104.58C85.5145 104.58 84.4225 104.944 83.6805 105.574L84.1285 106.316C84.7305 105.784 85.6265 105.448 86.5785 105.448C87.9505 105.448 88.6645 106.134 88.6645 107.394V107.842H86.3265C84.2125 107.842 83.4845 108.794 83.4845 109.928C83.4845 111.202 84.5065 112.07 86.1725 112.07C87.3905 112.07 88.2585 111.608 88.7065 110.852V112H89.6585V107.436C89.6585 105.532 88.5805 104.58 86.6765 104.58ZM86.3265 111.286C85.1505 111.286 84.4645 110.754 84.4645 109.9C84.4645 109.144 84.9265 108.584 86.3545 108.584H88.6645V109.788C88.2725 110.754 87.4465 111.286 86.3265 111.286ZM92.3046 112H93.2986V108.752H97.9326V112H98.9266V104.636H97.9326V107.898H93.2986V104.636H92.3046V112ZM101.752 112H102.648L107.548 106.148V112H108.542V104.636H107.66L102.746 110.488V104.636H101.752V112ZM117.845 108.318C117.845 106.106 116.347 104.58 114.275 104.58C112.203 104.58 110.677 106.134 110.677 108.318C110.677 110.502 112.245 112.07 114.541 112.07C115.703 112.07 116.725 111.65 117.383 110.866L116.823 110.222C116.263 110.866 115.465 111.188 114.569 111.188C112.959 111.188 111.783 110.166 111.671 108.626H117.831C117.831 108.514 117.845 108.402 117.845 108.318ZM114.275 105.434C115.717 105.434 116.767 106.442 116.893 107.884H111.671C111.797 106.442 112.847 105.434 114.275 105.434ZM287.706 112.07C289.862 112.07 291.444 110.502 291.444 108.318C291.444 106.134 289.862 104.58 287.706 104.58C285.55 104.58 283.954 106.134 283.954 108.318C283.954 110.502 285.55 112.07 287.706 112.07ZM287.706 111.188C286.138 111.188 284.962 110.04 284.962 108.318C284.962 106.596 286.138 105.448 287.706 105.448C289.274 105.448 290.436 106.596 290.436 108.318C290.436 110.04 289.274 111.188 287.706 111.188ZM293.568 104.636V112H294.562V105.518H299.182V112H300.176V104.636H293.568ZM309.484 111.132V104.636H308.49V111.132H303.996V104.636H303.002V112H309.736V113.848H310.674V111.132H309.484ZM312.572 112H313.468L318.368 106.148V112H319.362V104.636H318.48L313.566 110.488V104.636H312.572V112ZM324.773 104.636C322.869 104.636 321.637 105.476 321.637 107.156C321.637 108.346 322.281 109.116 323.415 109.424L321.581 112H322.659L324.367 109.564H324.647H326.957V112H327.867V104.636H324.773ZM322.645 107.184C322.645 106.008 323.429 105.518 324.801 105.518H326.957V108.822H324.731C323.359 108.822 322.645 108.304 322.645 107.184ZM7.462 132.946C8.442 132.582 9.058 131.84 9.058 130.706C9.058 129.068 7.784 128.2 5.726 128.2H1.652V138H5.992C8.358 138 9.548 137.034 9.548 135.354C9.548 134.052 8.834 133.226 7.462 132.946ZM2.674 129.026H5.67C7.168 129.026 8.022 129.656 8.022 130.832C8.022 132.022 7.168 132.638 5.67 132.638H2.674V129.026ZM5.992 137.174H2.674V133.436H5.992C7.644 133.436 8.526 134.01 8.526 135.284C8.526 136.572 7.644 137.174 5.992 137.174ZM18.3543 134.318C18.3543 132.106 16.8563 130.58 14.7843 130.58C12.7123 130.58 11.1863 132.134 11.1863 134.318C11.1863 136.502 12.7543 138.07 15.0503 138.07C16.2123 138.07 17.2343 137.65 17.8923 136.866L17.3323 136.222C16.7723 136.866 15.9743 137.188 15.0783 137.188C13.4683 137.188 12.2923 136.166 12.1803 134.626H18.3403C18.3403 134.514 18.3543 134.402 18.3543 134.318ZM14.7843 131.434C16.2263 131.434 17.2763 132.442 17.4023 133.884H12.1803C12.3063 132.442 13.3563 131.434 14.7843 131.434ZM23.6346 138.07C24.8806 138.07 25.9306 137.566 26.5186 136.614L25.7766 136.11C25.2726 136.852 24.4886 137.188 23.6346 137.188C22.0246 137.188 20.8486 136.054 20.8486 134.318C20.8486 132.596 22.0246 131.448 23.6346 131.448C24.4886 131.448 25.2726 131.798 25.7766 132.54L26.5186 132.036C25.9306 131.07 24.8806 130.58 23.6346 130.58C21.4366 130.58 19.8406 132.12 19.8406 134.318C19.8406 136.516 21.4366 138.07 23.6346 138.07ZM28.8007 136.544C28.3807 136.544 28.0587 136.866 28.0587 137.3C28.0587 137.664 28.2687 137.93 28.5627 138.014L28.0867 140.044H28.7587L29.3467 138.112C29.4867 137.72 29.5427 137.538 29.5427 137.3C29.5427 136.88 29.2347 136.544 28.8007 136.544ZM40.7376 138H41.9136L38.8056 134.206L41.7036 130.636H40.6256L38.0356 133.87H36.3416V130.636H35.3476V138H36.3416V134.724H38.0216L40.7376 138ZM48.6904 130.636H43.4824V138H44.4764V131.518H48.6904V130.636ZM313.01 137.104L316.342 133.828C317.658 132.54 317.952 131.7 317.952 130.762C317.952 129.124 316.692 128.116 314.704 128.116C313.206 128.116 311.988 128.62 311.232 129.516L311.946 130.132C312.59 129.39 313.472 129.04 314.62 129.04C316.118 129.04 316.916 129.74 316.916 130.874C316.916 131.546 316.706 132.204 315.6 133.296L311.526 137.286V138H318.4V137.104H313.01ZM325.28 132.862C326.288 132.47 326.847 131.728 326.847 130.706C326.847 129.11 325.462 128.116 323.39 128.116C321.318 128.116 319.96 129.11 319.96 130.706C319.96 131.728 320.506 132.47 321.5 132.862C320.282 133.268 319.61 134.094 319.61 135.27C319.61 137.006 321.038 138.084 323.39 138.084C325.728 138.084 327.198 137.006 327.198 135.27C327.198 134.108 326.512 133.268 325.28 132.862ZM320.968 130.734C320.968 129.642 321.906 128.97 323.39 128.97C324.86 128.97 325.826 129.642 325.826 130.748C325.826 131.812 324.916 132.498 323.39 132.498C321.864 132.498 320.968 131.812 320.968 130.734ZM323.39 137.23C321.654 137.23 320.632 136.474 320.632 135.256C320.632 134.052 321.654 133.296 323.39 133.296C325.126 133.296 326.162 134.052 326.162 135.256C326.162 136.474 325.126 137.23 323.39 137.23Z" fill="black"/>
<path d="M80.5859 10.042C80.8379 10.042 81.0479 9.846 81.0479 9.58C81.0479 9.328 80.8379 9.118 80.5859 9.118C80.3339 9.118 80.1239 9.328 80.1239 9.58C80.1239 9.846 80.3339 10.042 80.5859 10.042ZM83.2519 10.042C83.5039 10.042 83.7139 9.846 83.7139 9.58C83.7139 9.328 83.5039 9.118 83.2519 9.118C82.9999 9.118 82.7899 9.328 82.7899 9.58C82.7899 9.846 82.9999 10.042 83.2519 10.042ZM85.9179 10.042C86.1699 10.042 86.3799 9.846 86.3799 9.58C86.3799 9.328 86.1699 9.118 85.9179 9.118C85.6659 9.118 85.4559 9.328 85.4559 9.58C85.4559 9.846 85.6659 10.042 85.9179 10.042ZM88.5839 10.042C88.8359 10.042 89.0459 9.846 89.0459 9.58C89.0459 9.328 88.8359 9.118 88.5839 9.118C88.3319 9.118 88.1219 9.328 88.1219 9.58C88.1219 9.846 88.3319 10.042 88.5839 10.042ZM91.2499 10.042C91.5019 10.042 91.7119 9.846 91.7119 9.58C91.7119 9.328 91.5019 9.118 91.2499 9.118C90.9979 9.118 90.7879 9.328 90.7879 9.58C90.7879 9.846 90.9979 10.042 91.2499 10.042ZM93.9159 10.042C94.1679 10.042 94.3779 9.846 94.3779 9.58C94.3779 9.328 94.1679 9.118 93.9159 9.118C93.6639 9.118 93.4539 9.328 93.4539 9.58C93.4539 9.846 93.6639 10.042 93.9159 10.042ZM96.582 10.042C96.834 10.042 97.044 9.846 97.044 9.58C97.044 9.328 96.834 9.118 96.582 9.118C96.33 9.118 96.12 9.328 96.12 9.58C96.12 9.846 96.33 10.042 96.582 10.042ZM99.248 10.042C99.5 10.042 99.71 9.846 99.71 9.58C99.71 9.328 99.5 9.118 99.248 9.118C98.996 9.118 98.786 9.328 98.786 9.58C98.786 9.846 98.996 10.042 99.248 10.042ZM101.914 10.042C102.166 10.042 102.376 9.846 102.376 9.58C102.376 9.328 102.166 9.118 101.914 9.118C101.662 9.118 101.452 9.328 101.452 9.58C101.452 9.846 101.662 10.042 101.914 10.042ZM104.58 10.042C104.832 10.042 105.042 9.846 105.042 9.58C105.042 9.328 104.832 9.118 104.58 9.118C104.328 9.118 104.118 9.328 104.118 9.58C104.118 9.846 104.328 10.042 104.58 10.042ZM107.246 10.042C107.498 10.042 107.708 9.846 107.708 9.58C107.708 9.328 107.498 9.118 107.246 9.118C106.994 9.118 106.784 9.328 106.784 9.58C106.784 9.846 106.994 10.042 107.246 10.042ZM109.912 10.042C110.164 10.042 110.374 9.846 110.374 9.58C110.374 9.328 110.164 9.118 109.912 9.118C109.66 9.118 109.45 9.328 109.45 9.58C109.45 9.846 109.66 10.042 109.912 10.042ZM112.578 10.042C112.83 10.042 113.04 9.846 113.04 9.58C113.04 9.328 112.83 9.118 112.578 9.118C112.326 9.118 112.116 9.328 112.116 9.58C112.116 9.846 112.326 10.042 112.578 10.042ZM115.244 10.042C115.496 10.042 115.706 9.846 115.706 9.58C115.706 9.328 115.496 9.118 115.244 9.118C114.992 9.118 114.782 9.328 114.782 9.58C114.782 9.846 114.992 10.042 115.244 10.042ZM117.91 10.042C118.162 10.042 118.372 9.846 118.372 9.58C118.372 9.328 118.162 9.118 117.91 9.118C117.658 9.118 117.448 9.328 117.448 9.58C117.448 9.846 117.658 10.042 117.91 10.042ZM120.576 10.042C120.828 10.042 121.038 9.846 121.038 9.58C121.038 9.328 120.828 9.118 120.576 9.118C120.324 9.118 120.114 9.328 120.114 9.58C120.114 9.846 120.324 10.042 120.576 10.042ZM123.242 10.042C123.494 10.042 123.704 9.846 123.704 9.58C123.704 9.328 123.494 9.118 123.242 9.118C122.99 9.118 122.78 9.328 122.78 9.58C122.78 9.846 122.99 10.042 123.242 10.042ZM125.908 10.042C126.16 10.042 126.37 9.846 126.37 9.58C126.37 9.328 126.16 9.118 125.908 9.118C125.656 9.118 125.446 9.328 125.446 9.58C125.446 9.846 125.656 10.042 125.908 10.042ZM128.574 10.042C128.826 10.042 129.036 9.846 129.036 9.58C129.036 9.328 128.826 9.118 128.574 9.118C128.322 9.118 128.112 9.328 128.112 9.58C128.112 9.846 128.322 10.042 128.574 10.042ZM131.24 10.042C131.492 10.042 131.702 9.846 131.702 9.58C131.702 9.328 131.492 9.118 131.24 9.118C130.988 9.118 130.778 9.328 130.778 9.58C130.778 9.846 130.988 10.042 131.24 10.042ZM133.906 10.042C134.158 10.042 134.368 9.846 134.368 9.58C134.368 9.328 134.158 9.118 133.906 9.118C133.654 9.118 133.444 9.328 133.444 9.58C133.444 9.846 133.654 10.042 133.906 10.042ZM136.572 10.042C136.824 10.042 137.034 9.846 137.034 9.58C137.034 9.328 136.824 9.118 136.572 9.118C136.32 9.118 136.11 9.328 136.11 9.58C136.11 9.846 136.32 10.042 136.572 10.042ZM139.238 10.042C139.49 10.042 139.7 9.846 139.7 9.58C139.7 9.328 139.49 9.118 139.238 9.118C138.986 9.118 138.776 9.328 138.776 9.58C138.776 9.846 138.986 10.042 139.238 10.042ZM141.904 10.042C142.156 10.042 142.366 9.846 142.366 9.58C142.366 9.328 142.156 9.118 141.904 9.118C141.652 9.118 141.442 9.328 141.442 9.58C141.442 9.846 141.652 10.042 141.904 10.042ZM144.57 10.042C144.822 10.042 145.032 9.846 145.032 9.58C145.032 9.328 144.822 9.118 144.57 9.118C144.318 9.118 144.108 9.328 144.108 9.58C144.108 9.846 144.318 10.042 144.57 10.042ZM147.236 10.042C147.488 10.042 147.698 9.846 147.698 9.58C147.698 9.328 147.488 9.118 147.236 9.118C146.984 9.118 146.774 9.328 146.774 9.58C146.774 9.846 146.984 10.042 147.236 10.042ZM149.902 10.042C150.154 10.042 150.364 9.846 150.364 9.58C150.364 9.328 150.154 9.118 149.902 9.118C149.65 9.118 149.44 9.328 149.44 9.58C149.44 9.846 149.65 10.042 149.902 10.042ZM152.568 10.042C152.82 10.042 153.03 9.846 153.03 9.58C153.03 9.328 152.82 9.118 152.568 9.118C152.316 9.118 152.106 9.328 152.106 9.58C152.106 9.846 152.316 10.042 152.568 10.042ZM155.234 10.042C155.486 10.042 155.696 9.846 155.696 9.58C155.696 9.328 155.486 9.118 155.234 9.118C154.982 9.118 154.772 9.328 154.772 9.58C154.772 9.846 154.982 10.042 155.234 10.042ZM157.9 10.042C158.152 10.042 158.362 9.846 158.362 9.58C158.362 9.328 158.152 9.118 157.9 9.118C157.648 9.118 157.438 9.328 157.438 9.58C157.438 9.846 157.648 10.042 157.9 10.042ZM160.566 10.042C160.818 10.042 161.028 9.846 161.028 9.58C161.028 9.328 160.818 9.118 160.566 9.118C160.314 9.118 160.104 9.328 160.104 9.58C160.104 9.846 160.314 10.042 160.566 10.042ZM163.232 10.042C163.484 10.042 163.694 9.846 163.694 9.58C163.694 9.328 163.484 9.118 163.232 9.118C162.98 9.118 162.77 9.328 162.77 9.58C162.77 9.846 162.98 10.042 163.232 10.042ZM165.898 10.042C166.15 10.042 166.36 9.846 166.36 9.58C166.36 9.328 166.15 9.118 165.898 9.118C165.646 9.118 165.436 9.328 165.436 9.58C165.436 9.846 165.646 10.042 165.898 10.042ZM168.564 10.042C168.816 10.042 169.026 9.846 169.026 9.58C169.026 9.328 168.816 9.118 168.564 9.118C168.312 9.118 168.102 9.328 168.102 9.58C168.102 9.846 168.312 10.042 168.564 10.042ZM171.23 10.042C171.482 10.042 171.692 9.846 171.692 9.58C171.692 9.328 171.482 9.118 171.23 9.118C170.978 9.118 170.768 9.328 170.768 9.58C170.768 9.846 170.978 10.042 171.23 10.042ZM173.896 10.042C174.148 10.042 174.358 9.846 174.358 9.58C174.358 9.328 174.148 9.118 173.896 9.118C173.644 9.118 173.434 9.328 173.434 9.58C173.434 9.846 173.644 10.042 173.896 10.042ZM176.562 10.042C176.814 10.042 177.024 9.846 177.024 9.58C177.024 9.328 176.814 9.118 176.562 9.118C176.31 9.118 176.1 9.328 176.1 9.58C176.1 9.846 176.31 10.042 176.562 10.042ZM179.228 10.042C179.48 10.042 179.69 9.846 179.69 9.58C179.69 9.328 179.48 9.118 179.228 9.118C178.976 9.118 178.766 9.328 178.766 9.58C178.766 9.846 178.976 10.042 179.228 10.042ZM181.894 10.042C182.146 10.042 182.356 9.846 182.356 9.58C182.356 9.328 182.146 9.118 181.894 9.118C181.642 9.118 181.432 9.328 181.432 9.58C181.432 9.846 181.642 10.042 181.894 10.042ZM184.56 10.042C184.812 10.042 185.022 9.846 185.022 9.58C185.022 9.328 184.812 9.118 184.56 9.118C184.308 9.118 184.098 9.328 184.098 9.58C184.098 9.846 184.308 10.042 184.56 10.042ZM207.502 35.042C207.754 35.042 207.964 34.846 207.964 34.58C207.964 34.328 207.754 34.118 207.502 34.118C207.25 34.118 207.04 34.328 207.04 34.58C207.04 34.846 207.25 35.042 207.502 35.042ZM210.168 35.042C210.42 35.042 210.63 34.846 210.63 34.58C210.63 34.328 210.42 34.118 210.168 34.118C209.916 34.118 209.706 34.328 209.706 34.58C209.706 34.846 209.916 35.042 210.168 35.042ZM212.834 35.042C213.086 35.042 213.296 34.846 213.296 34.58C213.296 34.328 213.086 34.118 212.834 34.118C212.582 34.118 212.372 34.328 212.372 34.58C212.372 34.846 212.582 35.042 212.834 35.042ZM215.5 35.042C215.752 35.042 215.962 34.846 215.962 34.58C215.962 34.328 215.752 34.118 215.5 34.118C215.248 34.118 215.038 34.328 215.038 34.58C215.038 34.846 215.248 35.042 215.5 35.042ZM218.166 35.042C218.418 35.042 218.628 34.846 218.628 34.58C218.628 34.328 218.418 34.118 218.166 34.118C217.914 34.118 217.704 34.328 217.704 34.58C217.704 34.846 217.914 35.042 218.166 35.042ZM220.832 35.042C221.084 35.042 221.294 34.846 221.294 34.58C221.294 34.328 221.084 34.118 220.832 34.118C220.58 34.118 220.37 34.328 220.37 34.58C220.37 34.846 220.58 35.042 220.832 35.042ZM223.498 35.042C223.75 35.042 223.96 34.846 223.96 34.58C223.96 34.328 223.75 34.118 223.498 34.118C223.246 34.118 223.036 34.328 223.036 34.58C223.036 34.846 223.246 35.042 223.498 35.042ZM226.164 35.042C226.416 35.042 226.626 34.846 226.626 34.58C226.626 34.328 226.416 34.118 226.164 34.118C225.912 34.118 225.702 34.328 225.702 34.58C225.702 34.846 225.912 35.042 226.164 35.042ZM228.83 35.042C229.082 35.042 229.292 34.846 229.292 34.58C229.292 34.328 229.082 34.118 228.83 34.118C228.578 34.118 228.368 34.328 228.368 34.58C228.368 34.846 228.578 35.042 228.83 35.042ZM231.496 35.042C231.748 35.042 231.958 34.846 231.958 34.58C231.958 34.328 231.748 34.118 231.496 34.118C231.244 34.118 231.034 34.328 231.034 34.58C231.034 34.846 231.244 35.042 231.496 35.042ZM234.162 35.042C234.414 35.042 234.624 34.846 234.624 34.58C234.624 34.328 234.414 34.118 234.162 34.118C233.91 34.118 233.7 34.328 233.7 34.58C233.7 34.846 233.91 35.042 234.162 35.042ZM236.828 35.042C237.08 35.042 237.29 34.846 237.29 34.58C237.29 34.328 237.08 34.118 236.828 34.118C236.576 34.118 236.366 34.328 236.366 34.58C236.366 34.846 236.576 35.042 236.828 35.042ZM239.494 35.042C239.746 35.042 239.956 34.846 239.956 34.58C239.956 34.328 239.746 34.118 239.494 34.118C239.242 34.118 239.032 34.328 239.032 34.58C239.032 34.846 239.242 35.042 239.494 35.042ZM242.16 35.042C242.412 35.042 242.622 34.846 242.622 34.58C242.622 34.328 242.412 34.118 242.16 34.118C241.908 34.118 241.698 34.328 241.698 34.58C241.698 34.846 241.908 35.042 242.16 35.042ZM244.826 35.042C245.078 35.042 245.288 34.846 245.288 34.58C245.288 34.328 245.078 34.118 244.826 34.118C244.574 34.118 244.364 34.328 244.364 34.58C244.364 34.846 244.574 35.042 244.826 35.042ZM247.492 35.042C247.744 35.042 247.954 34.846 247.954 34.58C247.954 34.328 247.744 34.118 247.492 34.118C247.24 34.118 247.03 34.328 247.03 34.58C247.03 34.846 247.24 35.042 247.492 35.042ZM250.158 35.042C250.41 35.042 250.62 34.846 250.62 34.58C250.62 34.328 250.41 34.118 250.158 34.118C249.906 34.118 249.696 34.328 249.696 34.58C249.696 34.846 249.906 35.042 250.158 35.042ZM252.824 35.042C253.076 35.042 253.286 34.846 253.286 34.58C253.286 34.328 253.076 34.118 252.824 34.118C252.572 34.118 252.362 34.328 252.362 34.58C252.362 34.846 252.572 35.042 252.824 35.042ZM255.49 35.042C255.742 35.042 255.952 34.846 255.952 34.58C255.952 34.328 255.742 34.118 255.49 34.118C255.238 34.118 255.028 34.328 255.028 34.58C255.028 34.846 255.238 35.042 255.49 35.042ZM258.156 35.042C258.408 35.042 258.618 34.846 258.618 34.58C258.618 34.328 258.408 34.118 258.156 34.118C257.904 34.118 257.694 34.328 257.694 34.58C257.694 34.846 257.904 35.042 258.156 35.042ZM260.822 35.042C261.074 35.042 261.284 34.846 261.284 34.58C261.284 34.328 261.074 34.118 260.822 34.118C260.57 34.118 260.36 34.328 260.36 34.58C260.36 34.846 260.57 35.042 260.822 35.042ZM263.488 35.042C263.74 35.042 263.95 34.846 263.95 34.58C263.95 34.328 263.74 34.118 263.488 34.118C263.236 34.118 263.026 34.328 263.026 34.58C263.026 34.846 263.236 35.042 263.488 35.042ZM266.154 35.042C266.406 35.042 266.616 34.846 266.616 34.58C266.616 34.328 266.406 34.118 266.154 34.118C265.902 34.118 265.692 34.328 265.692 34.58C265.692 34.846 265.902 35.042 266.154 35.042ZM268.82 35.042C269.072 35.042 269.282 34.846 269.282 34.58C269.282 34.328 269.072 34.118 268.82 34.118C268.568 34.118 268.358 34.328 268.358 34.58C268.358 34.846 268.568 35.042 268.82 35.042ZM271.486 35.042C271.738 35.042 271.948 34.846 271.948 34.58C271.948 34.328 271.738 34.118 271.486 34.118C271.234 34.118 271.024 34.328 271.024 34.58C271.024 34.846 271.234 35.042 271.486 35.042ZM274.152 35.042C274.404 35.042 274.614 34.846 274.614 34.58C274.614 34.328 274.404 34.118 274.152 34.118C273.9 34.118 273.69 34.328 273.69 34.58C273.69 34.846 273.9 35.042 274.152 35.042ZM276.818 35.042C277.07 35.042 277.28 34.846 277.28 34.58C277.28 34.328 277.07 34.118 276.818 34.118C276.566 34.118 276.356 34.328 276.356 34.58C276.356 34.846 276.566 35.042 276.818 35.042ZM279.484 35.042C279.736 35.042 279.946 34.846 279.946 34.58C279.946 34.328 279.736 34.118 279.484 34.118C279.232 34.118 279.022 34.328 279.022 34.58C279.022 34.846 279.232 35.042 279.484 35.042ZM282.15 35.042C282.402 35.042 282.612 34.846 282.612 34.58C282.612 34.328 282.402 34.118 282.15 34.118C281.898 34.118 281.688 34.328 281.688 34.58C281.688 34.846 281.898 35.042 282.15 35.042ZM284.816 35.042C285.068 35.042 285.278 34.846 285.278 34.58C285.278 34.328 285.068 34.118 284.816 34.118C284.564 34.118 284.354 34.328 284.354 34.58C284.354 34.846 284.564 35.042 284.816 35.042ZM287.482 35.042C287.734 35.042 287.944 34.846 287.944 34.58C287.944 34.328 287.734 34.118 287.482 34.118C287.23 34.118 287.02 34.328 287.02 34.58C287.02 34.846 287.23 35.042 287.482 35.042ZM290.148 35.042C290.4 35.042 290.61 34.846 290.61 34.58C290.61 34.328 290.4 34.118 290.148 34.118C289.896 34.118 289.686 34.328 289.686 34.58C289.686 34.846 289.896 35.042 290.148 35.042ZM292.814 35.042C293.066 35.042 293.276 34.846 293.276 34.58C293.276 34.328 293.066 34.118 292.814 34.118C292.562 34.118 292.352 34.328 292.352 34.58C292.352 34.846 292.562 35.042 292.814 35.042ZM295.48 35.042C295.732 35.042 295.942 34.846 295.942 34.58C295.942 34.328 295.732 34.118 295.48 34.118C295.228 34.118 295.018 34.328 295.018 34.58C295.018 34.846 295.228 35.042 295.48 35.042ZM298.146 35.042C298.398 35.042 298.608 34.846 298.608 34.58C298.608 34.328 298.398 34.118 298.146 34.118C297.894 34.118 297.684 34.328 297.684 34.58C297.684 34.846 297.894 35.042 298.146 35.042ZM300.812 35.042C301.064 35.042 301.274 34.846 301.274 34.58C301.274 34.328 301.064 34.118 300.812 34.118C300.56 34.118 300.35 34.328 300.35 34.58C300.35 34.846 300.56 35.042 300.812 35.042ZM303.478 35.042C303.73 35.042 303.94 34.846 303.94 34.58C303.94 34.328 303.73 34.118 303.478 34.118C303.226 34.118 303.016 34.328 303.016 34.58C303.016 34.846 303.226 35.042 303.478 35.042ZM306.144 35.042C306.396 35.042 306.606 34.846 306.606 34.58C306.606 34.328 306.396 34.118 306.144 34.118C305.892 34.118 305.682 34.328 305.682 34.58C305.682 34.846 305.892 35.042 306.144 35.042ZM308.81 35.042C309.062 35.042 309.272 34.846 309.272 34.58C309.272 34.328 309.062 34.118 308.81 34.118C308.558 34.118 308.348 34.328 308.348 34.58C308.348 34.846 308.558 35.042 308.81 35.042ZM162.043 61.042C162.295 61.042 162.505 60.846 162.505 60.58C162.505 60.328 162.295 60.118 162.043 60.118C161.791 60.118 161.581 60.328 161.581 60.58C161.581 60.846 161.791 61.042 162.043 61.042ZM164.709 61.042C164.961 61.042 165.171 60.846 165.171 60.58C165.171 60.328 164.961 60.118 164.709 60.118C164.457 60.118 164.247 60.328 164.247 60.58C164.247 60.846 164.457 61.042 164.709 61.042ZM167.375 61.042C167.627 61.042 167.837 60.846 167.837 60.58C167.837 60.328 167.627 60.118 167.375 60.118C167.123 60.118 166.913 60.328 166.913 60.58C166.913 60.846 167.123 61.042 167.375 61.042ZM170.041 61.042C170.293 61.042 170.503 60.846 170.503 60.58C170.503 60.328 170.293 60.118 170.041 60.118C169.789 60.118 169.579 60.328 169.579 60.58C169.579 60.846 169.789 61.042 170.041 61.042ZM172.707 61.042C172.959 61.042 173.169 60.846 173.169 60.58C173.169 60.328 172.959 60.118 172.707 60.118C172.455 60.118 172.245 60.328 172.245 60.58C172.245 60.846 172.455 61.042 172.707 61.042ZM175.373 61.042C175.625 61.042 175.835 60.846 175.835 60.58C175.835 60.328 175.625 60.118 175.373 60.118C175.121 60.118 174.911 60.328 174.911 60.58C174.911 60.846 175.121 61.042 175.373 61.042ZM178.039 61.042C178.291 61.042 178.501 60.846 178.501 60.58C178.501 60.328 178.291 60.118 178.039 60.118C177.787 60.118 177.577 60.328 177.577 60.58C177.577 60.846 177.787 61.042 178.039 61.042ZM180.705 61.042C180.957 61.042 181.167 60.846 181.167 60.58C181.167 60.328 180.957 60.118 180.705 60.118C180.453 60.118 180.243 60.328 180.243 60.58C180.243 60.846 180.453 61.042 180.705 61.042ZM183.371 61.042C183.623 61.042 183.833 60.846 183.833 60.58C183.833 60.328 183.623 60.118 183.371 60.118C183.119 60.118 182.909 60.328 182.909 60.58C182.909 60.846 183.119 61.042 183.371 61.042ZM186.037 61.042C186.289 61.042 186.499 60.846 186.499 60.58C186.499 60.328 186.289 60.118 186.037 60.118C185.785 60.118 185.575 60.328 185.575 60.58C185.575 60.846 185.785 61.042 186.037 61.042ZM188.703 61.042C188.955 61.042 189.165 60.846 189.165 60.58C189.165 60.328 188.955 60.118 188.703 60.118C188.451 60.118 188.241 60.328 188.241 60.58C188.241 60.846 188.451 61.042 188.703 61.042ZM191.369 61.042C191.621 61.042 191.831 60.846 191.831 60.58C191.831 60.328 191.621 60.118 191.369 60.118C191.117 60.118 190.907 60.328 190.907 60.58C190.907 60.846 191.117 61.042 191.369 61.042ZM194.035 61.042C194.287 61.042 194.497 60.846 194.497 60.58C194.497 60.328 194.287 60.118 194.035 60.118C193.783 60.118 193.573 60.328 193.573 60.58C193.573 60.846 193.783 61.042 194.035 61.042ZM196.701 61.042C196.953 61.042 197.163 60.846 197.163 60.58C197.163 60.328 196.953 60.118 196.701 60.118C196.449 60.118 196.239 60.328 196.239 60.58C196.239 60.846 196.449 61.042 196.701 61.042ZM199.367 61.042C199.619 61.042 199.829 60.846 199.829 60.58C199.829 60.328 199.619 60.118 199.367 60.118C199.115 60.118 198.905 60.328 198.905 60.58C198.905 60.846 199.115 61.042 199.367 61.042ZM202.033 61.042C202.285 61.042 202.495 60.846 202.495 60.58C202.495 60.328 202.285 60.118 202.033 60.118C201.781 60.118 201.571 60.328 201.571 60.58C201.571 60.846 201.781 61.042 202.033 61.042ZM204.699 61.042C204.951 61.042 205.161 60.846 205.161 60.58C205.161 60.328 204.951 60.118 204.699 60.118C204.447 60.118 204.237 60.328 204.237 60.58C204.237 60.846 204.447 61.042 204.699 61.042ZM207.365 61.042C207.617 61.042 207.827 60.846 207.827 60.58C207.827 60.328 207.617 60.118 207.365 60.118C207.113 60.118 206.903 60.328 206.903 60.58C206.903 60.846 207.113 61.042 207.365 61.042ZM210.031 61.042C210.283 61.042 210.493 60.846 210.493 60.58C210.493 60.328 210.283 60.118 210.031 60.118C209.779 60.118 209.569 60.328 209.569 60.58C209.569 60.846 209.779 61.042 210.031 61.042ZM212.697 61.042C212.949 61.042 213.159 60.846 213.159 60.58C213.159 60.328 212.949 60.118 212.697 60.118C212.445 60.118 212.235 60.328 212.235 60.58C212.235 60.846 212.445 61.042 212.697 61.042ZM215.363 61.042C215.615 61.042 215.825 60.846 215.825 60.58C215.825 60.328 215.615 60.118 215.363 60.118C215.111 60.118 214.901 60.328 214.901 60.58C214.901 60.846 215.111 61.042 215.363 61.042ZM218.029 61.042C218.281 61.042 218.491 60.846 218.491 60.58C218.491 60.328 218.281 60.118 218.029 60.118C217.777 60.118 217.567 60.328 217.567 60.58C217.567 60.846 217.777 61.042 218.029 61.042ZM220.695 61.042C220.947 61.042 221.157 60.846 221.157 60.58C221.157 60.328 220.947 60.118 220.695 60.118C220.443 60.118 220.233 60.328 220.233 60.58C220.233 60.846 220.443 61.042 220.695 61.042ZM223.361 61.042C223.613 61.042 223.823 60.846 223.823 60.58C223.823 60.328 223.613 60.118 223.361 60.118C223.109 60.118 222.899 60.328 222.899 60.58C222.899 60.846 223.109 61.042 223.361 61.042ZM226.027 61.042C226.279 61.042 226.489 60.846 226.489 60.58C226.489 60.328 226.279 60.118 226.027 60.118C225.775 60.118 225.565 60.328 225.565 60.58C225.565 60.846 225.775 61.042 226.027 61.042ZM228.693 61.042C228.945 61.042 229.155 60.846 229.155 60.58C229.155 60.328 228.945 60.118 228.693 60.118C228.441 60.118 228.231 60.328 228.231 60.58C228.231 60.846 228.441 61.042 228.693 61.042ZM231.359 61.042C231.611 61.042 231.821 60.846 231.821 60.58C231.821 60.328 231.611 60.118 231.359 60.118C231.107 60.118 230.897 60.328 230.897 60.58C230.897 60.846 231.107 61.042 231.359 61.042ZM234.025 61.042C234.277 61.042 234.487 60.846 234.487 60.58C234.487 60.328 234.277 60.118 234.025 60.118C233.773 60.118 233.563 60.328 233.563 60.58C233.563 60.846 233.773 61.042 234.025 61.042ZM236.691 61.042C236.943 61.042 237.153 60.846 237.153 60.58C237.153 60.328 236.943 60.118 236.691 60.118C236.439 60.118 236.229 60.328 236.229 60.58C236.229 60.846 236.439 61.042 236.691 61.042ZM239.357 61.042C239.609 61.042 239.819 60.846 239.819 60.58C239.819 60.328 239.609 60.118 239.357 60.118C239.105 60.118 238.895 60.328 238.895 60.58C238.895 60.846 239.105 61.042 239.357 61.042ZM242.023 61.042C242.275 61.042 242.485 60.846 242.485 60.58C242.485 60.328 242.275 60.118 242.023 60.118C241.771 60.118 241.561 60.328 241.561 60.58C241.561 60.846 241.771 61.042 242.023 61.042ZM244.689 61.042C244.941 61.042 245.151 60.846 245.151 60.58C245.151 60.328 244.941 60.118 244.689 60.118C244.437 60.118 244.227 60.328 244.227 60.58C244.227 60.846 244.437 61.042 244.689 61.042ZM247.355 61.042C247.607 61.042 247.817 60.846 247.817 60.58C247.817 60.328 247.607 60.118 247.355 60.118C247.103 60.118 246.893 60.328 246.893 60.58C246.893 60.846 247.103 61.042 247.355 61.042ZM250.021 61.042C250.273 61.042 250.483 60.846 250.483 60.58C250.483 60.328 250.273 60.118 250.021 60.118C249.769 60.118 249.559 60.328 249.559 60.58C249.559 60.846 249.769 61.042 250.021 61.042ZM252.687 61.042C252.939 61.042 253.149 60.846 253.149 60.58C253.149 60.328 252.939 60.118 252.687 60.118C252.435 60.118 252.225 60.328 252.225 60.58C252.225 60.846 252.435 61.042 252.687 61.042ZM255.353 61.042C255.605 61.042 255.815 60.846 255.815 60.58C255.815 60.328 255.605 60.118 255.353 60.118C255.101 60.118 254.891 60.328 254.891 60.58C254.891 60.846 255.101 61.042 255.353 61.042ZM258.019 61.042C258.271 61.042 258.481 60.846 258.481 60.58C258.481 60.328 258.271 60.118 258.019 60.118C257.767 60.118 257.557 60.328 257.557 60.58C257.557 60.846 257.767 61.042 258.019 61.042ZM260.685 61.042C260.937 61.042 261.147 60.846 261.147 60.58C261.147 60.328 260.937 60.118 260.685 60.118C260.433 60.118 260.223 60.328 260.223 60.58C260.223 60.846 260.433 61.042 260.685 61.042ZM263.351 61.042C263.603 61.042 263.813 60.846 263.813 60.58C263.813 60.328 263.603 60.118 263.351 60.118C263.099 60.118 262.889 60.328 262.889 60.58C262.889 60.846 263.099 61.042 263.351 61.042ZM266.018 61.042C266.27 61.042 266.48 60.846 266.48 60.58C266.48 60.328 266.27 60.118 266.018 60.118C265.766 60.118 265.556 60.328 265.556 60.58C265.556 60.846 265.766 61.042 266.018 61.042ZM268.684 61.042C268.936 61.042 269.146 60.846 269.146 60.58C269.146 60.328 268.936 60.118 268.684 60.118C268.432 60.118 268.222 60.328 268.222 60.58C268.222 60.846 268.432 61.042 268.684 61.042ZM271.35 61.042C271.602 61.042 271.812 60.846 271.812 60.58C271.812 60.328 271.602 60.118 271.35 60.118C271.098 60.118 270.888 60.328 270.888 60.58C270.888 60.846 271.098 61.042 271.35 61.042ZM274.016 61.042C274.268 61.042 274.478 60.846 274.478 60.58C274.478 60.328 274.268 60.118 274.016 60.118C273.764 60.118 273.554 60.328 273.554 60.58C273.554 60.846 273.764 61.042 274.016 61.042ZM276.682 61.042C276.934 61.042 277.144 60.846 277.144 60.58C277.144 60.328 276.934 60.118 276.682 60.118C276.43 60.118 276.22 60.328 276.22 60.58C276.22 60.846 276.43 61.042 276.682 61.042ZM279.348 61.042C279.6 61.042 279.81 60.846 279.81 60.58C279.81 60.328 279.6 60.118 279.348 60.118C279.096 60.118 278.886 60.328 278.886 60.58C278.886 60.846 279.096 61.042 279.348 61.042ZM282.014 61.042C282.266 61.042 282.476 60.846 282.476 60.58C282.476 60.328 282.266 60.118 282.014 60.118C281.762 60.118 281.552 60.328 281.552 60.58C281.552 60.846 281.762 61.042 282.014 61.042ZM284.68 61.042C284.932 61.042 285.142 60.846 285.142 60.58C285.142 60.328 284.932 60.118 284.68 60.118C284.428 60.118 284.218 60.328 284.218 60.58C284.218 60.846 284.428 61.042 284.68 61.042ZM287.346 61.042C287.598 61.042 287.808 60.846 287.808 60.58C287.808 60.328 287.598 60.118 287.346 60.118C287.094 60.118 286.884 60.328 286.884 60.58C286.884 60.846 287.094 61.042 287.346 61.042ZM290.012 61.042C290.264 61.042 290.474 60.846 290.474 60.58C290.474 60.328 290.264 60.118 290.012 60.118C289.76 60.118 289.55 60.328 289.55 60.58C289.55 60.846 289.76 61.042 290.012 61.042ZM292.678 61.042C292.93 61.042 293.14 60.846 293.14 60.58C293.14 60.328 292.93 60.118 292.678 60.118C292.426 60.118 292.216 60.328 292.216 60.58C292.216 60.846 292.426 61.042 292.678 61.042ZM295.344 61.042C295.596 61.042 295.806 60.846 295.806 60.58C295.806 60.328 295.596 60.118 295.344 60.118C295.092 60.118 294.882 60.328 294.882 60.58C294.882 60.846 295.092 61.042 295.344 61.042ZM298.01 61.042C298.262 61.042 298.472 60.846 298.472 60.58C298.472 60.328 298.262 60.118 298.01 60.118C297.758 60.118 297.548 60.328 297.548 60.58C297.548 60.846 297.758 61.042 298.01 61.042ZM300.676 61.042C300.928 61.042 301.138 60.846 301.138 60.58C301.138 60.328 300.928 60.118 300.676 60.118C300.424 60.118 300.214 60.328 300.214 60.58C300.214 60.846 300.424 61.042 300.676 61.042ZM303.342 61.042C303.594 61.042 303.804 60.846 303.804 60.58C303.804 60.328 303.594 60.118 303.342 60.118C303.09 60.118 302.88 60.328 302.88 60.58C302.88 60.846 303.09 61.042 303.342 61.042ZM306.008 61.042C306.26 61.042 306.47 60.846 306.47 60.58C306.47 60.328 306.26 60.118 306.008 60.118C305.756 60.118 305.546 60.328 305.546 60.58C305.546 60.846 305.756 61.042 306.008 61.042ZM132.416 86.042C132.668 86.042 132.878 85.846 132.878 85.58C132.878 85.328 132.668 85.118 132.416 85.118C132.164 85.118 131.954 85.328 131.954 85.58C131.954 85.846 132.164 86.042 132.416 86.042ZM135.082 86.042C135.334 86.042 135.544 85.846 135.544 85.58C135.544 85.328 135.334 85.118 135.082 85.118C134.83 85.118 134.62 85.328 134.62 85.58C134.62 85.846 134.83 86.042 135.082 86.042ZM137.748 86.042C138 86.042 138.21 85.846 138.21 85.58C138.21 85.328 138 85.118 137.748 85.118C137.496 85.118 137.286 85.328 137.286 85.58C137.286 85.846 137.496 86.042 137.748 86.042ZM140.414 86.042C140.666 86.042 140.876 85.846 140.876 85.58C140.876 85.328 140.666 85.118 140.414 85.118C140.162 85.118 139.952 85.328 139.952 85.58C139.952 85.846 140.162 86.042 140.414 86.042ZM143.08 86.042C143.332 86.042 143.542 85.846 143.542 85.58C143.542 85.328 143.332 85.118 143.08 85.118C142.828 85.118 142.618 85.328 142.618 85.58C142.618 85.846 142.828 86.042 143.08 86.042ZM145.746 86.042C145.998 86.042 146.208 85.846 146.208 85.58C146.208 85.328 145.998 85.118 145.746 85.118C145.494 85.118 145.284 85.328 145.284 85.58C145.284 85.846 145.494 86.042 145.746 86.042ZM148.412 86.042C148.664 86.042 148.874 85.846 148.874 85.58C148.874 85.328 148.664 85.118 148.412 85.118C148.16 85.118 147.95 85.328 147.95 85.58C147.95 85.846 148.16 86.042 148.412 86.042ZM151.078 86.042C151.33 86.042 151.54 85.846 151.54 85.58C151.54 85.328 151.33 85.118 151.078 85.118C150.826 85.118 150.616 85.328 150.616 85.58C150.616 85.846 150.826 86.042 151.078 86.042ZM153.744 86.042C153.996 86.042 154.206 85.846 154.206 85.58C154.206 85.328 153.996 85.118 153.744 85.118C153.492 85.118 153.282 85.328 153.282 85.58C153.282 85.846 153.492 86.042 153.744 86.042ZM156.41 86.042C156.662 86.042 156.872 85.846 156.872 85.58C156.872 85.328 156.662 85.118 156.41 85.118C156.158 85.118 155.948 85.328 155.948 85.58C155.948 85.846 156.158 86.042 156.41 86.042ZM159.076 86.042C159.328 86.042 159.538 85.846 159.538 85.58C159.538 85.328 159.328 85.118 159.076 85.118C158.824 85.118 158.614 85.328 158.614 85.58C158.614 85.846 158.824 86.042 159.076 86.042ZM161.742 86.042C161.994 86.042 162.204 85.846 162.204 85.58C162.204 85.328 161.994 85.118 161.742 85.118C161.49 85.118 161.28 85.328 161.28 85.58C161.28 85.846 161.49 86.042 161.742 86.042ZM164.408 86.042C164.66 86.042 164.87 85.846 164.87 85.58C164.87 85.328 164.66 85.118 164.408 85.118C164.156 85.118 163.946 85.328 163.946 85.58C163.946 85.846 164.156 86.042 164.408 86.042ZM167.074 86.042C167.326 86.042 167.536 85.846 167.536 85.58C167.536 85.328 167.326 85.118 167.074 85.118C166.822 85.118 166.612 85.328 166.612 85.58C166.612 85.846 166.822 86.042 167.074 86.042ZM169.74 86.042C169.992 86.042 170.202 85.846 170.202 85.58C170.202 85.328 169.992 85.118 169.74 85.118C169.488 85.118 169.278 85.328 169.278 85.58C169.278 85.846 169.488 86.042 169.74 86.042ZM172.406 86.042C172.658 86.042 172.868 85.846 172.868 85.58C172.868 85.328 172.658 85.118 172.406 85.118C172.154 85.118 171.944 85.328 171.944 85.58C171.944 85.846 172.154 86.042 172.406 86.042ZM175.072 86.042C175.324 86.042 175.534 85.846 175.534 85.58C175.534 85.328 175.324 85.118 175.072 85.118C174.82 85.118 174.61 85.328 174.61 85.58C174.61 85.846 174.82 86.042 175.072 86.042ZM177.738 86.042C177.99 86.042 178.2 85.846 178.2 85.58C178.2 85.328 177.99 85.118 177.738 85.118C177.486 85.118 177.276 85.328 177.276 85.58C177.276 85.846 177.486 86.042 177.738 86.042ZM180.404 86.042C180.656 86.042 180.866 85.846 180.866 85.58C180.866 85.328 180.656 85.118 180.404 85.118C180.152 85.118 179.942 85.328 179.942 85.58C179.942 85.846 180.152 86.042 180.404 86.042ZM183.07 86.042C183.322 86.042 183.532 85.846 183.532 85.58C183.532 85.328 183.322 85.118 183.07 85.118C182.818 85.118 182.608 85.328 182.608 85.58C182.608 85.846 182.818 86.042 183.07 86.042ZM185.736 86.042C185.988 86.042 186.198 85.846 186.198 85.58C186.198 85.328 185.988 85.118 185.736 85.118C185.484 85.118 185.274 85.328 185.274 85.58C185.274 85.846 185.484 86.042 185.736 86.042ZM188.402 86.042C188.654 86.042 188.864 85.846 188.864 85.58C188.864 85.328 188.654 85.118 188.402 85.118C188.15 85.118 187.94 85.328 187.94 85.58C187.94 85.846 188.15 86.042 188.402 86.042ZM191.068 86.042C191.32 86.042 191.53 85.846 191.53 85.58C191.53 85.328 191.32 85.118 191.068 85.118C190.816 85.118 190.606 85.328 190.606 85.58C190.606 85.846 190.816 86.042 191.068 86.042ZM193.734 86.042C193.986 86.042 194.196 85.846 194.196 85.58C194.196 85.328 193.986 85.118 193.734 85.118C193.482 85.118 193.272 85.328 193.272 85.58C193.272 85.846 193.482 86.042 193.734 86.042ZM196.4 86.042C196.652 86.042 196.862 85.846 196.862 85.58C196.862 85.328 196.652 85.118 196.4 85.118C196.148 85.118 195.938 85.328 195.938 85.58C195.938 85.846 196.148 86.042 196.4 86.042ZM199.066 86.042C199.318 86.042 199.528 85.846 199.528 85.58C199.528 85.328 199.318 85.118 199.066 85.118C198.814 85.118 198.604 85.328 198.604 85.58C198.604 85.846 198.814 86.042 199.066 86.042ZM201.732 86.042C201.984 86.042 202.194 85.846 202.194 85.58C202.194 85.328 201.984 85.118 201.732 85.118C201.48 85.118 201.27 85.328 201.27 85.58C201.27 85.846 201.48 86.042 201.732 86.042ZM204.398 86.042C204.65 86.042 204.86 85.846 204.86 85.58C204.86 85.328 204.65 85.118 204.398 85.118C204.146 85.118 203.936 85.328 203.936 85.58C203.936 85.846 204.146 86.042 204.398 86.042ZM207.064 86.042C207.316 86.042 207.526 85.846 207.526 85.58C207.526 85.328 207.316 85.118 207.064 85.118C206.812 85.118 206.602 85.328 206.602 85.58C206.602 85.846 206.812 86.042 207.064 86.042ZM209.73 86.042C209.982 86.042 210.192 85.846 210.192 85.58C210.192 85.328 209.982 85.118 209.73 85.118C209.478 85.118 209.268 85.328 209.268 85.58C209.268 85.846 209.478 86.042 209.73 86.042ZM212.396 86.042C212.648 86.042 212.858 85.846 212.858 85.58C212.858 85.328 212.648 85.118 212.396 85.118C212.144 85.118 211.934 85.328 211.934 85.58C211.934 85.846 212.144 86.042 212.396 86.042ZM215.062 86.042C215.314 86.042 215.524 85.846 215.524 85.58C215.524 85.328 215.314 85.118 215.062 85.118C214.81 85.118 214.6 85.328 214.6 85.58C214.6 85.846 214.81 86.042 215.062 86.042ZM217.728 86.042C217.98 86.042 218.19 85.846 218.19 85.58C218.19 85.328 217.98 85.118 217.728 85.118C217.476 85.118 217.266 85.328 217.266 85.58C217.266 85.846 217.476 86.042 217.728 86.042ZM220.394 86.042C220.646 86.042 220.856 85.846 220.856 85.58C220.856 85.328 220.646 85.118 220.394 85.118C220.142 85.118 219.932 85.328 219.932 85.58C219.932 85.846 220.142 86.042 220.394 86.042ZM223.06 86.042C223.312 86.042 223.522 85.846 223.522 85.58C223.522 85.328 223.312 85.118 223.06 85.118C222.808 85.118 222.598 85.328 222.598 85.58C222.598 85.846 222.808 86.042 223.06 86.042ZM225.726 86.042C225.978 86.042 226.188 85.846 226.188 85.58C226.188 85.328 225.978 85.118 225.726 85.118C225.474 85.118 225.264 85.328 225.264 85.58C225.264 85.846 225.474 86.042 225.726 86.042ZM228.393 86.042C228.645 86.042 228.855 85.846 228.855 85.58C228.855 85.328 228.645 85.118 228.393 85.118C228.141 85.118 227.931 85.328 227.931 85.58C227.931 85.846 228.141 86.042 228.393 86.042ZM231.059 86.042C231.311 86.042 231.521 85.846 231.521 85.58C231.521 85.328 231.311 85.118 231.059 85.118C230.807 85.118 230.597 85.328 230.597 85.58C230.597 85.846 230.807 86.042 231.059 86.042ZM233.725 86.042C233.977 86.042 234.187 85.846 234.187 85.58C234.187 85.328 233.977 85.118 233.725 85.118C233.473 85.118 233.263 85.328 233.263 85.58C233.263 85.846 233.473 86.042 233.725 86.042ZM236.391 86.042C236.643 86.042 236.853 85.846 236.853 85.58C236.853 85.328 236.643 85.118 236.391 85.118C236.139 85.118 235.929 85.328 235.929 85.58C235.929 85.846 236.139 86.042 236.391 86.042ZM239.057 86.042C239.309 86.042 239.519 85.846 239.519 85.58C239.519 85.328 239.309 85.118 239.057 85.118C238.805 85.118 238.595 85.328 238.595 85.58C238.595 85.846 238.805 86.042 239.057 86.042ZM241.723 86.042C241.975 86.042 242.185 85.846 242.185 85.58C242.185 85.328 241.975 85.118 241.723 85.118C241.471 85.118 241.261 85.328 241.261 85.58C241.261 85.846 241.471 86.042 241.723 86.042ZM244.389 86.042C244.641 86.042 244.851 85.846 244.851 85.58C244.851 85.328 244.641 85.118 244.389 85.118C244.137 85.118 243.927 85.328 243.927 85.58C243.927 85.846 244.137 86.042 244.389 86.042ZM247.055 86.042C247.307 86.042 247.517 85.846 247.517 85.58C247.517 85.328 247.307 85.118 247.055 85.118C246.803 85.118 246.593 85.328 246.593 85.58C246.593 85.846 246.803 86.042 247.055 86.042ZM123.625 112.042C123.877 112.042 124.087 111.846 124.087 111.58C124.087 111.328 123.877 111.118 123.625 111.118C123.373 111.118 123.163 111.328 123.163 111.58C123.163 111.846 123.373 112.042 123.625 112.042ZM126.291 112.042C126.543 112.042 126.753 111.846 126.753 111.58C126.753 111.328 126.543 111.118 126.291 111.118C126.039 111.118 125.829 111.328 125.829 111.58C125.829 111.846 126.039 112.042 126.291 112.042ZM128.957 112.042C129.209 112.042 129.419 111.846 129.419 111.58C129.419 111.328 129.209 111.118 128.957 111.118C128.705 111.118 128.495 111.328 128.495 111.58C128.495 111.846 128.705 112.042 128.957 112.042ZM131.623 112.042C131.875 112.042 132.085 111.846 132.085 111.58C132.085 111.328 131.875 111.118 131.623 111.118C131.371 111.118 131.161 111.328 131.161 111.58C131.161 111.846 131.371 112.042 131.623 112.042ZM134.289 112.042C134.541 112.042 134.751 111.846 134.751 111.58C134.751 111.328 134.541 111.118 134.289 111.118C134.037 111.118 133.827 111.328 133.827 111.58C133.827 111.846 134.037 112.042 134.289 112.042ZM136.955 112.042C137.207 112.042 137.417 111.846 137.417 111.58C137.417 111.328 137.207 111.118 136.955 111.118C136.703 111.118 136.493 111.328 136.493 111.58C136.493 111.846 136.703 112.042 136.955 112.042ZM139.621 112.042C139.873 112.042 140.083 111.846 140.083 111.58C140.083 111.328 139.873 111.118 139.621 111.118C139.369 111.118 139.159 111.328 139.159 111.58C139.159 111.846 139.369 112.042 139.621 112.042ZM142.287 112.042C142.539 112.042 142.749 111.846 142.749 111.58C142.749 111.328 142.539 111.118 142.287 111.118C142.035 111.118 141.825 111.328 141.825 111.58C141.825 111.846 142.035 112.042 142.287 112.042ZM144.953 112.042C145.205 112.042 145.415 111.846 145.415 111.58C145.415 111.328 145.205 111.118 144.953 111.118C144.701 111.118 144.491 111.328 144.491 111.58C144.491 111.846 144.701 112.042 144.953 112.042ZM147.619 112.042C147.871 112.042 148.081 111.846 148.081 111.58C148.081 111.328 147.871 111.118 147.619 111.118C147.367 111.118 147.157 111.328 147.157 111.58C147.157 111.846 147.367 112.042 147.619 112.042ZM150.285 112.042C150.537 112.042 150.747 111.846 150.747 111.58C150.747 111.328 150.537 111.118 150.285 111.118C150.033 111.118 149.823 111.328 149.823 111.58C149.823 111.846 150.033 112.042 150.285 112.042ZM152.951 112.042C153.203 112.042 153.413 111.846 153.413 111.58C153.413 111.328 153.203 111.118 152.951 111.118C152.699 111.118 152.489 111.328 152.489 111.58C152.489 111.846 152.699 112.042 152.951 112.042ZM155.617 112.042C155.869 112.042 156.079 111.846 156.079 111.58C156.079 111.328 155.869 111.118 155.617 111.118C155.365 111.118 155.155 111.328 155.155 111.58C155.155 111.846 155.365 112.042 155.617 112.042ZM158.283 112.042C158.535 112.042 158.745 111.846 158.745 111.58C158.745 111.328 158.535 111.118 158.283 111.118C158.031 111.118 157.821 111.328 157.821 111.58C157.821 111.846 158.031 112.042 158.283 112.042ZM160.949 112.042C161.201 112.042 161.411 111.846 161.411 111.58C161.411 111.328 161.201 111.118 160.949 111.118C160.697 111.118 160.487 111.328 160.487 111.58C160.487 111.846 160.697 112.042 160.949 112.042ZM163.615 112.042C163.867 112.042 164.077 111.846 164.077 111.58C164.077 111.328 163.867 111.118 163.615 111.118C163.363 111.118 163.153 111.328 163.153 111.58C163.153 111.846 163.363 112.042 163.615 112.042ZM166.281 112.042C166.533 112.042 166.743 111.846 166.743 111.58C166.743 111.328 166.533 111.118 166.281 111.118C166.029 111.118 165.819 111.328 165.819 111.58C165.819 111.846 166.029 112.042 166.281 112.042ZM168.947 112.042C169.199 112.042 169.409 111.846 169.409 111.58C169.409 111.328 169.199 111.118 168.947 111.118C168.695 111.118 168.485 111.328 168.485 111.58C168.485 111.846 168.695 112.042 168.947 112.042ZM171.613 112.042C171.865 112.042 172.075 111.846 172.075 111.58C172.075 111.328 171.865 111.118 171.613 111.118C171.361 111.118 171.151 111.328 171.151 111.58C171.151 111.846 171.361 112.042 171.613 112.042ZM174.279 112.042C174.531 112.042 174.741 111.846 174.741 111.58C174.741 111.328 174.531 111.118 174.279 111.118C174.027 111.118 173.817 111.328 173.817 111.58C173.817 111.846 174.027 112.042 174.279 112.042ZM176.945 112.042C177.197 112.042 177.407 111.846 177.407 111.58C177.407 111.328 177.197 111.118 176.945 111.118C176.693 111.118 176.483 111.328 176.483 111.58C176.483 111.846 176.693 112.042 176.945 112.042ZM179.611 112.042C179.863 112.042 180.073 111.846 180.073 111.58C180.073 111.328 179.863 111.118 179.611 111.118C179.359 111.118 179.149 111.328 179.149 111.58C179.149 111.846 179.359 112.042 179.611 112.042ZM182.277 112.042C182.529 112.042 182.739 111.846 182.739 111.58C182.739 111.328 182.529 111.118 182.277 111.118C182.025 111.118 181.815 111.328 181.815 111.58C181.815 111.846 182.025 112.042 182.277 112.042ZM184.943 112.042C185.195 112.042 185.405 111.846 185.405 111.58C185.405 111.328 185.195 111.118 184.943 111.118C184.691 111.118 184.481 111.328 184.481 111.58C184.481 111.846 184.691 112.042 184.943 112.042ZM187.609 112.042C187.861 112.042 188.071 111.846 188.071 111.58C188.071 111.328 187.861 111.118 187.609 111.118C187.357 111.118 187.147 111.328 187.147 111.58C187.147 111.846 187.357 112.042 187.609 112.042ZM190.275 112.042C190.527 112.042 190.737 111.846 190.737 111.58C190.737 111.328 190.527 111.118 190.275 111.118C190.023 111.118 189.813 111.328 189.813 111.58C189.813 111.846 190.023 112.042 190.275 112.042ZM192.941 112.042C193.193 112.042 193.403 111.846 193.403 111.58C193.403 111.328 193.193 111.118 192.941 111.118C192.689 111.118 192.479 111.328 192.479 111.58C192.479 111.846 192.689 112.042 192.941 112.042ZM195.607 112.042C195.859 112.042 196.069 111.846 196.069 111.58C196.069 111.328 195.859 111.118 195.607 111.118C195.355 111.118 195.145 111.328 195.145 111.58C195.145 111.846 195.355 112.042 195.607 112.042ZM198.273 112.042C198.525 112.042 198.735 111.846 198.735 111.58C198.735 111.328 198.525 111.118 198.273 111.118C198.021 111.118 197.811 111.328 197.811 111.58C197.811 111.846 198.021 112.042 198.273 112.042ZM200.939 112.042C201.191 112.042 201.401 111.846 201.401 111.58C201.401 111.328 201.191 111.118 200.939 111.118C200.687 111.118 200.477 111.328 200.477 111.58C200.477 111.846 200.687 112.042 200.939 112.042ZM203.605 112.042C203.857 112.042 204.067 111.846 204.067 111.58C204.067 111.328 203.857 111.118 203.605 111.118C203.353 111.118 203.143 111.328 203.143 111.58C203.143 111.846 203.353 112.042 203.605 112.042ZM206.271 112.042C206.523 112.042 206.733 111.846 206.733 111.58C206.733 111.328 206.523 111.118 206.271 111.118C206.019 111.118 205.809 111.328 205.809 111.58C205.809 111.846 206.019 112.042 206.271 112.042ZM208.937 112.042C209.189 112.042 209.399 111.846 209.399 111.58C209.399 111.328 209.189 111.118 208.937 111.118C208.685 111.118 208.475 111.328 208.475 111.58C208.475 111.846 208.685 112.042 208.937 112.042ZM211.603 112.042C211.855 112.042 212.065 111.846 212.065 111.58C212.065 111.328 211.855 111.118 211.603 111.118C211.351 111.118 211.141 111.328 211.141 111.58C211.141 111.846 211.351 112.042 211.603 112.042ZM214.269 112.042C214.521 112.042 214.731 111.846 214.731 111.58C214.731 111.328 214.521 111.118 214.269 111.118C214.017 111.118 213.807 111.328 213.807 111.58C213.807 111.846 214.017 112.042 214.269 112.042ZM216.935 112.042C217.187 112.042 217.397 111.846 217.397 111.58C217.397 111.328 217.187 111.118 216.935 111.118C216.683 111.118 216.473 111.328 216.473 111.58C216.473 111.846 216.683 112.042 216.935 112.042ZM219.601 112.042C219.853 112.042 220.063 111.846 220.063 111.58C220.063 111.328 219.853 111.118 219.601 111.118C219.349 111.118 219.139 111.328 219.139 111.58C219.139 111.846 219.349 112.042 219.601 112.042ZM222.268 112.042C222.52 112.042 222.73 111.846 222.73 111.58C222.73 111.328 222.52 111.118 222.268 111.118C222.016 111.118 221.806 111.328 221.806 111.58C221.806 111.846 222.016 112.042 222.268 112.042ZM224.934 112.042C225.186 112.042 225.396 111.846 225.396 111.58C225.396 111.328 225.186 111.118 224.934 111.118C224.682 111.118 224.472 111.328 224.472 111.58C224.472 111.846 224.682 112.042 224.934 112.042ZM227.6 112.042C227.852 112.042 228.062 111.846 228.062 111.58C228.062 111.328 227.852 111.118 227.6 111.118C227.348 111.118 227.138 111.328 227.138 111.58C227.138 111.846 227.348 112.042 227.6 112.042ZM230.266 112.042C230.518 112.042 230.728 111.846 230.728 111.58C230.728 111.328 230.518 111.118 230.266 111.118C230.014 111.118 229.804 111.328 229.804 111.58C229.804 111.846 230.014 112.042 230.266 112.042ZM232.932 112.042C233.184 112.042 233.394 111.846 233.394 111.58C233.394 111.328 233.184 111.118 232.932 111.118C232.68 111.118 232.47 111.328 232.47 111.58C232.47 111.846 232.68 112.042 232.932 112.042ZM235.598 112.042C235.85 112.042 236.06 111.846 236.06 111.58C236.06 111.328 235.85 111.118 235.598 111.118C235.346 111.118 235.136 111.328 235.136 111.58C235.136 111.846 235.346 112.042 235.598 112.042ZM238.264 112.042C238.516 112.042 238.726 111.846 238.726 111.58C238.726 111.328 238.516 111.118 238.264 111.118C238.012 111.118 237.802 111.328 237.802 111.58C237.802 111.846 238.012 112.042 238.264 112.042ZM240.93 112.042C241.182 112.042 241.392 111.846 241.392 111.58C241.392 111.328 241.182 111.118 240.93 111.118C240.678 111.118 240.468 111.328 240.468 111.58C240.468 111.846 240.678 112.042 240.93 112.042ZM243.596 112.042C243.848 112.042 244.058 111.846 244.058 111.58C244.058 111.328 243.848 111.118 243.596 111.118C243.344 111.118 243.134 111.328 243.134 111.58C243.134 111.846 243.344 112.042 243.596 112.042ZM246.262 112.042C246.514 112.042 246.724 111.846 246.724 111.58C246.724 111.328 246.514 111.118 246.262 111.118C246.01 111.118 245.8 111.328 245.8 111.58C245.8 111.846 246.01 112.042 246.262 112.042ZM248.928 112.042C249.18 112.042 249.39 111.846 249.39 111.58C249.39 111.328 249.18 111.118 248.928 111.118C248.676 111.118 248.466 111.328 248.466 111.58C248.466 111.846 248.676 112.042 248.928 112.042ZM251.594 112.042C251.846 112.042 252.056 111.846 252.056 111.58C252.056 111.328 251.846 111.118 251.594 111.118C251.342 111.118 251.132 111.328 251.132 111.58C251.132 111.846 251.342 112.042 251.594 112.042ZM254.26 112.042C254.512 112.042 254.722 111.846 254.722 111.58C254.722 111.328 254.512 111.118 254.26 111.118C254.008 111.118 253.798 111.328 253.798 111.58C253.798 111.846 254.008 112.042 254.26 112.042ZM256.926 112.042C257.178 112.042 257.388 111.846 257.388 111.58C257.388 111.328 257.178 111.118 256.926 111.118C256.674 111.118 256.464 111.328 256.464 111.58C256.464 111.846 256.674 112.042 256.926 112.042ZM259.592 112.042C259.844 112.042 260.054 111.846 260.054 111.58C260.054 111.328 259.844 111.118 259.592 111.118C259.34 111.118 259.13 111.328 259.13 111.58C259.13 111.846 259.34 112.042 259.592 112.042ZM262.258 112.042C262.51 112.042 262.72 111.846 262.72 111.58C262.72 111.328 262.51 111.118 262.258 111.118C262.006 111.118 261.796 111.328 261.796 111.58C261.796 111.846 262.006 112.042 262.258 112.042ZM264.924 112.042C265.176 112.042 265.386 111.846 265.386 111.58C265.386 111.328 265.176 111.118 264.924 111.118C264.672 111.118 264.462 111.328 264.462 111.58C264.462 111.846 264.672 112.042 264.924 112.042ZM267.59 112.042C267.842 112.042 268.052 111.846 268.052 111.58C268.052 111.328 267.842 111.118 267.59 111.118C267.338 111.118 267.128 111.328 267.128 111.58C267.128 111.846 267.338 112.042 267.59 112.042ZM270.256 112.042C270.508 112.042 270.718 111.846 270.718 111.58C270.718 111.328 270.508 111.118 270.256 111.118C270.004 111.118 269.794 111.328 269.794 111.58C269.794 111.846 270.004 112.042 270.256 112.042ZM272.922 112.042C273.174 112.042 273.384 111.846 273.384 111.58C273.384 111.328 273.174 111.118 272.922 111.118C272.67 111.118 272.46 111.328 272.46 111.58C272.46 111.846 272.67 112.042 272.922 112.042ZM275.588 112.042C275.84 112.042 276.05 111.846 276.05 111.58C276.05 111.328 275.84 111.118 275.588 111.118C275.336 111.118 275.126 111.328 275.126 111.58C275.126 111.846 275.336 112.042 275.588 112.042ZM278.254 112.042C278.506 112.042 278.716 111.846 278.716 111.58C278.716 111.328 278.506 111.118 278.254 111.118C278.002 111.118 277.792 111.328 277.792 111.58C277.792 111.846 278.002 112.042 278.254 112.042ZM50.0429 138.042C50.2949 138.042 50.5049 137.846 50.5049 137.58C50.5049 137.328 50.2949 137.118 50.0429 137.118C49.7909 137.118 49.5809 137.328 49.5809 137.58C49.5809 137.846 49.7909 138.042 50.0429 138.042ZM52.7089 138.042C52.9609 138.042 53.1709 137.846 53.1709 137.58C53.1709 137.328 52.9609 137.118 52.7089 137.118C52.4569 137.118 52.2469 137.328 52.2469 137.58C52.2469 137.846 52.4569 138.042 52.7089 138.042ZM55.3749 138.042C55.6269 138.042 55.8369 137.846 55.8369 137.58C55.8369 137.328 55.6269 137.118 55.3749 137.118C55.1229 137.118 54.9129 137.328 54.9129 137.58C54.9129 137.846 55.1229 138.042 55.3749 138.042ZM58.0409 138.042C58.2929 138.042 58.5029 137.846 58.5029 137.58C58.5029 137.328 58.2929 137.118 58.0409 137.118C57.7889 137.118 57.5789 137.328 57.5789 137.58C57.5789 137.846 57.7889 138.042 58.0409 138.042ZM60.707 138.042C60.959 138.042 61.169 137.846 61.169 137.58C61.169 137.328 60.959 137.118 60.707 137.118C60.455 137.118 60.245 137.328 60.245 137.58C60.245 137.846 60.455 138.042 60.707 138.042ZM63.373 138.042C63.625 138.042 63.835 137.846 63.835 137.58C63.835 137.328 63.625 137.118 63.373 137.118C63.121 137.118 62.911 137.328 62.911 137.58C62.911 137.846 63.121 138.042 63.373 138.042ZM66.039 138.042C66.291 138.042 66.501 137.846 66.501 137.58C66.501 137.328 66.291 137.118 66.039 137.118C65.787 137.118 65.577 137.328 65.577 137.58C65.577 137.846 65.787 138.042 66.039 138.042ZM68.705 138.042C68.957 138.042 69.167 137.846 69.167 137.58C69.167 137.328 68.957 137.118 68.705 137.118C68.453 137.118 68.243 137.328 68.243 137.58C68.243 137.846 68.453 138.042 68.705 138.042ZM71.371 138.042C71.623 138.042 71.833 137.846 71.833 137.58C71.833 137.328 71.623 137.118 71.371 137.118C71.119 137.118 70.909 137.328 70.909 137.58C70.909 137.846 71.119 138.042 71.371 138.042ZM74.037 138.042C74.289 138.042 74.499 137.846 74.499 137.58C74.499 137.328 74.289 137.118 74.037 137.118C73.785 137.118 73.575 137.328 73.575 137.58C73.575 137.846 73.785 138.042 74.037 138.042ZM76.703 138.042C76.955 138.042 77.165 137.846 77.165 137.58C77.165 137.328 76.955 137.118 76.703 137.118C76.451 137.118 76.241 137.328 76.241 137.58C76.241 137.846 76.451 138.042 76.703 138.042ZM79.3691 138.042C79.6211 138.042 79.8311 137.846 79.8311 137.58C79.8311 137.328 79.6211 137.118 79.3691 137.118C79.1171 137.118 78.9071 137.328 78.9071 137.58C78.9071 137.846 79.1171 138.042 79.3691 138.042ZM82.0351 138.042C82.2871 138.042 82.4971 137.846 82.4971 137.58C82.4971 137.328 82.2871 137.118 82.0351 137.118C81.7831 137.118 81.5731 137.328 81.5731 137.58C81.5731 137.846 81.7831 138.042 82.0351 138.042ZM84.7011 138.042C84.9531 138.042 85.1631 137.846 85.1631 137.58C85.1631 137.328 84.9531 137.118 84.7011 137.118C84.4491 137.118 84.2391 137.328 84.2391 137.58C84.2391 137.846 84.4491 138.042 84.7011 138.042ZM87.3671 138.042C87.6191 138.042 87.8291 137.846 87.8291 137.58C87.8291 137.328 87.6191 137.118 87.3671 137.118C87.1151 137.118 86.9051 137.328 86.9051 137.58C86.9051 137.846 87.1151 138.042 87.3671 138.042ZM90.0331 138.042C90.2851 138.042 90.4951 137.846 90.4951 137.58C90.4951 137.328 90.2851 137.118 90.0331 137.118C89.7811 137.118 89.5711 137.328 89.5711 137.58C89.5711 137.846 89.7811 138.042 90.0331 138.042ZM92.6991 138.042C92.9511 138.042 93.1611 137.846 93.1611 137.58C93.1611 137.328 92.9511 137.118 92.6991 137.118C92.4471 137.118 92.2371 137.328 92.2371 137.58C92.2371 137.846 92.4471 138.042 92.6991 138.042ZM95.3652 138.042C95.6172 138.042 95.8272 137.846 95.8272 137.58C95.8272 137.328 95.6172 137.118 95.3652 137.118C95.1132 137.118 94.9032 137.328 94.9032 137.58C94.9032 137.846 95.1132 138.042 95.3652 138.042ZM98.0312 138.042C98.2832 138.042 98.4932 137.846 98.4932 137.58C98.4932 137.328 98.2832 137.118 98.0312 137.118C97.7792 137.118 97.5692 137.328 97.5692 137.58C97.5692 137.846 97.7792 138.042 98.0312 138.042ZM100.697 138.042C100.949 138.042 101.159 137.846 101.159 137.58C101.159 137.328 100.949 137.118 100.697 137.118C100.445 137.118 100.235 137.328 100.235 137.58C100.235 137.846 100.445 138.042 100.697 138.042ZM103.363 138.042C103.615 138.042 103.825 137.846 103.825 137.58C103.825 137.328 103.615 137.118 103.363 137.118C103.111 137.118 102.901 137.328 102.901 137.58C102.901 137.846 103.111 138.042 103.363 138.042ZM106.029 138.042C106.281 138.042 106.491 137.846 106.491 137.58C106.491 137.328 106.281 137.118 106.029 137.118C105.777 137.118 105.567 137.328 105.567 137.58C105.567 137.846 105.777 138.042 106.029 138.042ZM108.695 138.042C108.947 138.042 109.157 137.846 109.157 137.58C109.157 137.328 108.947 137.118 108.695 137.118C108.443 137.118 108.233 137.328 108.233 137.58C108.233 137.846 108.443 138.042 108.695 138.042ZM111.361 138.042C111.613 138.042 111.823 137.846 111.823 137.58C111.823 137.328 111.613 137.118 111.361 137.118C111.109 137.118 110.899 137.328 110.899 137.58C110.899 137.846 111.109 138.042 111.361 138.042ZM114.027 138.042C114.279 138.042 114.489 137.846 114.489 137.58C114.489 137.328 114.279 137.118 114.027 137.118C113.775 137.118 113.565 137.328 113.565 137.58C113.565 137.846 113.775 138.042 114.027 138.042ZM116.693 138.042C116.945 138.042 117.155 137.846 117.155 137.58C117.155 137.328 116.945 137.118 116.693 137.118C116.441 137.118 116.231 137.328 116.231 137.58C116.231 137.846 116.441 138.042 116.693 138.042ZM119.359 138.042C119.611 138.042 119.821 137.846 119.821 137.58C119.821 137.328 119.611 137.118 119.359 137.118C119.107 137.118 118.897 137.328 118.897 137.58C118.897 137.846 119.107 138.042 119.359 138.042ZM122.025 138.042C122.277 138.042 122.487 137.846 122.487 137.58C122.487 137.328 122.277 137.118 122.025 137.118C121.773 137.118 121.563 137.328 121.563 137.58C121.563 137.846 121.773 138.042 122.025 138.042ZM124.691 138.042C124.943 138.042 125.153 137.846 125.153 137.58C125.153 137.328 124.943 137.118 124.691 137.118C124.439 137.118 124.229 137.328 124.229 137.58C124.229 137.846 124.439 138.042 124.691 138.042ZM127.357 138.042C127.609 138.042 127.819 137.846 127.819 137.58C127.819 137.328 127.609 137.118 127.357 137.118C127.105 137.118 126.895 137.328 126.895 137.58C126.895 137.846 127.105 138.042 127.357 138.042ZM130.023 138.042C130.275 138.042 130.485 137.846 130.485 137.58C130.485 137.328 130.275 137.118 130.023 137.118C129.771 137.118 129.561 137.328 129.561 137.58C129.561 137.846 129.771 138.042 130.023 138.042ZM132.689 138.042C132.941 138.042 133.151 137.846 133.151 137.58C133.151 137.328 132.941 137.118 132.689 137.118C132.437 137.118 132.227 137.328 132.227 137.58C132.227 137.846 132.437 138.042 132.689 138.042ZM135.355 138.042C135.607 138.042 135.817 137.846 135.817 137.58C135.817 137.328 135.607 137.118 135.355 137.118C135.103 137.118 134.893 137.328 134.893 137.58C134.893 137.846 135.103 138.042 135.355 138.042ZM138.021 138.042C138.273 138.042 138.483 137.846 138.483 137.58C138.483 137.328 138.273 137.118 138.021 137.118C137.769 137.118 137.559 137.328 137.559 137.58C137.559 137.846 137.769 138.042 138.021 138.042ZM140.687 138.042C140.939 138.042 141.149 137.846 141.149 137.58C141.149 137.328 140.939 137.118 140.687 137.118C140.435 137.118 140.225 137.328 140.225 137.58C140.225 137.846 140.435 138.042 140.687 138.042ZM143.353 138.042C143.605 138.042 143.815 137.846 143.815 137.58C143.815 137.328 143.605 137.118 143.353 137.118C143.101 137.118 142.891 137.328 142.891 137.58C142.891 137.846 143.101 138.042 143.353 138.042ZM146.019 138.042C146.271 138.042 146.481 137.846 146.481 137.58C146.481 137.328 146.271 137.118 146.019 137.118C145.767 137.118 145.557 137.328 145.557 137.58C145.557 137.846 145.767 138.042 146.019 138.042ZM148.685 138.042C148.937 138.042 149.147 137.846 149.147 137.58C149.147 137.328 148.937 137.118 148.685 137.118C148.433 137.118 148.223 137.328 148.223 137.58C148.223 137.846 148.433 138.042 148.685 138.042ZM151.351 138.042C151.603 138.042 151.813 137.846 151.813 137.58C151.813 137.328 151.603 137.118 151.351 137.118C151.099 137.118 150.889 137.328 150.889 137.58C150.889 137.846 151.099 138.042 151.351 138.042ZM154.018 138.042C154.27 138.042 154.48 137.846 154.48 137.58C154.48 137.328 154.27 137.118 154.018 137.118C153.766 137.118 153.556 137.328 153.556 137.58C153.556 137.846 153.766 138.042 154.018 138.042ZM156.684 138.042C156.936 138.042 157.146 137.846 157.146 137.58C157.146 137.328 156.936 137.118 156.684 137.118C156.432 137.118 156.222 137.328 156.222 137.58C156.222 137.846 156.432 138.042 156.684 138.042ZM159.35 138.042C159.602 138.042 159.812 137.846 159.812 137.58C159.812 137.328 159.602 137.118 159.35 137.118C159.098 137.118 158.888 137.328 158.888 137.58C158.888 137.846 159.098 138.042 159.35 138.042ZM162.016 138.042C162.268 138.042 162.478 137.846 162.478 137.58C162.478 137.328 162.268 137.118 162.016 137.118C161.764 137.118 161.554 137.328 161.554 137.58C161.554 137.846 161.764 138.042 162.016 138.042ZM164.682 138.042C164.934 138.042 165.144 137.846 165.144 137.58C165.144 137.328 164.934 137.118 164.682 137.118C164.43 137.118 164.22 137.328 164.22 137.58C164.22 137.846 164.43 138.042 164.682 138.042ZM167.348 138.042C167.6 138.042 167.81 137.846 167.81 137.58C167.81 137.328 167.6 137.118 167.348 137.118C167.096 137.118 166.886 137.328 166.886 137.58C166.886 137.846 167.096 138.042 167.348 138.042ZM170.014 138.042C170.266 138.042 170.476 137.846 170.476 137.58C170.476 137.328 170.266 137.118 170.014 137.118C169.762 137.118 169.552 137.328 169.552 137.58C169.552 137.846 169.762 138.042 170.014 138.042ZM172.68 138.042C172.932 138.042 173.142 137.846 173.142 137.58C173.142 137.328 172.932 137.118 172.68 137.118C172.428 137.118 172.218 137.328 172.218 137.58C172.218 137.846 172.428 138.042 172.68 138.042ZM175.346 138.042C175.598 138.042 175.808 137.846 175.808 137.58C175.808 137.328 175.598 137.118 175.346 137.118C175.094 137.118 174.884 137.328 174.884 137.58C174.884 137.846 175.094 138.042 175.346 138.042ZM178.012 138.042C178.264 138.042 178.474 137.846 178.474 137.58C178.474 137.328 178.264 137.118 178.012 137.118C177.76 137.118 177.55 137.328 177.55 137.58C177.55 137.846 177.76 138.042 178.012 138.042ZM180.678 138.042C180.93 138.042 181.14 137.846 181.14 137.58C181.14 137.328 180.93 137.118 180.678 137.118C180.426 137.118 180.216 137.328 180.216 137.58C180.216 137.846 180.426 138.042 180.678 138.042ZM183.344 138.042C183.596 138.042 183.806 137.846 183.806 137.58C183.806 137.328 183.596 137.118 183.344 137.118C183.092 137.118 182.882 137.328 182.882 137.58C182.882 137.846 183.092 138.042 183.344 138.042ZM186.01 138.042C186.262 138.042 186.472 137.846 186.472 137.58C186.472 137.328 186.262 137.118 186.01 137.118C185.758 137.118 185.548 137.328 185.548 137.58C185.548 137.846 185.758 138.042 186.01 138.042ZM188.676 138.042C188.928 138.042 189.138 137.846 189.138 137.58C189.138 137.328 188.928 137.118 188.676 137.118C188.424 137.118 188.214 137.328 188.214 137.58C188.214 137.846 188.424 138.042 188.676 138.042ZM191.342 138.042C191.594 138.042 191.804 137.846 191.804 137.58C191.804 137.328 191.594 137.118 191.342 137.118C191.09 137.118 190.88 137.328 190.88 137.58C190.88 137.846 191.09 138.042 191.342 138.042ZM194.008 138.042C194.26 138.042 194.47 137.846 194.47 137.58C194.47 137.328 194.26 137.118 194.008 137.118C193.756 137.118 193.546 137.328 193.546 137.58C193.546 137.846 193.756 138.042 194.008 138.042ZM196.674 138.042C196.926 138.042 197.136 137.846 197.136 137.58C197.136 137.328 196.926 137.118 196.674 137.118C196.422 137.118 196.212 137.328 196.212 137.58C196.212 137.846 196.422 138.042 196.674 138.042ZM199.34 138.042C199.592 138.042 199.802 137.846 199.802 137.58C199.802 137.328 199.592 137.118 199.34 137.118C199.088 137.118 198.878 137.328 198.878 137.58C198.878 137.846 199.088 138.042 199.34 138.042ZM202.006 138.042C202.258 138.042 202.468 137.846 202.468 137.58C202.468 137.328 202.258 137.118 202.006 137.118C201.754 137.118 201.544 137.328 201.544 137.58C201.544 137.846 201.754 138.042 202.006 138.042ZM204.672 138.042C204.924 138.042 205.134 137.846 205.134 137.58C205.134 137.328 204.924 137.118 204.672 137.118C204.42 137.118 204.21 137.328 204.21 137.58C204.21 137.846 204.42 138.042 204.672 138.042ZM207.338 138.042C207.59 138.042 207.8 137.846 207.8 137.58C207.8 137.328 207.59 137.118 207.338 137.118C207.086 137.118 206.876 137.328 206.876 137.58C206.876 137.846 207.086 138.042 207.338 138.042ZM210.004 138.042C210.256 138.042 210.466 137.846 210.466 137.58C210.466 137.328 210.256 137.118 210.004 137.118C209.752 137.118 209.542 137.328 209.542 137.58C209.542 137.846 209.752 138.042 210.004 138.042ZM212.67 138.042C212.922 138.042 213.132 137.846 213.132 137.58C213.132 137.328 212.922 137.118 212.67 137.118C212.418 137.118 212.208 137.328 212.208 137.58C212.208 137.846 212.418 138.042 212.67 138.042ZM215.336 138.042C215.588 138.042 215.798 137.846 215.798 137.58C215.798 137.328 215.588 137.118 215.336 137.118C215.084 137.118 214.874 137.328 214.874 137.58C214.874 137.846 215.084 138.042 215.336 138.042ZM218.002 138.042C218.254 138.042 218.464 137.846 218.464 137.58C218.464 137.328 218.254 137.118 218.002 137.118C217.75 137.118 217.54 137.328 217.54 137.58C217.54 137.846 217.75 138.042 218.002 138.042ZM220.668 138.042C220.92 138.042 221.13 137.846 221.13 137.58C221.13 137.328 220.92 137.118 220.668 137.118C220.416 137.118 220.206 137.328 220.206 137.58C220.206 137.846 220.416 138.042 220.668 138.042ZM223.334 138.042C223.586 138.042 223.796 137.846 223.796 137.58C223.796 137.328 223.586 137.118 223.334 137.118C223.082 137.118 222.872 137.328 222.872 137.58C222.872 137.846 223.082 138.042 223.334 138.042ZM226 138.042C226.252 138.042 226.462 137.846 226.462 137.58C226.462 137.328 226.252 137.118 226 137.118C225.748 137.118 225.538 137.328 225.538 137.58C225.538 137.846 225.748 138.042 226 138.042ZM228.666 138.042C228.918 138.042 229.128 137.846 229.128 137.58C229.128 137.328 228.918 137.118 228.666 137.118C228.414 137.118 228.204 137.328 228.204 137.58C228.204 137.846 228.414 138.042 228.666 138.042ZM231.332 138.042C231.584 138.042 231.794 137.846 231.794 137.58C231.794 137.328 231.584 137.118 231.332 137.118C231.08 137.118 230.87 137.328 230.87 137.58C230.87 137.846 231.08 138.042 231.332 138.042ZM233.998 138.042C234.25 138.042 234.46 137.846 234.46 137.58C234.46 137.328 234.25 137.118 233.998 137.118C233.746 137.118 233.536 137.328 233.536 137.58C233.536 137.846 233.746 138.042 233.998 138.042ZM236.664 138.042C236.916 138.042 237.126 137.846 237.126 137.58C237.126 137.328 236.916 137.118 236.664 137.118C236.412 137.118 236.202 137.328 236.202 137.58C236.202 137.846 236.412 138.042 236.664 138.042ZM239.33 138.042C239.582 138.042 239.792 137.846 239.792 137.58C239.792 137.328 239.582 137.118 239.33 137.118C239.078 137.118 238.868 137.328 238.868 137.58C238.868 137.846 239.078 138.042 239.33 138.042ZM241.996 138.042C242.248 138.042 242.458 137.846 242.458 137.58C242.458 137.328 242.248 137.118 241.996 137.118C241.744 137.118 241.534 137.328 241.534 137.58C241.534 137.846 241.744 138.042 241.996 138.042ZM244.662 138.042C244.914 138.042 245.124 137.846 245.124 137.58C245.124 137.328 244.914 137.118 244.662 137.118C244.41 137.118 244.2 137.328 244.2 137.58C244.2 137.846 244.41 138.042 244.662 138.042ZM247.328 138.042C247.58 138.042 247.79 137.846 247.79 137.58C247.79 137.328 247.58 137.118 247.328 137.118C247.076 137.118 246.866 137.328 246.866 137.58C246.866 137.846 247.076 138.042 247.328 138.042ZM249.994 138.042C250.246 138.042 250.456 137.846 250.456 137.58C250.456 137.328 250.246 137.118 249.994 137.118C249.742 137.118 249.532 137.328 249.532 137.58C249.532 137.846 249.742 138.042 249.994 138.042ZM252.66 138.042C252.912 138.042 253.122 137.846 253.122 137.58C253.122 137.328 252.912 137.118 252.66 137.118C252.408 137.118 252.198 137.328 252.198 137.58C252.198 137.846 252.408 138.042 252.66 138.042ZM255.326 138.042C255.578 138.042 255.788 137.846 255.788 137.58C255.788 137.328 255.578 137.118 255.326 137.118C255.074 137.118 254.864 137.328 254.864 137.58C254.864 137.846 255.074 138.042 255.326 138.042ZM257.992 138.042C258.244 138.042 258.454 137.846 258.454 137.58C258.454 137.328 258.244 137.118 257.992 137.118C257.74 137.118 257.53 137.328 257.53 137.58C257.53 137.846 257.74 138.042 257.992 138.042ZM260.658 138.042C260.91 138.042 261.12 137.846 261.12 137.58C261.12 137.328 260.91 137.118 260.658 137.118C260.406 137.118 260.196 137.328 260.196 137.58C260.196 137.846 260.406 138.042 260.658 138.042ZM263.324 138.042C263.576 138.042 263.786 137.846 263.786 137.58C263.786 137.328 263.576 137.118 263.324 137.118C263.072 137.118 262.862 137.328 262.862 137.58C262.862 137.846 263.072 138.042 263.324 138.042ZM265.99 138.042C266.242 138.042 266.452 137.846 266.452 137.58C266.452 137.328 266.242 137.118 265.99 137.118C265.738 137.118 265.528 137.328 265.528 137.58C265.528 137.846 265.738 138.042 265.99 138.042ZM268.656 138.042C268.908 138.042 269.118 137.846 269.118 137.58C269.118 137.328 268.908 137.118 268.656 137.118C268.404 137.118 268.194 137.328 268.194 137.58C268.194 137.846 268.404 138.042 268.656 138.042ZM271.322 138.042C271.574 138.042 271.784 137.846 271.784 137.58C271.784 137.328 271.574 137.118 271.322 137.118C271.07 137.118 270.86 137.328 270.86 137.58C270.86 137.846 271.07 138.042 271.322 138.042ZM273.988 138.042C274.24 138.042 274.45 137.846 274.45 137.58C274.45 137.328 274.24 137.118 273.988 137.118C273.736 137.118 273.526 137.328 273.526 137.58C273.526 137.846 273.736 138.042 273.988 138.042ZM276.654 138.042C276.906 138.042 277.116 137.846 277.116 137.58C277.116 137.328 276.906 137.118 276.654 137.118C276.402 137.118 276.192 137.328 276.192 137.58C276.192 137.846 276.402 138.042 276.654 138.042ZM279.32 138.042C279.572 138.042 279.782 137.846 279.782 137.58C279.782 137.328 279.572 137.118 279.32 137.118C279.068 137.118 278.858 137.328 278.858 137.58C278.858 137.846 279.068 138.042 279.32 138.042ZM281.986 138.042C282.238 138.042 282.448 137.846 282.448 137.58C282.448 137.328 282.238 137.118 281.986 137.118C281.734 137.118 281.524 137.328 281.524 137.58C281.524 137.846 281.734 138.042 281.986 138.042ZM284.652 138.042C284.904 138.042 285.114 137.846 285.114 137.58C285.114 137.328 284.904 137.118 284.652 137.118C284.4 137.118 284.19 137.328 284.19 137.58C284.19 137.846 284.4 138.042 284.652 138.042ZM287.318 138.042C287.57 138.042 287.78 137.846 287.78 137.58C287.78 137.328 287.57 137.118 287.318 137.118C287.066 137.118 286.856 137.328 286.856 137.58C286.856 137.846 287.066 138.042 287.318 138.042ZM289.984 138.042C290.236 138.042 290.446 137.846 290.446 137.58C290.446 137.328 290.236 137.118 289.984 137.118C289.732 137.118 289.522 137.328 289.522 137.58C289.522 137.846 289.732 138.042 289.984 138.042ZM292.65 138.042C292.902 138.042 293.112 137.846 293.112 137.58C293.112 137.328 292.902 137.118 292.65 137.118C292.398 137.118 292.188 137.328 292.188 137.58C292.188 137.846 292.398 138.042 292.65 138.042ZM295.316 138.042C295.568 138.042 295.778 137.846 295.778 137.58C295.778 137.328 295.568 137.118 295.316 137.118C295.064 137.118 294.854 137.328 294.854 137.58C294.854 137.846 295.064 138.042 295.316 138.042ZM297.982 138.042C298.234 138.042 298.444 137.846 298.444 137.58C298.444 137.328 298.234 137.118 297.982 137.118C297.73 137.118 297.52 137.328 297.52 137.58C297.52 137.846 297.73 138.042 297.982 138.042ZM300.648 138.042C300.9 138.042 301.11 137.846 301.11 137.58C301.11 137.328 300.9 137.118 300.648 137.118C300.396 137.118 300.186 137.328 300.186 137.58C300.186 137.846 300.396 138.042 300.648 138.042ZM303.314 138.042C303.566 138.042 303.776 137.846 303.776 137.58C303.776 137.328 303.566 137.118 303.314 137.118C303.062 137.118 302.852 137.328 302.852 137.58C302.852 137.846 303.062 138.042 303.314 138.042ZM305.98 138.042C306.232 138.042 306.442 137.846 306.442 137.58C306.442 137.328 306.232 137.118 305.98 137.118C305.728 137.118 305.518 137.328 305.518 137.58C305.518 137.846 305.728 138.042 305.98 138.042Z" fill="#A9B3B7"/>
</svg>
