<svg width="16" height="16" viewBox="0 0 16 16" fill="none" xmlns="http://www.w3.org/2000/svg">
<path fill-rule="evenodd" clip-rule="evenodd" d="M1.25 9.5C1.66421 9.5 2 9.83579 2 10.25V13.25C2 13.4489 2.07902 13.6397 2.21967 13.7803C2.36032 13.921 2.55109 14 2.75 14H13.25C13.4489 14 13.6397 13.921 13.7803 13.7803C13.921 13.6397 14 13.4489 14 13.25V10.25C14 9.83579 14.3358 9.5 14.75 9.5C15.1642 9.5 15.5 9.83579 15.5 10.25V13.25C15.5 13.8467 15.2629 14.419 14.841 14.841C14.419 15.2629 13.8467 15.5 13.25 15.5H2.75C2.15326 15.5 1.58097 15.2629 1.15901 14.841C0.737053 14.419 0.5 13.8467 0.5 13.25V10.25C0.5 9.83579 0.835786 9.5 1.25 9.5Z" fill="black"/>
<path fill-rule="evenodd" clip-rule="evenodd" d="M3.71967 5.96967C4.01256 5.67678 4.48744 5.67678 4.78033 5.96967L8 9.18934L11.2197 5.96967C11.5126 5.67678 11.9874 5.67678 12.2803 5.96967C12.5732 6.26256 12.5732 6.73744 12.2803 7.03033L8.53033 10.7803C8.23744 11.0732 7.76256 11.0732 7.46967 10.7803L3.71967 7.03033C3.42678 6.73744 3.42678 6.26256 3.71967 5.96967Z" fill="black"/>
<path fill-rule="evenodd" clip-rule="evenodd" d="M8 0.5C8.41421 0.5 8.75 0.835786 8.75 1.25V10.25C8.75 10.6642 8.41421 11 8 11C7.58579 11 7.25 10.6642 7.25 10.25V1.25C7.25 0.835786 7.58579 0.5 8 0.5Z" fill="black"/>
</svg>
