<svg width="15" height="17" viewBox="0 0 15 17" fill="none" xmlns="http://www.w3.org/2000/svg">
<path fill-rule="evenodd" clip-rule="evenodd" d="M13.5559 2.15324C13.2065 1.91676 12.7185 1.70853 12.1062 1.53382C10.9009 1.18971 9.30735 1 7.61765 1C5.92794 1 4.33353 1.18971 3.12912 1.53382C2.51676 1.70853 2.02971 1.91676 1.67941 2.15324C1.11735 2.53265 1 2.935 1 3.20588V3.64706C1 4.02471 1.28324 4.64676 1.56382 5.06676L5.87941 11.5397C6.10088 11.8715 6.295 12.5129 6.295 12.9118V15.5588C6.295 15.7115 6.37441 15.8535 6.50412 15.9338C6.57471 15.9779 6.655 16 6.73618 16C6.80324 16 6.87118 15.9841 6.93382 15.9532L8.69853 15.0709C8.84765 14.9959 8.94206 14.8432 8.94206 14.6765V12.9118C8.94206 12.5129 9.13618 11.8715 9.35765 11.5397L13.6732 5.06676C13.9529 4.64676 14.2371 4.02382 14.2371 3.64706V3.20588C14.2371 2.935 14.1188 2.53265 13.5576 2.15324H13.5559ZM3.37158 2.38265C4.50011 2.06059 6.00805 1.88235 7.61746 1.88235C9.22687 1.88235 10.7357 2.05971 11.8633 2.38265C13.0792 2.7303 13.3528 3.10265 13.3528 3.20588C13.3528 3.30912 13.0792 3.68235 11.8633 4.02912C10.7348 4.35118 9.22687 4.52941 7.61746 4.52941C6.00805 4.52941 4.49922 4.35206 3.37158 4.02912C2.15569 3.68147 1.88216 3.30912 1.88216 3.20588C1.88216 3.10265 2.15569 2.72941 3.37158 2.38265ZM8.05862 12.9118C8.05862 12.3427 8.30656 11.5247 8.62244 11.0509V11.05L12.9283 4.59119C12.6866 4.6953 12.4113 4.7906 12.106 4.87795C10.9016 5.22207 9.30715 5.41177 7.61744 5.41177C5.92773 5.41177 4.3342 5.22207 3.12891 4.87795C2.82273 4.79148 2.54832 4.6953 2.30656 4.59207L6.61244 11.0509C6.92832 11.5247 7.17626 12.3418 7.17626 12.9118V14.845L8.05862 14.4038V12.9118Z" fill="#929A9C"/>
<path d="M12.1062 1.53382L12.0101 1.87038L12.0102 1.87039L12.1062 1.53382ZM13.5559 2.15324L13.3597 2.44309L13.4486 2.50324H13.5559V2.15324ZM3.12912 1.53382L3.22514 1.87039L3.22527 1.87036L3.12912 1.53382ZM1.67941 2.15324L1.87524 2.44333L1.87524 2.44332L1.67941 2.15324ZM1.56382 5.06676L1.85504 4.87261L1.85485 4.87234L1.56382 5.06676ZM5.87941 11.5397L5.5882 11.7339L5.58831 11.734L5.87941 11.5397ZM6.50412 15.9338L6.68962 15.637L6.68834 15.6362L6.50412 15.9338ZM6.93382 15.9532L7.08858 16.2672L7.09035 16.2663L6.93382 15.9532ZM8.69853 15.0709L8.85506 15.3839L8.85579 15.3836L8.69853 15.0709ZM9.35765 11.5397L9.64875 11.734L9.64886 11.7339L9.35765 11.5397ZM13.6732 5.06676L13.9644 5.26092L13.9645 5.26077L13.6732 5.06676ZM13.5576 2.15324L13.7537 1.86329L13.6649 1.80324H13.5576V2.15324ZM3.37158 2.38265L3.46757 2.71923L3.46762 2.71921L3.37158 2.38265ZM11.8633 2.38265L11.767 2.71912L11.7671 2.71916L11.8633 2.38265ZM11.8633 4.02912L11.7673 3.69254L11.7673 3.69256L11.8633 4.02912ZM3.37158 4.02912L3.46794 3.69265L3.46779 3.6926L3.37158 4.02912ZM8.62244 11.0509L8.91366 11.245L8.97244 11.1569V11.0509H8.62244ZM8.62244 11.05L8.33122 10.8559L8.27244 10.944V11.05H8.62244ZM12.9283 4.59119L13.2195 4.78533L13.8747 3.80253L12.7899 4.26973L12.9283 4.59119ZM12.106 4.87795L12.2021 5.21448L12.2022 5.21445L12.106 4.87795ZM3.12891 4.87795L3.225 4.5414L3.22404 4.54113L3.12891 4.87795ZM2.30656 4.59207L2.444 4.27019L1.36382 3.80894L2.01534 4.78621L2.30656 4.59207ZM6.61244 11.0509L6.90366 10.8567L6.61244 11.0509ZM7.17626 14.845H6.82626V15.4113L7.33279 15.1581L7.17626 14.845ZM8.05862 14.4038L8.21514 14.7169L8.40862 14.6201V14.4038H8.05862ZM12.0102 1.87039C12.6033 2.03961 13.0525 2.23519 13.3597 2.44309L13.7521 1.86338C13.3604 1.59834 12.8338 1.37745 12.2022 1.19725L12.0102 1.87039ZM7.61765 1.35C9.2853 1.35 10.8447 1.53765 12.0101 1.87038L12.2023 1.19727C10.9571 0.841758 9.3294 0.65 7.61765 0.65V1.35ZM3.22527 1.87036C4.3897 1.53766 5.94995 1.35 7.61765 1.35V0.65C5.90593 0.65 4.27736 0.84175 3.03297 1.19729L3.22527 1.87036ZM1.87524 2.44332C2.18365 2.23513 2.6323 2.03953 3.22514 1.87039L3.03309 1.19725C2.40123 1.37752 1.87576 1.5984 1.48358 1.86315L1.87524 2.44332ZM1.35 3.20588C1.35 3.05783 1.40404 2.7614 1.87524 2.44333L1.48359 1.86314C0.830666 2.30389 0.65 2.81217 0.65 3.20588H1.35ZM1.35 3.64706V3.20588H0.65V3.64706H1.35ZM1.85485 4.87234C1.72712 4.68115 1.59701 4.44081 1.49997 4.20691C1.39919 3.96399 1.35 3.76568 1.35 3.64706H0.65C0.65 3.90608 0.742424 4.20763 0.853408 4.47515C0.968135 4.75169 1.11993 5.03238 1.27279 5.26119L1.85485 4.87234ZM6.17062 11.3456L1.85504 4.87261L1.27261 5.26092L5.5882 11.7339L6.17062 11.3456ZM6.645 12.9118C6.645 12.6654 6.58697 12.3691 6.50524 12.0992C6.42351 11.8293 6.30736 11.5504 6.17051 11.3454L5.58831 11.734C5.67293 11.8608 5.76458 12.0685 5.83528 12.302C5.90597 12.5355 5.945 12.7593 5.945 12.9118H6.645ZM6.645 15.5588V12.9118H5.945V15.5588H6.645ZM6.68834 15.6362C6.66136 15.6195 6.645 15.5899 6.645 15.5588H5.945C5.945 15.8331 6.08746 16.0875 6.31989 16.2314L6.68834 15.6362ZM6.73618 15.65C6.71865 15.65 6.70295 15.6454 6.68962 15.637L6.31862 16.2306C6.44646 16.3105 6.59135 16.35 6.73618 16.35V15.65ZM6.77907 15.6393C6.76342 15.647 6.74831 15.65 6.73618 15.65V16.35C6.85816 16.35 6.97894 16.3212 7.08858 16.2672L6.77907 15.6393ZM8.54201 14.7578L6.7773 15.6402L7.09035 16.2663L8.85505 15.3839L8.54201 14.7578ZM8.59206 14.6765C8.59206 14.7104 8.57269 14.7424 8.54127 14.7582L8.85579 15.3836C9.1226 15.2494 9.29206 14.976 9.29206 14.6765H8.59206ZM8.59206 12.9118V14.6765H9.29206V12.9118H8.59206ZM9.06655 11.3454C8.9297 11.5504 8.81355 11.8293 8.73182 12.0992C8.65009 12.3691 8.59206 12.6654 8.59206 12.9118H9.29206C9.29206 12.7593 9.33109 12.5355 9.40178 12.302C9.47248 12.0685 9.56413 11.8608 9.64875 11.734L9.06655 11.3454ZM13.382 4.87261L9.06644 11.3456L9.64886 11.7339L13.9644 5.26092L13.382 4.87261ZM13.8871 3.64706C13.8871 3.76504 13.8378 3.9632 13.7368 4.20651C13.6396 4.44065 13.5094 4.68138 13.3819 4.87276L13.9645 5.26077C14.1168 5.03215 14.2685 4.75141 14.3833 4.47489C14.4943 4.20753 14.5871 3.90584 14.5871 3.64706H13.8871ZM13.8871 3.20588V3.64706H14.5871V3.20588H13.8871ZM13.3616 2.44318C13.8324 2.76149 13.8871 3.05817 13.8871 3.20588H14.5871C14.5871 2.81183 14.4052 2.3038 13.7537 1.86329L13.3616 2.44318ZM13.5559 2.50324H13.5576V1.80324H13.5559V2.50324ZM7.61746 1.53235C5.98653 1.53235 4.44433 1.71253 3.27553 2.04609L3.46762 2.71921C4.55588 2.40865 6.02956 2.23235 7.61746 2.23235V1.53235ZM11.9597 2.04618C10.7914 1.7116 9.24815 1.53235 7.61746 1.53235V2.23235C9.20559 2.23235 10.6799 2.40781 11.767 2.71912L11.9597 2.04618ZM13.7028 3.20588C13.7028 3.05641 13.6215 2.93422 13.5625 2.86167C13.4909 2.77377 13.3908 2.68467 13.2604 2.59625C12.9996 2.41932 12.5897 2.22629 11.9596 2.04613L11.7671 2.71916C12.3529 2.88665 12.6877 3.05362 12.8676 3.17559C12.9575 3.23662 13.0018 3.2817 13.0195 3.3035C13.0498 3.34067 13.0028 3.30374 13.0028 3.20588H13.7028ZM11.9593 4.3657C12.5895 4.18597 12.9996 3.99291 13.2605 3.81578C13.391 3.72726 13.4911 3.63805 13.5626 3.55005C13.6216 3.47743 13.7028 3.35523 13.7028 3.20588H13.0028C13.0028 3.10815 13.0497 3.07132 13.0194 3.10855C13.0016 3.13041 12.9574 3.17554 12.8675 3.23658C12.6877 3.35857 12.353 3.52551 11.7673 3.69254L11.9593 4.3657ZM7.61746 4.87941C9.24839 4.87941 10.7906 4.69923 11.9594 4.36568L11.7673 3.69256C10.679 4.00312 9.20535 4.17941 7.61746 4.17941V4.87941ZM3.27521 4.36559C4.44347 4.70016 5.98676 4.87941 7.61746 4.87941V4.17941C6.02933 4.17941 4.55497 4.00396 3.46794 3.69265L3.27521 4.36559ZM1.53216 3.20588C1.53216 3.35536 1.61339 3.47755 1.67243 3.55009C1.74397 3.638 1.84409 3.7271 1.97447 3.81552C2.23536 3.99245 2.64527 4.18548 3.27536 4.36563L3.46779 3.6926C2.882 3.52511 2.54721 3.35814 2.36736 3.23618C2.27737 3.17515 2.23312 3.13007 2.21537 3.10826C2.18512 3.07109 2.23216 3.10803 2.23216 3.20588H1.53216ZM3.27558 2.04607C2.64538 2.2258 2.23536 2.41886 1.97437 2.59599C1.84394 2.68451 1.74381 2.77372 1.67229 2.86172C1.61327 2.93434 1.53216 3.05653 1.53216 3.20588H2.23216C2.23216 3.30362 2.18525 3.34045 2.21551 3.30321C2.23327 3.28136 2.27752 3.23623 2.36746 3.17519C2.54721 3.0532 2.88189 2.88626 3.46757 2.71923L3.27558 2.04607ZM8.33122 10.8567C8.14873 11.1305 7.99518 11.4875 7.88711 11.8441C7.77905 12.2007 7.70862 12.5828 7.70862 12.9118H8.40862C8.40862 12.6716 8.46215 12.3602 8.55703 12.0471C8.6519 11.734 8.78027 11.4451 8.91366 11.245L8.33122 10.8567ZM8.27244 11.05V11.0509H8.97244V11.05H8.27244ZM12.6371 4.39704L8.33122 10.8559L8.91366 11.2442L13.2195 4.78533L12.6371 4.39704ZM12.2022 5.21445C12.5182 5.12404 12.8082 5.02401 13.0668 4.91264L12.7899 4.26973C12.5649 4.3666 12.3043 4.45716 12.0097 4.54145L12.2022 5.21445ZM7.61744 5.76177C9.32916 5.76177 10.9577 5.57002 12.2021 5.21448L12.0098 4.54142C10.8454 4.87411 9.28513 5.06177 7.61744 5.06177V5.76177ZM3.03282 5.2145C4.27803 5.57002 5.90568 5.76177 7.61744 5.76177V5.06177C5.94978 5.06177 4.39038 4.87412 3.225 4.5414L3.03282 5.2145ZM2.16911 4.91395C2.4264 5.02382 2.71515 5.12479 3.03378 5.21478L3.22404 4.54113C2.93032 4.45817 2.67025 4.36679 2.444 4.27019L2.16911 4.91395ZM6.90366 10.8567L2.59777 4.39792L2.01534 4.78621L6.32122 11.245L6.90366 10.8567ZM7.52626 12.9118C7.52626 12.5824 7.45584 12.2003 7.34776 11.8437C7.23967 11.4872 7.08611 11.1304 6.90366 10.8567L6.32122 11.245C6.45465 11.4452 6.583 11.7339 6.67786 12.0468C6.77272 12.3597 6.82626 12.6711 6.82626 12.9118H7.52626ZM7.52626 14.845V12.9118H6.82626V14.845H7.52626ZM7.90209 14.0908L7.01974 14.532L7.33279 15.1581L8.21514 14.7169L7.90209 14.0908ZM7.70862 12.9118V14.4038H8.40862V12.9118H7.70862Z" fill="#929A9C"/>
</svg>
