<svg width="28" height="24" viewBox="0 0 28 24" fill="none" xmlns="http://www.w3.org/2000/svg">
<path fill-rule="evenodd" clip-rule="evenodd" d="M15.9917 2.06C18.7152 -0.686668 23.1301 -0.686668 25.8553 2.06C28.5789 4.80316 28.5789 9.25618 25.8553 11.9993L13.9481 24L2.04266 11.9993C-0.680886 9.25618 -0.680886 4.80492 2.04266 2.06C4.7662 -0.686668 9.18106 -0.686668 11.9063 2.06L13.9481 4.11781L15.9917 2.06ZM13.9481 19.0286L23.3881 9.51274C24.0472 8.85023 24.4099 7.96806 24.4099 7.02966C24.4099 6.09126 24.0472 5.20909 23.3881 4.54483C22.729 3.88057 21.8537 3.51505 20.9226 3.51505C19.9915 3.51505 19.1162 3.88057 18.4572 4.54659L13.9481 9.08571L9.43913 4.54483C8.78004 3.88057 7.90474 3.51505 6.97364 3.51505C6.04254 3.51505 5.16724 3.88057 4.50815 4.54659C3.84906 5.20909 3.48639 6.09126 3.48639 7.02966C3.48639 7.96806 3.84906 8.85023 4.50815 9.5145L13.9481 19.0286Z" fill="black"/>
</svg>
