<svg width="47" height="47" viewBox="0 0 47 47" fill="none" xmlns="http://www.w3.org/2000/svg">
<path fill-rule="evenodd" clip-rule="evenodd" d="M23.67 47C18.7764 47 14.2359 45.4788 10.4839 42.8849L1.90417 43.9476C0.478963 44.1293 -0.319441 43.1585 0.121237 41.782L2.66576 33.7382C1.17627 30.643 0.34002 27.1702 0.34002 23.5C0.34002 10.5207 10.7851 0 23.67 0C36.5549 0 47 10.5212 47 23.5C47 36.4788 36.5549 47 23.67 47ZM38.3477 19.5635L30.7198 16.8192L27.7875 9.0663C27.2322 7.58476 25.8926 7.30328 24.7956 8.4365L18.9843 14.4013L11.2704 13.865C9.7026 13.7512 8.88657 14.8577 9.44805 16.3367L12.7148 25.027L10.2449 32.8326C9.76274 34.3398 10.6363 35.4014 12.1958 35.2025L21.2053 34.086L29.0172 38.7431C30.3678 39.5536 31.5903 38.9338 31.7479 37.3587L32.5878 29.2089L39.0351 22.5631C40.1379 21.4346 39.8294 20.0915 38.3477 19.5635Z" fill="black"/>
</svg>
