<svg width="46" height="45" viewBox="0 0 46 45" fill="none" xmlns="http://www.w3.org/2000/svg">
<path d="M43.3547 19.2234L38.8969 18.4795C38.5734 17.1548 38.1009 15.8892 37.485 14.708L40.3383 11.1698C40.9458 10.4217 40.9177 9.34594 40.2778 8.62453L38.5059 6.62906C37.8633 5.90766 36.7973 5.75578 35.9845 6.26906L32.1722 8.66531C30.4945 7.49391 28.5961 6.62906 26.5472 6.12703L25.8019 1.64531C25.6444 0.696094 24.8231 0 23.8598 0H21.188C20.2261 0 19.402 0.696094 19.2488 1.64531L18.4992 6.12844C16.8047 6.54328 15.217 7.21266 13.7672 8.09437L10.1419 5.50688C9.36 4.94859 8.28703 5.03578 7.605 5.71641L5.71781 7.605C5.03719 8.28703 4.95 9.36 5.50969 10.1419L8.10281 13.7742C7.22953 15.2128 6.56719 16.792 6.15234 18.4711L1.64531 19.2234C0.6975 19.3795 0 20.2008 0 21.1655V23.8345C0 24.7992 0.6975 25.6205 1.64531 25.7766L6.15234 26.5289C6.49266 27.9098 6.98766 29.2303 7.64438 30.4538L4.80375 33.9722C4.19906 34.7189 4.22438 35.7961 4.86422 36.5175L6.63609 38.513C7.27875 39.2344 8.34469 39.3848 9.1575 38.873L13.0247 36.443C14.6616 37.5623 16.5122 38.385 18.4992 38.8716L19.2488 43.3547C19.402 44.3039 20.2261 45 21.188 45H23.8598C24.8245 45 25.6458 44.3039 25.8019 43.3547L26.5486 38.8716C28.2206 38.4623 29.79 37.8056 31.2258 36.9394L35.003 39.6352C35.7834 40.1963 36.8564 40.1077 37.5384 39.4256L39.4256 37.5384C40.1063 36.8578 40.1977 35.7848 39.6338 35.0016L36.945 31.2328C37.8211 29.7886 38.4863 28.2066 38.8983 26.5205L43.3561 25.7766C44.3067 25.6205 45.0014 24.7992 45.0014 23.8345V21.1655C45 20.2008 44.3053 19.3795 43.3547 19.2234ZM22.5717 30.9375C17.9128 30.9375 14.1342 27.1589 14.1342 22.5C14.1342 17.8411 17.9128 14.0625 22.5717 14.0625C27.2306 14.0625 31.0092 17.8411 31.0092 22.5C31.0092 27.1589 27.2306 30.9375 22.5717 30.9375Z" fill="black"/>
</svg>
