<svg width="51" height="45" viewBox="0 0 51 45" fill="none" xmlns="http://www.w3.org/2000/svg">
<path d="M50.416 2.56808V33.9284C50.4171 34.267 50.3511 34.6024 50.2221 34.9154C50.093 35.2284 49.9033 35.5128 49.6639 35.7522C49.4245 35.9916 49.1401 36.1813 48.8271 36.3104C48.5141 36.4395 48.1786 36.5054 47.8401 36.5044H34.0072V31.8724C34.0706 31.8349 34.1312 31.7928 34.1884 31.7464C34.6252 31.384 34.9822 30.9353 35.2371 30.4282C35.492 29.9212 35.6391 29.3669 35.6693 28.8002C36.2134 28.6521 36.7193 28.3889 37.1528 28.0285C37.5864 27.668 37.9375 27.2187 38.1825 26.7109C38.4274 26.2031 38.5605 25.6485 38.5727 25.0848C38.5849 24.5212 38.4759 23.9614 38.2532 23.4435C38.6842 23.0737 39.0302 22.6151 39.2674 22.0991C39.5046 21.5831 39.6274 21.0219 39.6274 20.4539C39.6274 19.886 39.5046 19.3248 39.2674 18.8088C39.0302 18.2928 38.6842 17.8342 38.2532 17.4644C38.4759 16.9465 38.5849 16.3867 38.5727 15.8231C38.5605 15.2594 38.4274 14.7049 38.1825 14.197C37.9375 13.6892 37.5864 13.2399 37.1528 12.8794C36.7193 12.519 36.2134 12.2558 35.6693 12.1077C35.6349 11.5465 35.4857 10.9982 35.231 10.4969C34.9762 9.99556 34.6214 9.55181 34.1884 9.19306C33.4804 8.63475 32.6005 8.3396 31.6991 8.35804C31.4708 8.34583 31.242 8.34583 31.0137 8.35804C30.7386 7.86661 30.3662 7.43642 29.9192 7.09375C29.4723 6.75108 28.9602 6.50313 28.4142 6.36504C28.1549 6.31147 27.8911 6.28246 27.6264 6.27838C26.7783 6.30257 25.9562 6.57661 25.2632 7.06613C24.5701 6.57661 23.748 6.30257 22.8999 6.27838C22.6351 6.28159 22.3713 6.31061 22.1122 6.36504C21.5647 6.50216 21.0511 6.74967 20.6027 7.09238C20.1543 7.43509 19.7807 7.86578 19.5047 8.35804C19.2773 8.32973 19.0485 8.31395 18.8194 8.31078C17.9169 8.29391 17.0367 8.59195 16.3301 9.15367C15.897 9.51242 15.5422 9.95617 15.2875 10.4575C15.0327 10.9588 14.8835 11.5071 14.8491 12.0683C14.3051 12.2164 13.7992 12.4796 13.3656 12.84C12.932 13.2005 12.5809 13.6498 12.3359 14.1576C12.091 14.6655 11.9579 15.22 11.9457 15.7837C11.9335 16.3474 12.0425 16.9071 12.2653 17.4251C11.8342 17.7948 11.4882 18.2534 11.251 18.7694C11.0138 19.2854 10.891 19.8466 10.891 20.4146C10.891 20.9825 11.0138 21.5437 11.251 22.0597C11.4882 22.5757 11.8342 23.0343 12.2653 23.4041C12.0342 23.9173 11.9158 24.474 11.9181 25.0368C11.9203 25.5996 12.0431 26.1554 12.2783 26.6667C12.5134 27.178 12.8554 27.633 13.2812 28.001C13.707 28.369 14.2067 28.6415 14.7467 28.8002C14.7811 29.3614 14.9303 29.9097 15.1851 30.411C15.4398 30.9123 15.7946 31.3561 16.2277 31.7148L16.4088 31.8409V36.4729H2.57594C1.89756 36.475 1.2459 36.2086 0.76327 35.7318C0.280636 35.2551 0.00623953 34.6068 0 33.9284V2.56808C-1.58974e-06 2.23017 0.0666832 1.89559 0.196233 1.5835C0.325783 1.27141 0.51565 0.98796 0.754952 0.74939C0.994254 0.510819 1.27829 0.321821 1.59077 0.193228C1.90325 0.0646347 2.23804 -0.00102444 2.57594 1.20833e-05H47.8401C48.178 -0.00102444 48.5128 0.0646347 48.8253 0.193228C49.1377 0.321821 49.4218 0.510819 49.6611 0.74939C49.9004 0.98796 50.0902 1.27141 50.2198 1.5835C50.3493 1.89559 50.416 2.23017 50.416 2.56808ZM15.755 22.6478C15.5817 21.8995 13.9589 21.285 13.9589 20.4894C13.9589 19.6938 15.5817 19.0714 15.755 18.3231C15.9283 17.5747 14.7388 16.2986 15.0775 15.5975C15.4163 14.8964 17.1414 15.046 17.6299 14.4395C18.1183 13.8329 17.5826 12.1786 18.197 11.6902C18.8115 11.2018 20.2924 12.0841 21.0093 11.7454C21.7262 11.4066 21.9388 9.68934 22.7108 9.50816C23.4828 9.32697 24.4203 10.7843 25.208 10.7843C25.9958 10.7843 26.9647 9.34273 27.7131 9.50816C28.4614 9.67358 28.7214 11.4066 29.4146 11.7454C30.1078 12.0841 31.6124 11.2018 32.2269 11.6902C32.8413 12.1786 32.3056 13.825 32.794 14.4395C33.2825 15.0539 35.0076 14.8885 35.3464 15.5975C35.6851 16.3064 34.4956 17.5511 34.661 18.3231C34.8264 19.0951 36.4571 19.6859 36.4571 20.4894C36.4571 21.2929 34.8422 21.8995 34.661 22.6478C34.4798 23.3962 35.6772 24.6724 35.3385 25.3735C34.9997 26.0746 33.2746 25.9249 32.7862 26.5314C32.2978 27.138 32.8334 28.7923 32.219 29.2886C31.9118 29.5328 31.384 29.4304 30.8483 29.2886V44.0353C30.849 44.2254 30.7933 44.4115 30.6883 44.57C30.5832 44.7284 30.4335 44.8522 30.2581 44.9256C30.0827 44.9989 29.8895 45.0186 29.7028 44.9821C29.5162 44.9457 29.3446 44.8546 29.2098 44.7206L25.2001 40.7818L21.1905 44.7206C21.0556 44.8546 20.884 44.9457 20.6974 44.9821C20.5108 45.0186 20.3176 44.9989 20.1422 44.9256C19.9668 44.8522 19.817 44.7284 19.712 44.57C19.6069 44.4115 19.5512 44.2254 19.552 44.0353V29.3122C19.0163 29.4304 18.4885 29.5328 18.1813 29.3122C17.5668 28.8238 18.1025 27.1774 17.6141 26.563C17.1257 25.9485 15.4005 26.1139 15.0618 25.405C14.7231 24.696 15.9204 23.4198 15.755 22.6478ZM20.3318 20.4894C20.3334 21.4554 20.6214 22.3992 21.1593 23.2015C21.6973 24.0038 22.4611 24.6286 23.3541 24.9968C24.2472 25.365 25.2293 25.4602 26.1764 25.2702C27.1235 25.0802 27.9931 24.6136 28.675 23.9295C29.3569 23.2453 29.8207 22.3743 30.0076 21.4266C30.1945 20.4789 30.0962 19.497 29.7251 18.6052C29.354 17.7134 28.7268 16.9516 27.9228 16.4162C27.1187 15.8808 26.174 15.5959 25.208 15.5975C24.566 15.5975 23.9302 15.7241 23.3371 15.97C22.7441 16.2159 22.2053 16.5764 21.7517 17.0308C21.298 17.4851 20.9385 18.0245 20.6935 18.6179C20.4485 19.2114 20.3229 19.8474 20.324 20.4894H20.3318Z" fill="black"/>
</svg>
