<svg width="51" height="45" viewBox="0 0 51 45" fill="none" xmlns="http://www.w3.org/2000/svg">
<path d="M50.0645 4.20594V24.4982C50.0631 25.6133 49.6196 26.6823 48.8311 27.4708C48.0426 28.2593 46.9736 28.7028 45.8585 28.7042H43.6869V24.188H45.5432V4.54161H13.8435V6.34197H9.31207V4.20594C9.31342 3.09087 9.75697 2.02185 10.5454 1.23338C11.3339 0.444903 12.4029 0.00134589 13.518 0H45.8585C46.9736 0.00134589 48.0426 0.444903 48.8311 1.23338C49.6196 2.02185 50.0631 3.09087 50.0645 4.20594ZM39.3843 14.1537C39.3843 13.223 39.0146 12.3305 38.3565 11.6724C37.6984 11.0143 36.8058 10.6445 35.8751 10.6445H3.51428C3.05344 10.6445 2.59712 10.7353 2.17137 10.9117C1.74561 11.088 1.35876 11.3465 1.0329 11.6724C0.374803 12.3305 0.00508581 13.223 0.00508581 14.1537V17.429H39.3691L39.3843 14.1537ZM3.51428 37.9552H10.7005V43.9259C10.7013 44.1383 10.7648 44.3456 10.883 44.522C11.0012 44.6984 11.1689 44.836 11.365 44.9175C11.561 44.9989 11.7768 45.0207 11.9852 44.98C12.1937 44.9393 12.3854 44.838 12.5365 44.6888L19.27 37.9552H35.8548C36.7855 37.9552 37.6781 37.5855 38.3362 36.9274C38.9943 36.2693 39.364 35.3767 39.364 34.446V21.9248H0V34.446C-4.84415e-07 34.9073 0.0909357 35.364 0.267607 35.7901C0.444278 36.2162 0.703218 36.6033 1.02962 36.9292C1.35601 37.2551 1.74346 37.5135 2.16981 37.6895C2.59615 37.8656 3.05302 37.9559 3.51428 37.9552Z" fill="black"/>
</svg>
