<svg width="49" height="55" viewBox="0 0 49 55" fill="none" xmlns="http://www.w3.org/2000/svg">
<path d="M24.0625 0C23.4297 0 22.9167 0.51299 22.9167 1.14583V5.72917C22.9167 6.36201 23.4297 6.875 24.0625 6.875C24.6953 6.875 25.2083 6.36201 25.2083 5.72917V1.14583C25.2083 0.51299 24.6953 0 24.0625 0ZM7.85973 6.71387C7.56645 6.71387 7.27782 6.83026 7.05404 7.05404C6.60659 7.50148 6.60659 8.21786 7.05404 8.66537L10.2946 11.9059C10.742 12.3534 11.4584 12.3534 11.9059 11.9059C12.3534 11.4585 12.3534 10.7421 11.9059 10.2946L8.66537 7.05404C8.44164 6.83026 8.15289 6.71387 7.85973 6.71387ZM40.2653 6.71387C39.9721 6.71387 39.6834 6.83026 39.4596 7.05404L36.2191 10.2946C35.7716 10.7421 35.7716 11.4585 36.2191 11.9059C36.6666 12.3534 37.383 12.3534 37.8304 11.9059L41.071 8.66537C41.5184 8.21786 41.5184 7.50148 41.071 7.05404C40.8472 6.83026 40.5586 6.71387 40.2653 6.71387ZM24.0625 10.3125C17.0757 10.3125 10.3125 15.7332 10.3125 23.4001C10.3125 33.3481 17.7604 35.4313 17.7604 42.3958H30.3646C30.3646 35.4313 37.8125 33.3481 37.8125 23.4001C37.8125 15.7332 31.0493 10.3125 24.0625 10.3125ZM20.5355 13.7858C20.5414 13.7858 20.5474 13.7858 20.5533 13.7858C20.5831 13.7846 20.6129 13.7846 20.6428 13.7858C20.911 13.7871 21.1704 13.8824 21.3755 14.0552C21.5807 14.2281 21.7188 14.4674 21.7657 14.7315C21.8125 14.9957 21.7653 15.2679 21.632 15.5007C21.4988 15.7336 21.2882 15.9124 21.0367 16.0059C18.2448 17.0586 16.1467 19.5308 15.6119 22.5407C15.5573 22.8399 15.386 23.1051 15.1359 23.278C14.8858 23.4509 14.5772 23.5173 14.278 23.4627C13.9789 23.4081 13.7137 23.2369 13.5408 22.9868C13.3679 22.7366 13.3014 22.4281 13.356 22.1289C14.0331 18.3183 16.6719 15.2107 20.2131 13.8753C20.3156 13.8299 20.4242 13.7997 20.5354 13.7858H20.5355ZM1.14583 22.9167C0.51299 22.9167 0 23.4297 0 24.0625C0 24.6953 0.51299 25.2083 1.14583 25.2083H5.72917C6.36201 25.2083 6.875 24.6953 6.875 24.0625C6.875 23.4297 6.36201 22.9167 5.72917 22.9167H1.14583ZM42.3958 22.9167C41.763 22.9167 41.25 23.4297 41.25 24.0625C41.25 24.6953 41.763 25.2083 42.3958 25.2083H46.9792C47.612 25.2083 48.125 24.6953 48.125 24.0625C48.125 23.4297 47.612 22.9167 46.9792 22.9167H42.3958ZM17.7604 44.6875V46.9792H30.3646V44.6875H17.7604ZM17.7604 49.2708C17.7604 50.5875 18.8429 51.5625 20.0521 51.5625H28.0729C29.2821 51.5625 30.3646 50.5875 30.3646 49.2708H17.7604ZM21.7708 52.7083C21.7708 53.9779 22.7929 55 24.0625 55C25.3321 55 26.3542 53.9779 26.3542 52.7083H21.7708Z" fill="black"/>
</svg>
