<svg width="15" height="16" viewBox="0 0 15 16" fill="none" xmlns="http://www.w3.org/2000/svg">
<path d="M0.020978 8.1248C0.140761 7.2736 0.745819 6.5856 1.64573 6.288C2.12179 6.1312 2.92955 5.92 3.58375 5.7568C2.37978 3.9616 2.14329 2.1056 2.58863 1.0432C2.8712 0.3808 3.3964 0 4.03832 0C5.27914 0 5.60164 1.0816 5.83813 1.872C5.87192 1.9904 5.90877 2.1088 5.9487 2.2336C6.16677 2.912 7.26939 4.1408 8.87878 5.0784C10.0858 5.776 11.2376 6.7328 11.2837 6.7744C11.4434 6.9056 11.5386 7.1104 11.5386 7.3216V14.112C11.5386 14.3392 11.4341 14.5504 11.2591 14.6816C10.2885 15.408 6.87318 16 5.15629 16C4.26252 16 3.91239 15.8528 3.72504 15.744C2.9572 15.2896 1.93136 12.72 1.18195 10.56C0.321971 9.8816 -0.101876 9.0016 0.020978 8.1248ZM2.12793 9.5328C2.24771 9.616 2.33678 9.7376 2.38592 9.8784C3.05548 11.8336 4.01682 14.1344 4.40381 14.5216C4.46216 14.5408 4.6618 14.592 5.15629 14.592C6.75954 14.592 9.24734 14.096 10.1841 13.6896V7.6672C9.79404 7.36 9.00777 6.7648 8.22151 6.3072C6.46776 5.2864 5.03958 3.8336 4.67102 2.6816C4.62802 2.5504 4.58809 2.4192 4.55123 2.2912C4.2871 1.4112 4.2226 1.4112 4.04446 1.4112C3.99839 1.4112 3.91853 1.4112 3.83561 1.6096C3.54383 2.2976 3.80489 4.0256 5.28836 5.712C5.45114 5.8976 5.5095 6.16 5.43578 6.4C5.36207 6.64 5.17472 6.8224 4.93822 6.8768C4.91672 6.88 2.88656 7.3536 2.06036 7.6288C1.66723 7.76 1.40616 8.0192 1.36623 8.3232C1.30788 8.7104 1.58737 9.1488 2.12793 9.5328Z" fill="#929A9C"/>
<path d="M13.8462 5.92578C14.4811 5.92578 15 6.45216 15 7.10356V14.2295C15 14.8776 14.4843 15.4073 13.8462 15.4073C13.208 15.4073 12.6923 14.8809 12.6923 14.2295V7.10356C12.6923 6.45545 13.2112 5.92578 13.8462 5.92578Z" fill="#929A9C"/>
</svg>
