<svg width="242" height="36" viewBox="0 0 242 36" fill="none" xmlns="http://www.w3.org/2000/svg">
<path d="M77.1333 13.471L82.504 1.41547H74.9622L63.1923 27.7548H58.2787C57.4216 27.7548 57.0788 26.8407 57.4788 25.9265C58.1073 24.4981 63.3637 13.0139 63.3637 13.0139H55.2505C55.2505 13.0139 48.7371 27.5263 48.6228 27.812H45.7089C44.7376 27.812 44.2234 27.0121 44.6805 25.9265C45.2518 24.6124 50.5083 13.0139 50.5083 13.0139H42.3951L36.2245 26.8978C36.2245 26.9549 36.0531 27.2977 35.9388 27.812C35.9388 27.812 17.3127 27.812 13.0847 27.812C9.59943 27.812 7.25688 24.7838 8.62813 21.927C13.1418 12.5568 24.9688 7.98603 29.1397 8.2717C30.968 8.38597 30.5681 9.98576 29.3111 11.6427C28.9683 12.0998 29.3682 12.4997 29.6539 12.4997H37.3672C40.5667 7.81462 40.2239 -0.127183 30.3395 0.729846C13.7703 2.15823 -0.11357 15.4707 0.000700387 25.698C0.0578357 30.4973 5.08574 35.411 11.1421 35.411H35.8816L36.9672 32.897C37.71 34.0397 39.2526 35.4681 41.4809 35.4681H48.4514C48.4514 35.4681 49.3656 33.5255 49.7084 32.8399C50.3369 33.6969 51.8224 35.4681 54.2221 35.4681H67.5346L68.2202 33.9826C72.9053 37.7535 82.1612 36.7822 86.3892 26.3836C89.1889 19.4131 85.1323 11.757 77.1333 13.471ZM80.1615 22.8983C79.9901 25.2409 76.5048 30.9544 71.2484 28.2119C70.9056 28.0405 71.0198 27.5263 71.1341 27.2406C71.4769 26.4979 73.9909 20.6129 74.3908 19.7559C74.5051 19.6988 74.6194 19.6416 74.7908 19.5845C76.7334 18.6703 80.4472 19.4131 80.1615 22.8983Z" fill="#191918"/>
<path d="M220.257 25.4692C220.714 24.1551 226.256 12.0424 226.256 12.0424C226.256 12.0424 237.912 12.0424 238.141 12.0424C238.483 12.0424 238.826 11.871 238.998 11.5282C239.055 11.4139 241.626 5.87178 241.626 5.87178H228.599L230.37 1.41523H222.485C222.485 1.41523 220.829 5.18616 220.771 5.2433C220.657 5.47184 220.429 5.75751 219.743 5.75751C219.572 5.75751 215.629 5.75751 215.629 5.75751L212.944 11.9853H218.315L211.516 27.6975C211.516 27.6975 200.831 27.6975 196.26 27.6975C195.918 27.6403 193.118 27.8689 193.004 25.4692H207.116C207.802 25.4692 208.373 25.0692 208.659 24.4979C210.487 20.6698 209.973 14.8992 204.545 13.0708C200.203 11.7567 193.746 13.0708 189.918 17.1846C187.576 19.5842 185.062 23.8694 185.119 27.6975H181.234C179.691 27.6975 179.291 26.5548 179.805 25.412C180.32 24.2693 190.433 1.3581 190.433 1.3581H182.605L176.606 14.4421C172.092 10.9568 157.408 14.6135 157.18 27.7546H153.009C151.523 27.7546 151.181 26.6119 151.695 25.412C152.209 24.2122 157.237 13.0137 157.237 13.0137H149.238L148.495 14.6135C142.21 10.4997 129.012 15.9276 128.726 27.7546C128.327 27.7546 110.9 27.7546 107.186 27.7546C103.701 27.7546 101.359 24.7264 102.73 21.8697C107.244 12.4995 119.071 7.92865 123.242 8.21433C125.07 8.3286 124.67 9.92839 123.413 11.5853C123.07 12.0424 123.47 12.4423 123.756 12.4423H131.469C134.669 7.75725 134.326 -0.184556 124.441 0.672473C107.872 2.10086 93.9882 15.4134 94.1025 25.6406C94.1596 30.44 99.0733 35.2393 105.072 35.3536H129.926L130.898 33.0682C135.64 37.6961 141.411 35.2393 143.296 32.4397C144.096 34.2109 146.667 35.3536 147.924 35.3536H157.294L158.665 32.2111C162.665 37.5247 169.007 36.0392 171.407 32.4397C172.606 34.3823 174.663 35.3536 175.692 35.3536H185.976L187.176 32.4968C189.29 35.1822 191.918 35.3536 192.375 35.3536H211.001L212.03 32.9539C212.544 33.9252 214.715 35.3536 217.172 35.3536C219.629 35.3536 231.399 35.3536 231.399 35.3536L234.655 27.7546H221.343C220.029 27.8117 219.743 26.7833 220.257 25.4692ZM194.204 20.9555C195.918 18.1559 201.46 16.7275 202.774 19.8699C202.888 20.0985 202.945 20.6127 202.888 20.9555C202.888 21.0698 202.888 21.2412 202.66 21.2412C202.602 21.2412 194.318 21.2412 194.318 21.2412C194.318 21.2412 193.975 21.2412 194.204 20.9555ZM146.496 20.5555C145.696 22.3267 143.81 26.6119 143.182 28.0403C141.353 29.183 137.183 28.6116 137.468 24.8978C137.64 22.5553 141.125 16.8418 146.381 19.5842C146.724 19.8128 146.61 20.2699 146.496 20.5555ZM174.435 20.5555C173.635 22.3267 171.749 26.6119 171.121 28.0403C169.293 29.183 165.122 28.6116 165.407 24.8978C165.579 22.5553 169.064 16.8418 174.32 19.5842C174.663 19.8128 174.549 20.2699 174.435 20.5555Z" fill="#191918"/>
</svg>
