<svg width="18" height="15" viewBox="0 0 18 15" fill="none" xmlns="http://www.w3.org/2000/svg">
<path fill-rule="evenodd" clip-rule="evenodd" d="M0 7.5C0 6.67157 0.402944 6 0.9 6H17.1C17.5971 6 18 6.67157 18 7.5C18 8.32843 17.5971 9 17.1 9H0.9C0.402944 9 0 8.32843 0 7.5Z" fill="black"/>
<path fill-rule="evenodd" clip-rule="evenodd" d="M0 1.5C0 0.671573 0.402944 0 0.9 0H17.1C17.5971 0 18 0.671573 18 1.5C18 2.32843 17.5971 3 17.1 3H0.9C0.402944 3 0 2.32843 0 1.5Z" fill="black"/>
<path fill-rule="evenodd" clip-rule="evenodd" d="M0 13.5C0 12.6716 0.402944 12 0.9 12H17.1C17.5971 12 18 12.6716 18 13.5C18 14.3284 17.5971 15 17.1 15H0.9C0.402944 15 0 14.3284 0 13.5Z" fill="black"/>
</svg>
