<svg width="44" height="44" viewBox="0 0 44 44" fill="none" xmlns="http://www.w3.org/2000/svg">
<g filter="url(#filter0_d)">
<circle cx="22" cy="21" r="20" fill="#F2F6F8"/>
</g>
<path fill-rule="evenodd" clip-rule="evenodd" d="M22.55 15.0061C22.2463 14.7024 21.7538 14.7024 21.4501 15.0061C21.1464 15.3099 21.1464 15.8023 21.4501 16.1061L25.5668 20.2228H16.5556C16.1261 20.2228 15.7778 20.571 15.7778 21.0006C15.7778 21.4301 16.1261 21.7784 16.5556 21.7784H25.5668L21.4501 25.895C21.1464 26.1988 21.1464 26.6912 21.4501 26.995C21.7538 27.2987 22.2463 27.2987 22.55 26.995L27.9945 21.5505C28.2982 21.2468 28.2982 20.7543 27.9945 20.4506L22.55 15.0061Z" fill="black"/>
<defs>
<filter id="filter0_d" x="0" y="0" width="44" height="44" filterUnits="userSpaceOnUse" color-interpolation-filters="sRGB">
<feFlood flood-opacity="0" result="BackgroundImageFix"/>
<feColorMatrix in="SourceAlpha" type="matrix" values="0 0 0 0 0 0 0 0 0 0 0 0 0 0 0 0 0 0 127 0"/>
<feOffset dy="1"/>
<feGaussianBlur stdDeviation="1"/>
<feColorMatrix type="matrix" values="0 0 0 0 0.662745 0 0 0 0 0.701961 0 0 0 0 0.717647 0 0 0 1 0"/>
<feBlend mode="normal" in2="BackgroundImageFix" result="effect1_dropShadow"/>
<feBlend mode="normal" in="SourceGraphic" in2="effect1_dropShadow" result="shape"/>
</filter>
</defs>
</svg>
