<svg width="228" height="25" viewBox="0 0 228 25" fill="none" xmlns="http://www.w3.org/2000/svg">
<path d="M160.109 8.84903V20.91C160.109 20.91 159.808 23.1212 162.924 23.1212C166.039 23.1212 177.698 23.1212 177.698 23.1212C178.905 23.3222 180.01 22.5182 180.111 21.3121C180.111 21.111 180.111 20.91 180.111 20.709V11.7638C180.412 10.6582 179.709 9.45208 178.603 9.15055C178.402 9.05004 178.1 9.05004 177.899 9.05004H176.09V15.8846C176.09 15.8846 176.09 17.0907 174.08 17.9953C171.969 18.7993 166.24 20.508 166.24 20.508H163.527L167.849 18.6988L172.472 16.6887C172.472 16.6887 173.98 16.3871 173.98 13.4724C173.98 10.5577 173.98 2.61752 173.98 2.61752C173.98 2.61752 174.281 -0.196716 170.964 1.61243C167.648 3.42158 161.014 6.93937 161.014 6.93937C160.411 7.44191 160.109 8.14547 160.109 8.84903ZM169.557 8.34649C170.361 7.94445 171.065 8.24598 171.065 8.94954C170.964 9.85411 170.361 10.6582 169.557 10.9597C168.753 11.3617 168.05 11.0602 168.05 10.3567C168.15 9.45208 168.753 8.74852 169.557 8.34649Z" fill="#FF7C00"/>
<path d="M9.14625 13.0668C9.04574 13.5694 8.94523 14.0719 8.84473 14.5745H8.44269L8.34219 13.0668C8.34219 13.0668 7.63863 9.95107 7.2366 7.8404C6.83456 6.13176 6.53304 6.13176 5.62846 6.13176C3.7188 6.13176 0 6.13176 0 6.13176V6.53379C1.90966 6.53379 3.51779 7.8404 3.91982 9.64955C4.82439 13.3684 6.0305 18.5948 6.0305 18.5948H9.7493L15.5788 6.03125H12.061L9.14625 13.0668ZM17.6895 18.7958L20.3027 6.23227H16.8854L14.2722 18.7958H17.6895ZM27.7403 12.9663C27.3382 12.3633 26.8357 11.8607 26.2327 11.3582C25.8306 11.0567 25.4286 10.7551 25.1271 10.3531C24.926 10.1521 24.8255 9.85056 24.8255 9.54904C24.8255 9.24751 24.926 9.0465 25.1271 8.84548C25.3281 8.64446 25.6296 8.54396 25.9311 8.64446C26.8357 8.74497 27.6398 8.94599 28.4438 9.44853L29.6499 6.93582C28.5443 6.33277 27.2377 6.03125 25.9311 6.03125C25.1271 6.03125 24.323 6.23227 23.6194 6.53379C22.3128 7.13684 21.4083 8.44345 21.5088 9.95107C21.5088 10.5541 21.7098 11.2577 22.0113 11.7602C22.4133 12.3633 22.9159 12.9663 23.5189 13.3684C24.0215 13.8709 24.4235 14.1724 24.524 14.2729C24.6245 14.3734 24.725 14.5745 24.8255 14.675C24.9261 14.7755 24.926 14.9765 24.926 15.077C24.926 15.3785 24.8255 15.68 24.6245 15.8811C24.323 16.0821 24.0215 16.1826 23.6194 16.1826C23.0164 16.1826 22.5138 16.0821 21.9108 15.8811C21.3078 15.68 20.8052 15.479 20.2022 15.077V18.0922C20.6042 18.3938 21.1067 18.5948 21.6093 18.6953C22.2123 18.7958 22.8154 18.8963 23.4184 18.8963C24.725 18.9968 25.9311 18.5948 26.9362 17.7907C28.3433 16.5846 28.6449 14.5745 27.7403 12.9663ZM36.987 18.7958H40.3038L39.2987 6.23227H34.9769L28.4438 18.7958H31.9616L33.0672 16.4841H36.8865L36.987 18.7958ZM36.0825 9.64955C36.2835 9.14701 36.4845 8.74497 36.585 8.24243C36.585 8.54396 36.585 8.94599 36.585 9.34802V10.0516L36.6855 13.6699H34.1728L36.0825 9.64955Z" fill="#0056AF"/>
<path d="M124.429 6.3324C124.429 6.3324 128.751 3.81969 129.857 3.01562C130.359 3.11613 130.761 3.31715 131.264 3.51817L124.53 7.84002L120.71 5.52833C121.113 5.22681 121.515 4.82477 121.917 4.52325C122.721 5.22681 124.429 6.3324 124.429 6.3324ZM124.53 9.14663C124.53 9.14663 129.756 5.82986 132.57 3.9202C133.073 4.22172 133.475 4.52325 133.777 4.92528L124.53 10.5537L118.901 7.5385C118.901 7.5385 119.404 6.93545 119.705 6.43291C121.314 7.33748 124.53 9.14663 124.53 9.14663ZM124.53 12.0614L134.681 5.93036C135.184 6.23189 135.586 6.63392 135.988 7.13646C132.168 9.44815 124.53 13.971 124.53 13.971C124.53 13.971 119.705 11.3578 117.796 10.2522C117.896 9.74968 118.097 9.24714 118.298 8.7446C120.308 9.74968 124.53 12.0614 124.53 12.0614ZM124.53 15.4786C124.53 15.4786 132.872 10.5537 136.591 8.24205C137.294 9.54866 137.696 10.9558 137.696 12.4634C137.495 17.9914 132.872 22.3132 127.244 22.1122C122.017 21.9112 117.695 17.6898 117.595 12.4634C117.595 12.1619 117.595 11.8604 117.595 11.5588C121.113 13.4685 124.53 15.4786 124.53 15.4786Z" fill="#006D24"/>
<path d="M219.208 13.996C219.208 13.996 222.123 13.6944 223.128 17.3127C224.636 15.3026 225.44 12.8904 225.54 10.4782C225.54 8.06597 224.334 4.44767 222.123 2.73903C219.912 0.82937 217.097 -0.175712 214.183 0.0253043C210.866 0.226321 207.851 1.73394 205.74 4.24665C204.031 6.25682 203.127 8.76952 203.026 11.2822C202.825 15.2021 205.036 18.7198 208.655 20.328C211.167 21.4336 213.881 21.8356 216.595 21.4336C217.801 21.0315 223.832 19.9259 226.847 24.8508C227.048 25.1524 227.249 24.9514 227.148 24.6498C226.646 23.4437 225.741 22.4386 224.736 21.6346C223.128 20.529 221.319 19.9259 219.409 19.8254C217.701 19.5239 216.193 18.6193 215.288 17.1117C215.188 17.7148 215.288 18.2173 215.489 18.8203C213.982 18.7198 208.655 18.2173 206.946 12.6893C205.237 7.2619 208.052 4.04563 209.459 3.24157C210.866 2.33699 215.59 0.628354 220.113 5.85478C222.123 8.26698 222.826 11.3827 222.022 14.398C221.922 14.398 220.414 13.2924 219.208 13.996ZM219.61 17.5137C219.912 17.3127 220.314 17.4132 220.515 17.7148C220.716 18.0163 220.716 18.4183 220.414 18.6193C220.113 18.8204 219.711 18.7198 219.51 18.4183C219.309 18.2173 219.309 17.8153 219.61 17.5137ZM221.922 16.7097C222.022 16.6092 222.223 16.6092 222.525 17.0112C222.726 17.3127 222.726 17.6143 222.525 17.9158C222.424 17.9158 222.324 17.8153 222.223 17.7148C221.922 17.4132 221.821 17.1117 221.922 16.7097Z" fill="#FF5A00"/>
<path d="M83.1202 12.4634C83.1202 17.6898 78.8989 21.9112 73.6725 21.9112C68.446 21.9112 64.3252 17.6898 64.3252 12.4634C64.3252 7.23697 68.5465 3.01562 73.773 3.01562C78.9994 3.01562 83.1202 7.23697 83.1202 12.4634Z" fill="#E2574C"/>
<path d="M85.0298 3.01562C82.9191 3.01562 81.0095 3.71918 79.4013 4.92528C79.7029 5.22681 80.0044 5.42782 80.3059 5.72935H78.3963C78.0947 6.03087 77.7932 6.3324 77.5922 6.73443H81.0095C81.311 7.03596 81.512 7.33748 81.713 7.639H76.8886C76.6876 7.94053 76.5871 8.24205 76.3861 8.54358H82.2156C82.4166 8.8451 82.5171 9.14663 82.6176 9.44815H75.9841C75.8836 9.74968 75.783 10.1517 75.6825 10.4532H82.8186C82.9191 10.7548 82.9191 11.0563 83.0196 11.3578H75.582C75.582 11.6593 75.582 11.9609 75.582 12.2624H83.1202C83.1202 12.5639 83.1202 12.8654 83.0196 13.167H75.582C75.582 13.4685 75.6825 13.77 75.6825 14.0715H82.8186C82.7181 14.3731 82.6176 14.6746 82.5171 14.9761H75.8836C75.9841 15.2776 76.0846 15.5792 76.2856 15.8807H82.1151C81.9141 16.1822 81.8135 16.4837 81.6125 16.7853H76.7881C76.9891 17.0868 77.1902 17.3883 77.3912 17.6898L80.909 17.7903C80.6074 18.1924 80.2054 18.3934 79.9039 18.6949C79.9039 18.6949 79.3008 18.6949 78.1952 18.6949C79.9039 20.5041 82.3161 21.6097 84.9293 21.6097C90.1557 21.6097 94.3771 17.3883 94.3771 12.1619C94.3771 6.93545 90.2562 3.01562 85.0298 3.01562Z" fill="#F4B459"/>
</svg>
