<svg width="40" height="40" viewBox="0 0 40 40" fill="none" xmlns="http://www.w3.org/2000/svg">
<path d="M9.75447 0C8.80022 0 7.90458 0.371094 7.22935 1.04632L1.04632 7.22935C0.371094 7.90458 0 8.80022 0 9.75447V37.8571C0 39.0374 0.962611 40 2.14286 40H30.7143C31.8945 40 32.8571 39.0374 32.8571 37.8571V30H38.5714C39.3583 30 40 29.3583 40 28.5714V14.2857C40 13.4989 39.3583 12.8571 38.5714 12.8571H32.8571V2.14286C32.8571 0.962611 31.8945 0 30.7143 0H9.75447ZM10 1.42857H30.7143C31.1077 1.42857 31.4286 1.74944 31.4286 2.14286V12.8571H8.57143C7.7846 12.8571 7.14286 13.4989 7.14286 14.2857V28.5714C7.14286 29.3583 7.7846 30 8.57143 30H31.4286V37.8571C31.4286 38.2506 31.1077 38.5714 30.7143 38.5714H2.14286C1.74944 38.5714 1.42857 38.2506 1.42857 37.8571V10H7.85714C9.03739 10 10 9.03739 10 7.85714V1.42857ZM8.57143 1.78571V7.85714C8.57143 8.25056 8.25056 8.57143 7.85714 8.57143H1.78571C1.86384 8.45424 1.95313 8.34264 2.05636 8.2394L8.2394 2.05636C8.34264 1.95313 8.45424 1.86384 8.57143 1.78571ZM8.57143 14.2857H38.5714V28.5714H8.57143V14.2857ZM15 17.1429C14.6038 17.1429 14.2857 17.4637 14.2857 17.8571V25C14.2857 25.3934 14.6038 25.7143 15 25.7143C15.3962 25.7143 15.7143 25.3934 15.7143 25V22.8571H17.8571C19.0374 22.8571 20 21.8945 20 20.7143V19.2857C20 18.1055 19.0374 17.1429 17.8571 17.1429H15ZM22.1429 17.1429C21.7467 17.1429 21.4286 17.4637 21.4286 17.8571V25C21.4286 25.3934 21.7467 25.7143 22.1429 25.7143H24.2857C25.8622 25.7143 27.1429 24.4336 27.1429 22.8571V20C27.1429 18.4235 25.8622 17.1429 24.2857 17.1429H22.1429ZM29.2857 17.1429C28.8895 17.1429 28.5714 17.4637 28.5714 17.8571V25C28.5714 25.3934 28.8895 25.7143 29.2857 25.7143C29.6819 25.7143 30 25.3934 30 25V22.8571H32.1429C32.5391 22.8571 32.8571 22.5363 32.8571 22.1429C32.8571 21.7494 32.5391 21.4286 32.1429 21.4286H30V18.5714H32.8571C33.2533 18.5714 33.5714 18.2506 33.5714 17.8571C33.5714 17.4637 33.2533 17.1429 32.8571 17.1429H29.2857ZM15.7143 18.5714H17.8571C18.2506 18.5714 18.5714 18.8923 18.5714 19.2857V20.7143C18.5714 21.1077 18.2506 21.4286 17.8571 21.4286H15.7143V18.5714ZM22.8571 18.5714H24.2857C25.0725 18.5714 25.7143 19.2132 25.7143 20V22.8571C25.7143 23.644 25.0725 24.2857 24.2857 24.2857H22.8571V18.5714Z" fill="#929A9C"/>
</svg>
