<svg width="44" height="44" viewBox="0 0 44 44" fill="none" xmlns="http://www.w3.org/2000/svg">
<g filter="url(#filter0_d)">
<circle cx="22" cy="21" r="20" transform="rotate(-180 22 21)" fill="#F2F6F8"/>
</g>
<path fill-rule="evenodd" clip-rule="evenodd" d="M21.45 26.9939C21.7537 27.2976 22.2462 27.2976 22.5499 26.9939C22.8536 26.6901 22.8536 26.1977 22.5499 25.8939L18.4332 21.7772H27.4444C27.8739 21.7772 28.2222 21.429 28.2222 20.9994C28.2222 20.5699 27.8739 20.2216 27.4444 20.2216H18.4332L22.5499 16.105C22.8536 15.8012 22.8536 15.3088 22.5499 15.005C22.2462 14.7013 21.7537 14.7013 21.45 15.005L16.0055 20.4495C15.7018 20.7532 15.7018 21.2457 16.0055 21.5494L21.45 26.9939Z" fill="black"/>
<defs>
<filter id="filter0_d" x="0" y="0" width="44" height="44" filterUnits="userSpaceOnUse" color-interpolation-filters="sRGB">
<feFlood flood-opacity="0" result="BackgroundImageFix"/>
<feColorMatrix in="SourceAlpha" type="matrix" values="0 0 0 0 0 0 0 0 0 0 0 0 0 0 0 0 0 0 127 0"/>
<feOffset dy="1"/>
<feGaussianBlur stdDeviation="1"/>
<feColorMatrix type="matrix" values="0 0 0 0 0.662745 0 0 0 0 0.701961 0 0 0 0 0.717647 0 0 0 1 0"/>
<feBlend mode="normal" in2="BackgroundImageFix" result="effect1_dropShadow"/>
<feBlend mode="normal" in="SourceGraphic" in2="effect1_dropShadow" result="shape"/>
</filter>
</defs>
</svg>
