<svg width="20" height="16" viewBox="0 0 20 16" fill="none" xmlns="http://www.w3.org/2000/svg">
<path fill-rule="evenodd" clip-rule="evenodd" d="M11.6636 0.391522C12.3249 0.133041 13.0336 0 13.7494 0C14.4652 0 15.174 0.133041 15.8353 0.391522C16.4964 0.649955 17.0971 1.02872 17.6031 1.50618C18.1092 1.98349 18.511 2.55044 18.785 3.17415C19.059 3.79797 19.2 4.46661 19.2 5.14186C19.2 5.81711 19.059 6.48575 18.785 7.10957C18.511 7.73333 18.1094 8.30007 17.6032 8.7774C17.6032 8.77745 17.6033 8.77736 17.6032 8.7774L10.1926 15.7684C9.86517 16.0772 9.33438 16.0772 9.007 15.7684L1.5963 8.7774C0.574208 7.8132 0 6.50545 0 5.14186C0 3.77827 0.574208 2.47052 1.5963 1.50631C2.6184 0.542109 4.00466 0.000422916 5.45012 0.000422916C6.89559 0.000422916 8.28185 0.542109 9.30394 1.50631L9.59978 1.7854L9.89547 1.50645C9.89552 1.5064 9.89543 1.50649 9.89547 1.50645C10.4015 1.02892 11.0024 0.649979 11.6636 0.391522ZM13.7494 1.58167C13.2539 1.58167 12.7632 1.67377 12.3054 1.85272C11.8476 2.03167 11.4316 2.29395 11.0813 2.62459L10.1926 3.46301C9.86517 3.77184 9.33438 3.77184 9.007 3.46301L8.11839 2.62472C7.41072 1.95714 6.45091 1.58209 5.45012 1.58209C4.44933 1.58209 3.48953 1.95714 2.78186 2.62472C2.07419 3.29231 1.67663 4.19775 1.67663 5.14186C1.67663 6.08597 2.07419 6.99141 2.78186 7.659L9.59978 14.0908L16.4177 7.659C16.7682 7.32852 17.0464 6.936 17.236 6.50412C17.4257 6.07224 17.5234 5.60934 17.5234 5.14186C17.5234 4.67438 17.4257 4.21148 17.236 3.7796C17.0464 3.34772 16.7683 2.95534 16.4178 2.62485C16.0675 2.29422 15.6513 2.03167 15.1935 1.85272C14.7357 1.67377 14.245 1.58167 13.7494 1.58167Z" fill="#929A9C"/>
</svg>
