<svg width="64" height="43" viewBox="0 0 64 43" fill="none" xmlns="http://www.w3.org/2000/svg">
<path d="M30.7185 15.3174C30.7185 6.85781 23.8614 0 15.4011 0C6.9408 0 0.800207 6.62149 0.0837411 15.051C-1.01009 27.9136 8.7616 38.6831 20.6249 42.1094C16.5812 39.6644 13.7604 35.4121 13.29 30.4667C13.9824 30.5649 14.6831 30.6347 15.4011 30.6347C23.8614 30.6347 30.7185 23.7777 30.7185 15.3174Z" fill="#EFD643"/>
<path d="M63.0756 15.3174C63.0756 6.85781 56.2186 0 47.7575 0C39.298 0 33.1566 6.62149 32.4394 15.051C31.3456 27.9136 41.1173 38.6831 52.9813 42.1094C48.9376 39.6644 46.1175 35.4121 45.6464 30.4667C46.3389 30.5649 47.0403 30.6347 47.7575 30.6347C56.2186 30.6347 63.0756 23.7777 63.0756 15.3174Z" fill="#EFD643"/>
</svg>
