<svg width="24" height="25" viewBox="0 0 24 25" fill="none" xmlns="http://www.w3.org/2000/svg">
<path d="M11.4286 18.1818C12.0597 18.1818 12.5714 18.6906 12.5715 19.3182V23.8636C12.5715 24.4912 12.0598 25 11.4286 25C10.7974 25 10.2857 24.4912 10.2857 23.8636V19.3182C10.2857 18.6906 10.7974 18.1818 11.4286 18.1818ZM11.4286 0C12.0597 0 12.5714 0.508773 12.5715 1.13635V5.68176C12.5715 6.30935 12.0598 6.81824 11.4286 6.81824C10.7974 6.81824 10.2857 6.30935 10.2857 5.68176V1.13635C10.2857 0.508773 10.7974 0 11.4286 0ZM17.0854 16.5176L20.3179 19.7317C20.7642 20.1754 20.7642 20.8949 20.3179 21.3387C20.0948 21.5607 19.8022 21.6716 19.5098 21.6716C19.2173 21.6716 18.9248 21.5606 18.7017 21.3387L15.4692 18.1246C15.0228 17.6809 15.0228 16.9613 15.4692 16.5176C15.9154 16.0738 16.6392 16.0738 17.0854 16.5176ZM3.4286 11.3636C4.05973 11.3636 4.57143 11.8724 4.57143 12.5C4.57143 13.1276 4.05973 13.6364 3.42856 13.6364H1.14287C0.511695 13.6364 0 13.1276 0 12.5C0 11.8724 0.511695 11.3636 1.14287 11.3636H3.4286ZM4.15544 3.66125L7.38786 6.87537C7.8342 7.31912 7.8342 8.0385 7.38786 8.4823C7.16482 8.70417 6.87229 8.81519 6.5798 8.81519C6.28742 8.81519 5.99489 8.70417 5.77174 8.4823L2.53923 5.26831C2.0929 4.82461 2.09295 4.10505 2.53923 3.66125C2.98552 3.21746 3.70921 3.21746 4.15544 3.66125ZM22.8571 11.3636C23.4883 11.3636 24 11.8724 24 12.5C24 13.1276 23.4883 13.6364 22.8571 13.6364H18.2857C17.6545 13.6364 17.1428 13.1276 17.1428 12.5C17.1428 11.8724 17.6545 11.3636 18.2857 11.3636H22.8571ZM18.7017 3.66125C19.148 3.21746 19.8717 3.21746 20.3179 3.66125C20.7642 4.105 20.7642 4.82461 20.3179 5.26831L17.0854 8.4823C16.8622 8.70417 16.5697 8.81519 16.2772 8.81519C15.9848 8.81519 15.6923 8.70417 15.4692 8.4823C15.0228 8.03855 15.0228 7.31907 15.4692 6.87537L18.7017 3.66125Z" fill="#929A9C"/>
</svg>
