<svg width="40" height="40" viewBox="0 0 40 40" fill="none" xmlns="http://www.w3.org/2000/svg">
<path d="M19.9143 39.8287C30.9127 39.8287 39.8287 30.9127 39.8287 19.9143C39.8287 8.91595 30.9127 0 19.9143 0C8.91595 0 0 8.91595 0 19.9143C0 30.9127 8.91595 39.8287 19.9143 39.8287Z" fill="#565656"/>
<path d="M21.2254 28.3774V20.656H23.8175L24.205 17.6473H21.2254V15.7259C21.2254 14.855 21.4676 14.2608 22.7163 14.2608L24.3095 14.2597V11.5686C24.0339 11.532 23.0877 11.4502 21.9876 11.4502C19.6904 11.4502 18.1177 12.8528 18.1177 15.4277V17.6473H15.5192V20.656H18.1177V28.3774H21.2254Z" fill="white"/>
</svg>
