<svg width="40" height="40" viewBox="0 0 40 40" fill="none" xmlns="http://www.w3.org/2000/svg">
<path d="M19.9143 39.8287C30.9127 39.8287 39.8287 30.9127 39.8287 19.9143C39.8287 8.91595 30.9127 0 19.9143 0C8.91595 0 0 8.91595 0 19.9143C0 30.9127 8.91595 39.8287 19.9143 39.8287Z" fill="#565656"/>
<path d="M25.7647 19.8131C25.7647 19.8131 28.0952 16.5256 28.3267 15.4448C28.4042 15.0595 28.2341 14.8431 27.8326 14.8431C27.8326 14.8431 26.4902 14.8431 25.811 14.8431C25.3481 14.8431 25.178 15.0433 25.0392 15.3372C25.0392 15.3372 23.9455 17.6666 22.6161 19.1338C22.1887 19.6085 21.9724 19.7506 21.7366 19.7506C21.5461 19.7506 21.4589 19.5924 21.4589 19.164V15.4136C21.4589 14.8894 21.3976 14.7344 20.9648 14.7344H17.7226C17.476 14.7344 17.321 14.8775 17.321 15.0735C17.321 15.5675 18.0778 15.6795 18.0778 17.0186V19.7818C18.0778 20.3373 18.0466 20.5537 17.785 20.5537C17.0907 20.5537 15.4394 18.1618 14.5126 15.4448C14.3274 14.8894 14.1261 14.7344 13.6019 14.7344H11.5803C11.2875 14.7344 11.0712 14.9346 11.0712 15.2285C11.0712 15.7688 11.7041 18.2694 14.1886 21.6183C15.856 23.8713 18.0476 25.0909 20.0229 25.0909C21.2264 25.0909 21.5203 24.8907 21.5203 24.3804V22.6517C21.5203 22.22 21.6903 22.0338 21.9369 22.0338C22.2146 22.0338 22.7054 22.1231 23.8508 23.2534C25.2093 24.5494 25.3018 25.0898 26.0424 25.0898H28.3116C28.543 25.0898 28.7594 24.9822 28.7594 24.5957C28.7594 24.0866 28.0952 23.1759 27.0769 22.0951C26.6603 21.5397 25.9811 20.938 25.7647 20.6602C25.4558 20.3384 25.5483 20.1532 25.7647 19.8131Z" fill="white"/>
</svg>
