<svg width="40" height="40" viewBox="0 0 40 40" fill="none" xmlns="http://www.w3.org/2000/svg">
<path d="M19.9143 39.8287C30.9127 39.8287 39.8287 30.9127 39.8287 19.9143C39.8287 8.91595 30.9127 0 19.9143 0C8.91595 0 0 8.91595 0 19.9143C0 30.9127 8.91595 39.8287 19.9143 39.8287Z" fill="#565656"/>
<path d="M19.9144 12.977C22.1739 12.977 22.4419 12.9856 23.3343 13.0265C24.16 13.0642 24.6078 13.202 24.9059 13.3182C25.301 13.4722 25.583 13.6551 25.8791 13.9512C26.1751 14.2472 26.3591 14.5292 26.512 14.9243C26.6283 15.2225 26.766 15.6703 26.8037 16.4959C26.8446 17.3883 26.8532 17.6563 26.8532 19.9158C26.8532 22.1752 26.8446 22.4433 26.8037 23.3357C26.766 24.1613 26.6283 24.6091 26.512 24.9073C26.3581 25.3023 26.1751 25.5844 25.8791 25.8804C25.583 26.1764 25.301 26.3605 24.9059 26.5134C24.6078 26.6296 24.16 26.7674 23.3343 26.8051C22.4419 26.846 22.1739 26.8546 19.9144 26.8546C17.655 26.8546 17.3869 26.846 16.4946 26.8051C15.6689 26.7674 15.2211 26.6296 14.9229 26.5134C14.5279 26.3594 14.2459 26.1764 13.9498 25.8804C13.6538 25.5844 13.4697 25.3023 13.3169 24.9073C13.2006 24.6091 13.0628 24.1613 13.0252 23.3357C12.9843 22.4433 12.9756 22.1752 12.9756 19.9158C12.9756 17.6563 12.9843 17.3883 13.0252 16.4959C13.0628 15.6703 13.2006 15.2225 13.3169 14.9243C13.4708 14.5292 13.6538 14.2472 13.9498 13.9512C14.2459 13.6551 14.5279 13.4711 14.9229 13.3182C15.2211 13.202 15.6689 13.0642 16.4946 13.0265C17.3869 12.9856 17.655 12.977 19.9144 12.977ZM19.9144 11.4517C17.6162 11.4517 17.3277 11.4613 16.4246 11.5023C15.5236 11.5432 14.909 11.6863 14.3696 11.8952C13.8131 12.1115 13.3406 12.4011 12.8702 12.8715C12.3997 13.3419 12.1102 13.8145 11.8938 14.371C11.685 14.9092 11.5418 15.5249 11.5009 16.4259C11.46 17.3291 11.4503 17.6165 11.4503 19.9158C11.4503 22.214 11.46 22.5025 11.5009 23.4056C11.5418 24.3066 11.685 24.9213 11.8938 25.4606C12.1102 26.0171 12.3997 26.4897 12.8702 26.9601C13.3406 27.4305 13.8131 27.72 14.3696 27.9364C14.9079 28.1452 15.5236 28.2884 16.4246 28.3293C17.3277 28.3702 17.6151 28.3799 19.9144 28.3799C22.2137 28.3799 22.5012 28.3702 23.4043 28.3293C24.3053 28.2884 24.9199 28.1452 25.4592 27.9364C26.0158 27.72 26.4883 27.4305 26.9587 26.9601C27.4291 26.4897 27.7187 26.0171 27.9351 25.4606C28.1439 24.9223 28.2871 24.3066 28.328 23.4056C28.3689 22.5025 28.3786 22.2151 28.3786 19.9158C28.3786 17.6176 28.3689 17.3291 28.328 16.4259C28.2871 15.5249 28.1439 14.9103 27.9351 14.371C27.7187 13.8145 27.4291 13.3419 26.9587 12.8715C26.4883 12.4011 26.0158 12.1115 25.4592 11.8952C24.921 11.6863 24.3053 11.5432 23.4043 11.5023C22.5012 11.4613 22.2127 11.4517 19.9144 11.4517Z" fill="white"/>
<path d="M19.9143 15.5693C17.5138 15.5693 15.5676 17.5156 15.5676 19.915C15.5676 22.3155 17.5138 24.2617 19.9143 24.2617C22.3148 24.2617 24.261 22.3155 24.261 19.915C24.261 17.5156 22.3148 15.5693 19.9143 15.5693ZM19.9143 22.7363C18.3567 22.7363 17.093 21.4737 17.093 19.915C17.093 18.3573 18.3556 17.0936 19.9143 17.0936C21.472 17.0936 22.7357 18.3563 22.7357 19.915C22.7357 21.4737 21.472 22.7363 19.9143 22.7363Z" fill="white"/>
<path d="M24.4322 16.412C24.9928 16.412 25.4473 15.9575 25.4473 15.3969C25.4473 14.8363 24.9928 14.3818 24.4322 14.3818C23.8716 14.3818 23.4171 14.8363 23.4171 15.3969C23.4171 15.9575 23.8716 16.412 24.4322 16.412Z" fill="white"/>
</svg>
