<svg width="40" height="40" viewBox="0 0 40 40" fill="none" xmlns="http://www.w3.org/2000/svg">
<path d="M19.9143 40C30.9127 40 39.8287 31.0841 39.8287 20.0857C39.8287 9.08733 30.9127 0.171387 19.9143 0.171387C8.91595 0.171387 0 9.08733 0 20.0857C0 31.0841 8.91595 40 19.9143 40Z" fill="#565656"/>
<path d="M31.708 15.2734C31.708 15.2734 31.4722 13.6146 30.751 12.8848C29.836 11.9267 28.8102 11.9213 28.3397 11.8653C24.9715 11.6221 19.9198 11.6221 19.9198 11.6221H19.909C19.909 11.6221 14.8572 11.6221 11.489 11.8653C11.0186 11.9213 9.99273 11.9267 9.07775 12.8848C8.35653 13.6157 8.12186 15.2734 8.12186 15.2734C8.12186 15.2734 7.88074 17.2207 7.88074 19.1691V20.9947C7.88074 22.942 8.12186 24.8893 8.12186 24.8893C8.12186 24.8893 8.35653 26.5481 9.07775 27.278C9.99381 28.2371 11.1962 28.2059 11.7312 28.307C13.657 28.4922 19.9144 28.5493 19.9144 28.5493C19.9144 28.5493 24.9715 28.5417 28.3397 28.2984C28.8102 28.2425 29.836 28.2371 30.751 27.279C31.4722 26.5481 31.708 24.8904 31.708 24.8904C31.708 24.8904 31.948 22.9431 31.948 20.9958V19.1701C31.948 17.2207 31.708 15.2734 31.708 15.2734ZM17.4299 23.2068L17.4288 16.4446L23.9317 19.8375L17.4299 23.2068Z" fill="white"/>
</svg>
