<svg width="40" height="40" viewBox="0 0 40 40" fill="none" xmlns="http://www.w3.org/2000/svg">
<path d="M19.9143 39.8287C30.9127 39.8287 39.8287 30.9127 39.8287 19.9143C39.8287 8.91595 30.9127 0 19.9143 0C8.91595 0 0 8.91595 0 19.9143C0 30.9127 8.91595 39.8287 19.9143 39.8287Z" fill="#565656"/>
<path d="M20.3665 16.7242L20.4039 17.3298L19.7814 17.2556C17.5154 16.9714 15.5359 16.0075 13.8551 14.3886L13.0334 13.5853L12.8217 14.1785C12.3735 15.5008 12.6599 16.8972 13.5936 17.8364C14.0916 18.3555 13.9796 18.4296 13.1205 18.1207C12.8217 18.0218 12.5603 17.9477 12.5354 17.9847C12.4482 18.0712 12.747 19.1958 12.9836 19.6407C13.3073 20.2586 13.9671 20.8641 14.6892 21.2225L15.2993 21.5067L14.5772 21.5191C13.88 21.5191 13.8551 21.5315 13.9298 21.791C14.1788 22.5942 15.1623 23.4469 16.258 23.8177L17.0299 24.0772L16.3576 24.4727C15.3615 25.0411 14.1912 25.3624 13.0209 25.3871C12.4607 25.3995 12 25.4489 12 25.486C12 25.6096 13.5189 26.3016 14.4029 26.5735C17.0548 27.3768 20.2047 27.0307 22.5702 25.659C24.251 24.6827 25.9318 22.7425 26.7161 20.8641C27.1394 19.8631 27.5627 18.0342 27.5627 17.1567C27.5627 16.5883 27.6001 16.5141 28.2973 15.8344C28.7081 15.439 29.0941 15.0065 29.1688 14.8829C29.2933 14.6481 29.2809 14.6481 28.6459 14.8582C27.5876 15.2289 27.4382 15.1795 27.9611 14.6234C28.3471 14.2279 28.8077 13.5112 28.8077 13.3011C28.8077 13.264 28.621 13.3258 28.4093 13.437C28.1852 13.5606 27.6872 13.746 27.3137 13.8572L26.6414 14.0673L26.0314 13.6594C25.6952 13.437 25.2221 13.1898 24.9731 13.1157C24.3381 12.9427 23.367 12.9674 22.7943 13.1651C21.238 13.7212 20.2545 15.1548 20.3665 16.7242Z" fill="white"/>
</svg>
