<svg width="14" height="14" viewBox="0 0 14 14" fill="none" xmlns="http://www.w3.org/2000/svg">
<path d="M13.397 5.53772L12.9195 5.68626L12.9196 5.6866L13.397 5.53772ZM12.9115 5.1105L12.8365 5.60485L12.8366 5.60487L12.9115 5.1105ZM9.48485 4.59068L9.03283 4.8044L9.14663 5.04509L9.40986 5.08502L9.48485 4.59068ZM7.95254 1.34981L7.50051 1.56352L7.50051 1.56353L7.95254 1.34981ZM6.87416 1.34981L7.32616 1.56356L7.32618 1.56352L6.87416 1.34981ZM5.34157 4.59068L5.41656 5.08502L5.67977 5.04509L5.79358 4.80443L5.34157 4.59068ZM1.91481 5.1105L1.98969 5.60486L1.9898 5.60485L1.91481 5.1105ZM1.42933 5.53772L0.951962 5.38901L0.951908 5.38918L1.42933 5.53772ZM1.58154 6.18112L1.93813 5.83064L1.93813 5.83063L1.58154 6.18112ZM4.06114 8.70397L4.55453 8.78504L4.59569 8.53454L4.41774 8.35348L4.06114 8.70397ZM3.47585 12.2661L3.96921 12.3473L3.96924 12.3471L3.47585 12.2661ZM3.71505 12.88L3.41279 13.2783L3.41279 13.2783L3.71505 12.88ZM4.34845 12.9279L4.58874 13.3663L4.58899 13.3662L4.34845 12.9279ZM7.41334 11.2459L7.6539 10.8076L7.41335 10.6756L7.1728 10.8076L7.41334 11.2459ZM10.4781 12.9279L10.2376 13.3662L10.2376 13.3662L10.4781 12.9279ZM11.1114 12.88L10.8094 12.4815L10.8093 12.4816L11.1114 12.88ZM11.3506 12.2662L10.8572 12.3473L10.8572 12.3474L11.3506 12.2662ZM10.7653 8.70397L10.4087 8.35348L10.2307 8.53453L10.2719 8.78503L10.7653 8.70397ZM13.2449 6.18112L13.6015 6.53161L13.6016 6.53147L13.2449 6.18112ZM13.8744 5.38918C13.7496 4.98825 13.4116 4.68052 12.9863 4.61614L12.8366 5.60487C12.8646 5.60911 12.9029 5.63277 12.9195 5.68626L13.8744 5.38918ZM12.9865 4.61616L9.55984 4.09633L9.40986 5.08502L12.8365 5.60485L12.9865 4.61616ZM9.93687 4.37696L8.40456 1.13609L7.50051 1.56353L9.03283 4.8044L9.93687 4.37696ZM8.40456 1.13609C8.22434 0.754908 7.84414 0.5 7.41334 0.5V1.5C7.44036 1.5 7.47815 1.51623 7.50051 1.56352L8.40456 1.13609ZM7.41334 0.5C6.98255 0.5 6.60235 0.754908 6.42213 1.13609L7.32618 1.56352C7.34854 1.51623 7.38633 1.5 7.41334 1.5V0.5ZM6.42215 1.13606L4.88956 4.37692L5.79358 4.80443L7.32616 1.56356L6.42215 1.13606ZM5.26658 4.09633L1.83982 4.61616L1.9898 5.60485L5.41656 5.08502L5.26658 4.09633ZM1.83992 4.61614C1.41486 4.68053 1.07687 4.98805 0.951962 5.38901L1.90671 5.68643C1.92345 5.6327 1.96176 5.6091 1.98969 5.60486L1.83992 4.61614ZM0.951908 5.38918C0.827732 5.7883 0.92895 6.23047 1.22495 6.53162L1.93813 5.83063C1.9062 5.79815 1.88956 5.74155 1.90676 5.68626L0.951908 5.38918ZM1.22494 6.53161L3.70455 9.05445L4.41774 8.35348L1.93813 5.83064L1.22494 6.53161ZM3.56776 8.6229L2.98247 12.185L3.96924 12.3471L4.55453 8.78504L3.56776 8.6229ZM2.98249 12.1848C2.9146 12.5973 3.07535 13.0222 3.41279 13.2783L4.01731 12.4817C3.98459 12.4569 3.9596 12.4057 3.96921 12.3473L2.98249 12.1848ZM3.41279 13.2783C3.60487 13.4241 3.83525 13.5 4.06863 13.5V12.5C4.05265 12.5 4.03476 12.495 4.0173 12.4817L3.41279 13.2783ZM4.06863 13.5C4.24781 13.5 4.42659 13.4552 4.58874 13.3663L4.10816 12.4894C4.09418 12.497 4.08081 12.5 4.06863 12.5V13.5ZM4.58899 13.3662L7.65389 11.6843L7.1728 10.8076L4.1079 12.4895L4.58899 13.3662ZM7.17279 11.6843L10.2376 13.3662L10.7187 12.4895L7.6539 10.8076L7.17279 11.6843ZM10.2376 13.3662C10.6148 13.5732 11.0725 13.5371 11.4135 13.2784L10.8093 12.4816C10.7799 12.5039 10.7471 12.5051 10.7186 12.4895L10.2376 13.3662ZM11.4133 13.2786C11.7514 13.0224 11.9118 12.5972 11.8439 12.185L10.8572 12.3474C10.8669 12.4061 10.8418 12.457 10.8094 12.4815L11.4133 13.2786ZM11.844 12.1851L11.2587 8.6229L10.2719 8.78503L10.8572 12.3473L11.844 12.1851ZM11.1219 9.05445L13.6015 6.53161L12.8883 5.83064L10.4087 8.35348L11.1219 9.05445ZM13.6016 6.53147C13.8972 6.23052 13.9988 5.78823 13.8743 5.38884L12.9196 5.6866C12.9367 5.74135 12.9202 5.7981 12.8882 5.83078L13.6016 6.53147Z" fill="#CAD2D5"/>
</svg>
