<svg width="13" height="12" viewBox="0 0 13 12" fill="none" xmlns="http://www.w3.org/2000/svg">
<path d="M11.9969 4.53772C11.9262 4.31051 11.7381 4.14481 11.5115 4.1105L8.08483 3.59068L6.55251 0.349806C6.45122 0.135571 6.24223 0 6.01332 0C5.78442 0 5.57542 0.135571 5.47413 0.349806L3.94155 3.59068L0.514782 4.1105C0.288282 4.14481 0.100133 4.31037 0.0293105 4.53772C-0.0413793 4.76493 0.017551 5.01431 0.181513 5.18112L2.66112 7.70397L2.07583 11.2661C2.03708 11.5015 2.12995 11.7396 2.31502 11.88C2.41979 11.9595 2.54393 12 2.6686 12C2.76428 12 2.86036 11.9761 2.94842 11.9279L6.01332 10.2459L9.07809 11.9279C9.28094 12.0392 9.52614 12.0205 9.71135 11.88C9.89656 11.7397 9.9893 11.5016 9.95055 11.2662L9.36525 7.70397L11.8449 5.18112C12.0087 5.01431 12.0678 4.76479 11.9969 4.53772Z" fill="#EFD643"/>
</svg>
