<svg width="18" height="18" viewBox="0 0 18 18" fill="none" xmlns="http://www.w3.org/2000/svg">
<path d="M9 17C13.4183 17 17 13.4183 17 9C17 4.58172 13.4183 1 9 1C4.58172 1 1 4.58172 1 9C1 13.4183 4.58172 17 9 17Z" stroke="black"/>
<path d="M8.2287 11.1013L6.17168 9.04424C6.02967 8.90223 5.79943 8.90223 5.65742 9.04424C5.51542 9.18625 5.51542 9.41649 5.65742 9.5585L7.71445 11.6155C7.85645 11.7576 8.08669 11.7576 8.2287 11.6155C8.37071 11.4735 8.37071 11.2433 8.2287 11.1013Z" fill="#CAD2D5" stroke="black" stroke-width="0.5"/>
<path d="M12.3427 7.50088C12.4847 7.35887 12.4847 7.12863 12.3427 6.98662C12.2007 6.84461 11.9705 6.84461 11.8284 6.98662L7.71436 11.1007C7.57236 11.2427 7.57236 11.4729 7.71436 11.6149C7.85637 11.7569 8.08661 11.7569 8.22862 11.6149L12.3427 7.50088Z" fill="#CAD2D5" stroke="black" stroke-width="0.5"/>
</svg>
