<svg width="19" height="20" viewBox="0 0 19 20" fill="none" xmlns="http://www.w3.org/2000/svg">
<path d="M1 4.5999H2.8H17.2" stroke="#CAD2D5" stroke-width="2" stroke-linecap="round" stroke-linejoin="round"/>
<path d="M16.4 4.60001C16.4 4.04772 15.9523 3.60001 15.4 3.60001C14.8478 3.60001 14.4 4.04772 14.4 4.60001H16.4ZM3.80005 4.60001C3.80005 4.04772 3.35233 3.60001 2.80005 3.60001C2.24776 3.60001 1.80005 4.04772 1.80005 4.60001H3.80005ZM4.5 4.6C4.5 5.15228 4.94772 5.6 5.5 5.6C6.05228 5.6 6.5 5.15228 6.5 4.6H4.5ZM11.7 4.6C11.7 5.15228 12.1477 5.6 12.7 5.6C13.2523 5.6 13.7 5.15228 13.7 4.6H11.7ZM14.4 4.60001V17.2H16.4V4.60001H14.4ZM14.4 17.2C14.4 17.6418 14.0419 18 13.6 18V20C15.1464 20 16.4 18.7464 16.4 17.2H14.4ZM13.6 18H4.60005V20H13.6V18ZM4.60005 18C4.15822 18 3.80005 17.6418 3.80005 17.2H1.80005C1.80005 18.7464 3.05365 20 4.60005 20V18ZM3.80005 17.2V4.60001H1.80005V17.2H3.80005ZM6.5 4.6V2.8H4.5V4.6H6.5ZM6.5 2.8C6.5 2.35817 6.85817 2 7.3 2V0C5.7536 0 4.5 1.2536 4.5 2.8H6.5ZM7.3 2H10.9V0H7.3V2ZM10.9 2C11.3418 2 11.7 2.35817 11.7 2.8H13.7C13.7 1.2536 12.4464 0 10.9 0V2ZM11.7 2.8V4.6H13.7V2.8H11.7Z" fill="#CAD2D5"/>
<path d="M7.29998 9.1001V14.5001" stroke="#CAD2D5" stroke-width="2" stroke-linecap="round" stroke-linejoin="round"/>
<path d="M10.9 9.1001V14.5001" stroke="#CAD2D5" stroke-width="2" stroke-linecap="round" stroke-linejoin="round"/>
</svg>
