<svg width="13" height="15" viewBox="0 0 13 15" fill="none" xmlns="http://www.w3.org/2000/svg">
<path d="M1.34885 3.86885H2.58792H12.5005" stroke="#929A9C" stroke-linecap="round" stroke-linejoin="round"/>
<path d="M11.7614 3.86877C11.7614 3.59263 11.5376 3.36877 11.2614 3.36877C10.9853 3.36877 10.7614 3.59263 10.7614 3.86877H11.7614ZM3.08792 3.86877C3.08792 3.59263 2.86406 3.36877 2.58792 3.36877C2.31178 3.36877 2.08792 3.59263 2.08792 3.86877H3.08792ZM3.94653 3.86876C3.94653 4.14491 4.17039 4.36876 4.44653 4.36876C4.72268 4.36876 4.94653 4.14491 4.94653 3.86876H3.94653ZM8.90281 3.86876C8.90281 4.14491 9.12667 4.36876 9.40281 4.36876C9.67896 4.36876 9.90281 4.14491 9.90281 3.86876H8.90281ZM10.7614 3.86877V12.5423H11.7614V3.86877H10.7614ZM10.7614 12.5423C10.7614 12.9504 10.4305 13.2813 10.0223 13.2813V14.2813C10.9828 14.2813 11.7614 13.5027 11.7614 12.5423H10.7614ZM10.0223 13.2813H3.82699V14.2813H10.0223V13.2813ZM3.82699 13.2813C3.41881 13.2813 3.08792 12.9504 3.08792 12.5423H2.08792C2.08792 13.5027 2.86653 14.2813 3.82699 14.2813V13.2813ZM3.08792 12.5423V3.86877H2.08792V12.5423H3.08792ZM4.94653 3.86876V2.62969H3.94653V3.86876H4.94653ZM4.94653 2.62969C4.94653 2.22152 5.27743 1.89062 5.6856 1.89062V0.890625C4.72514 0.890625 3.94653 1.66923 3.94653 2.62969H4.94653ZM5.6856 1.89062H8.16374V0.890625H5.6856V1.89062ZM8.16374 1.89062C8.57192 1.89062 8.90281 2.22152 8.90281 2.62969H9.90281C9.90281 1.66923 9.1242 0.890625 8.16374 0.890625V1.89062ZM8.90281 2.62969V3.86876H9.90281V2.62969H8.90281Z" fill="#929A9C"/>
<path d="M5.68559 6.96631V10.6835" stroke="#929A9C" stroke-linecap="round" stroke-linejoin="round"/>
<path d="M8.16374 6.96631V10.6835" stroke="#929A9C" stroke-linecap="round" stroke-linejoin="round"/>
</svg>
