<svg width="17" height="17" viewBox="0 0 17 17" fill="none" xmlns="http://www.w3.org/2000/svg">
<path d="M8.5 0C3.80564 0 0 3.80558 0 8.5C0 13.1944 3.80564 17 8.5 17C13.1944 17 17 13.1944 17 8.5C17 3.80558 13.1944 0 8.5 0ZM11.5713 8.82966L7.2351 11.4986C7.14736 11.5526 7.04759 11.5797 6.94783 11.5797C6.85744 11.5797 6.76692 11.5576 6.68501 11.5127C6.51271 11.4186 6.4058 11.2401 6.4058 11.0459V5.70795C6.4058 5.51379 6.51271 5.33523 6.68501 5.24115C6.85731 5.14653 7.06799 5.15227 7.2351 5.25523L11.5713 7.92421C11.7297 8.02196 11.8261 8.19294 11.8261 8.37693C11.8261 8.56093 11.7297 8.73194 11.5713 8.82966Z" fill="white"/>
</svg>
