<svg width="139" height="16" viewBox="0 0 139 16" fill="none" xmlns="http://www.w3.org/2000/svg">
<path fill-rule="evenodd" clip-rule="evenodd" d="M87.5965 12.5594C87.5965 13.5755 87.3211 14.3749 86.7704 14.9575C86.2197 15.5402 85.4649 15.8315 84.5061 15.8315C83.5444 15.8315 82.7896 15.5366 82.2418 14.947C81.6939 14.3573 81.4199 13.5615 81.4199 12.5594C81.4199 11.549 81.6939 10.7503 82.2418 10.1635C82.7896 9.57663 83.5444 9.2832 84.5061 9.2832C85.4649 9.2832 86.2197 9.57522 86.7704 10.1593C87.3211 10.7433 87.5965 11.5434 87.5965 12.5594ZM85.9443 12.5552C85.9443 12.1809 85.905 11.8621 85.8266 11.5989C85.7481 11.3358 85.6432 11.1198 85.512 10.9509C85.375 10.7792 85.2202 10.656 85.0475 10.5815C84.8749 10.5069 84.6958 10.4696 84.5104 10.4696C84.3135 10.4696 84.1351 10.5041 83.9753 10.573C83.8155 10.642 83.6614 10.7651 83.513 10.9424C83.3818 11.1057 83.2755 11.3224 83.1941 11.5926C83.1128 11.8628 83.0721 12.1851 83.0721 12.5594C83.0721 12.9451 83.1107 13.2652 83.1877 13.5199C83.2648 13.7747 83.3703 13.9879 83.5045 14.1596C83.6414 14.3341 83.797 14.4586 83.971 14.5332C84.1451 14.6078 84.3249 14.6451 84.5104 14.6451C84.6987 14.6451 84.8813 14.605 85.0582 14.5248C85.2352 14.4446 85.3878 14.32 85.5162 14.1511C85.6532 13.9682 85.7588 13.755 85.833 13.5115C85.9072 13.268 85.9443 12.9493 85.9443 12.5552Z" fill="#D02D42"/>
<path fill-rule="evenodd" clip-rule="evenodd" d="M80.8621 13.6909C80.8621 13.9977 80.8029 14.2799 80.6845 14.5374C80.5661 14.795 80.4041 15.0053 80.1987 15.1686C79.9533 15.3628 79.6886 15.5 79.4047 15.5802C79.1207 15.6605 78.7747 15.7006 78.3667 15.7006H75.7471V9.41406H80.3784V10.6131H77.3394V11.7741H78.3923C78.7747 11.7741 79.1172 11.8016 79.4196 11.8565C79.7221 11.9114 79.9932 12.0317 80.2329 12.2174C80.4526 12.3863 80.6124 12.5981 80.7123 12.8529C80.8122 13.1076 80.8621 13.3869 80.8621 13.6909ZM79.2099 13.7374C79.2099 13.6332 79.1985 13.5347 79.1757 13.4418C79.1528 13.3489 79.1029 13.2631 79.0258 13.1843C78.9488 13.1083 78.8432 13.0478 78.7091 13.0027C78.575 12.9577 78.3895 12.9352 78.1526 12.9352H77.3394V14.5353H78.1526C78.4808 14.5353 78.7391 14.4663 78.9274 14.3284C79.1157 14.1905 79.2099 13.9935 79.2099 13.7374Z" fill="#D02D42"/>
<path fill-rule="evenodd" clip-rule="evenodd" d="M72.7513 15.8243C71.7953 15.8243 71.0363 15.5394 70.4741 14.9694C69.9119 14.3994 69.6309 13.598 69.6309 12.565C69.6309 11.5686 69.9126 10.7742 70.4762 10.1817C71.0398 9.58921 71.7996 9.29297 72.7555 9.29297C73.0095 9.29297 73.2378 9.30704 73.4404 9.33519C73.643 9.36333 73.837 9.40274 74.0225 9.4534C74.1681 9.49562 74.3264 9.55332 74.4977 9.6265C74.6689 9.69968 74.8073 9.76301 74.9129 9.81649V11.3153H74.7502C74.6732 11.2477 74.5761 11.1668 74.4591 11.0725C74.3421 10.9782 74.2094 10.8861 74.0611 10.796C73.9127 10.7059 73.7493 10.6292 73.571 10.5659C73.3926 10.5026 73.2064 10.4709 73.0124 10.4709C72.7812 10.4709 72.5693 10.5068 72.3767 10.5786C72.1841 10.6503 72.0008 10.7749 71.8267 10.9522C71.6669 11.1126 71.5363 11.3294 71.435 11.6024C71.3337 11.8754 71.2831 12.1977 71.2831 12.5692C71.2831 12.9604 71.3359 13.2891 71.4415 13.555C71.547 13.821 71.6854 14.0356 71.8567 14.1989C72.0222 14.3565 72.2069 14.4705 72.411 14.5409C72.615 14.6112 72.8183 14.6464 73.0209 14.6464C73.2321 14.6464 73.4333 14.6119 73.6245 14.543C73.8156 14.474 73.9769 14.3973 74.1081 14.3129C74.2508 14.2256 74.3764 14.137 74.4848 14.0469C74.5933 13.9568 74.6874 13.8766 74.7673 13.8062H74.9129V15.2839C74.7959 15.3374 74.6603 15.3986 74.5062 15.4676C74.3521 15.5365 74.1937 15.595 74.0311 15.6428C73.8313 15.7019 73.6444 15.7469 73.4704 15.7779C73.2963 15.8089 73.0566 15.8243 72.7513 15.8243Z" fill="#D02D42"/>
<path fill-rule="evenodd" clip-rule="evenodd" d="M83.3641 3.31726C83.3641 4.33335 83.0887 5.1327 82.538 5.71533C81.9872 6.29797 81.2325 6.58928 80.2737 6.58928C79.312 6.58928 78.5572 6.29445 78.0093 5.70478C77.4614 5.11511 77.1875 4.31928 77.1875 3.31726C77.1875 2.3068 77.4614 1.50815 78.0093 0.921295C78.5572 0.334439 79.312 0.0410156 80.2737 0.0410156C81.2325 0.0410156 81.9872 0.333032 82.538 0.917073C83.0887 1.50111 83.3641 2.30117 83.3641 3.31726ZM81.7119 3.31304C81.7119 2.93869 81.6726 2.61993 81.5942 2.35676C81.5157 2.09359 81.4108 1.87757 81.2795 1.70869C81.1426 1.537 80.9878 1.41386 80.8151 1.33927C80.6425 1.26468 80.4634 1.22739 80.2779 1.22739C80.081 1.22739 79.9027 1.26187 79.7429 1.33082C79.5831 1.39978 79.429 1.52292 79.2806 1.70025C79.1493 1.8635 79.043 2.08022 78.9617 2.35043C78.8804 2.62064 78.8397 2.94291 78.8397 3.31726C78.8397 3.70287 78.8783 4.02303 78.9553 4.27775C79.0323 4.53248 79.1379 4.74569 79.272 4.91738C79.409 5.09189 79.5645 5.21644 79.7386 5.29103C79.9127 5.36561 80.0925 5.40291 80.2779 5.40291C80.4663 5.40291 80.6489 5.3628 80.8258 5.28258C81.0028 5.20236 81.1554 5.07782 81.2838 4.90894C81.4208 4.72599 81.5264 4.51278 81.6006 4.26931C81.6748 4.02584 81.7119 3.70709 81.7119 3.31304Z" fill="#D02D42"/>
<path fill-rule="evenodd" clip-rule="evenodd" d="M86.9583 6.5802C86.0023 6.5802 85.2433 6.29522 84.6811 5.72526C84.119 5.15529 83.8379 4.35383 83.8379 3.32085C83.8379 2.32446 84.1197 1.53004 84.6833 0.937551C85.2469 0.345066 86.0066 0.0488281 86.9626 0.0488281C87.2165 0.0488281 87.4448 0.0629012 87.6474 0.0910477C87.85 0.119194 88.0441 0.158599 88.2296 0.209263C88.3751 0.251483 88.5335 0.309182 88.7047 0.382363C88.8759 0.455544 89.0143 0.518873 89.1199 0.572351V2.07115H88.9572C88.8802 2.0036 88.7832 1.92268 88.6662 1.82839C88.5492 1.73409 88.4165 1.64192 88.2681 1.55185C88.1197 1.46178 87.9563 1.38508 87.778 1.32175C87.5996 1.25842 87.4134 1.22676 87.2194 1.22676C86.9883 1.22676 86.7764 1.26264 86.5838 1.33442C86.3911 1.40619 86.2078 1.53074 86.0337 1.70806C85.8739 1.86849 85.7434 2.08522 85.6421 2.35824C85.5408 2.63126 85.4901 2.95354 85.4901 3.32507C85.4901 3.71631 85.5429 4.04491 85.6485 4.3109C85.7541 4.57688 85.8925 4.7915 86.0637 4.95475C86.2292 5.11237 86.414 5.22636 86.618 5.29673C86.822 5.36709 87.0253 5.40228 87.228 5.40228C87.4391 5.40228 87.6403 5.3678 87.8315 5.29884C88.0227 5.22988 88.1839 5.15318 88.3152 5.06874C88.4579 4.98149 88.5834 4.89283 88.6918 4.80276C88.8003 4.71269 88.8945 4.63247 88.9744 4.56211H89.1199V6.03979C89.0029 6.09327 88.8673 6.15449 88.7132 6.22345C88.5592 6.29241 88.4008 6.35081 88.2381 6.39866C88.0384 6.45777 87.8515 6.5028 87.6774 6.53376C87.5033 6.56472 87.2636 6.5802 86.9583 6.5802Z" fill="#D02D42"/>
<path fill-rule="evenodd" clip-rule="evenodd" d="M76.7994 7.90229H75.3312V6.43727H71.7699V7.90229H70.3018V5.25512H70.7298C71.0294 4.64152 71.2663 3.89495 71.4403 3.01537C71.6144 2.13579 71.7014 1.18797 71.7014 0.171875H76.1958V5.25512H76.7994V7.90229ZM74.595 5.25512V1.37091H73.1996C73.1454 2.13087 73.0384 2.84367 72.8785 3.50934C72.7187 4.175 72.5176 4.75692 72.275 5.25512H74.595Z" fill="#D02D42"/>
<path fill-rule="evenodd" clip-rule="evenodd" d="M91.48 6.45838V1.37091H89.5967V0.171875H94.9643V1.37091H93.0809V6.45838H91.48Z" fill="#D02D42"/>
<path fill-rule="evenodd" clip-rule="evenodd" d="M94.4082 6.45838L96.5612 0.171875H98.3076L100.461 6.45838H98.8127L98.4146 5.1749H96.4114L96.0133 6.45838H94.4082ZM98.0637 4.03497L97.413 1.96199L96.7624 4.03497H98.0637Z" fill="#D02D42"/>
<path fill-rule="evenodd" clip-rule="evenodd" d="M106.237 4.53316C106.237 4.84559 106.177 5.12001 106.057 5.35644C105.937 5.59288 105.776 5.78849 105.573 5.9433C105.333 6.12907 105.07 6.26135 104.783 6.34016C104.497 6.41897 104.132 6.45838 103.69 6.45838H101.139V0.171875H103.39C103.858 0.171875 104.213 0.189466 104.454 0.22465C104.695 0.259833 104.921 0.333716 105.132 0.446303C105.361 0.567333 105.531 0.729173 105.644 0.931828C105.756 1.13448 105.813 1.3681 105.813 1.63267C105.813 1.93947 105.735 2.21249 105.58 2.45173C105.424 2.69098 105.209 2.86689 104.935 2.97948V3.01326C105.329 3.09488 105.644 3.26165 105.881 3.51356C106.118 3.76547 106.237 4.10533 106.237 4.53316ZM104.186 1.94932C104.186 1.84799 104.16 1.74385 104.107 1.6369C104.054 1.52994 103.972 1.45254 103.861 1.40469C103.755 1.35965 103.631 1.33503 103.486 1.3308C103.342 1.32658 103.128 1.32447 102.842 1.32447H102.731V2.65439H102.932C103.206 2.65439 103.398 2.65157 103.508 2.64595C103.618 2.64032 103.731 2.61076 103.848 2.55728C103.977 2.49818 104.065 2.41655 104.114 2.31241C104.162 2.20827 104.186 2.08724 104.186 1.94932ZM104.589 4.50361C104.589 4.3094 104.549 4.15741 104.469 4.04764C104.389 3.93787 104.269 3.85483 104.109 3.79854C104.012 3.76195 103.879 3.74154 103.709 3.73732C103.539 3.7331 103.312 3.73099 103.026 3.73099H102.731V5.30578H102.817C103.233 5.30578 103.521 5.30297 103.681 5.29734C103.841 5.29171 104.004 5.25371 104.169 5.18334C104.315 5.12142 104.421 5.03065 104.488 4.91103C104.555 4.79141 104.589 4.6556 104.589 4.50361Z" fill="#D02D42"/>
<path fill-rule="evenodd" clip-rule="evenodd" d="M112.672 6.45838H111.071V1.37091H109.462C109.45 1.61579 109.439 1.84447 109.429 2.05698C109.42 2.26949 109.409 2.47144 109.397 2.66283C109.366 3.21169 109.315 3.68525 109.243 4.08352C109.172 4.4818 109.091 4.80759 108.999 5.06091C108.899 5.33111 108.798 5.54362 108.695 5.69842C108.593 5.85323 108.496 5.97567 108.404 6.06573C108.267 6.20084 108.096 6.30709 107.891 6.38449C107.685 6.46189 107.483 6.5006 107.283 6.5006C107.149 6.5006 107.002 6.49497 106.842 6.48371C106.682 6.47245 106.581 6.46401 106.538 6.45838V5.06935H106.598C106.627 5.07217 106.654 5.07498 106.681 5.0778C106.709 5.08061 106.744 5.08202 106.786 5.08202C106.858 5.08202 106.949 5.07076 107.06 5.04824C107.172 5.02572 107.256 4.98773 107.313 4.93425C107.518 4.74285 107.659 4.44661 107.734 4.04553C107.81 3.64444 107.868 3.06533 107.908 2.30819C107.925 1.96199 107.936 1.65097 107.94 1.37513C107.944 1.0993 107.955 0.698216 107.972 0.171875H112.672V6.45838Z" fill="#D02D42"/>
<path fill-rule="evenodd" clip-rule="evenodd" d="M131.832 6.45838H130.239V2.2913L129.079 4.98069H127.988L126.828 2.2913V6.45838H125.321V0.171875H127.166L128.579 3.27502L129.987 0.171875H131.832V6.45838Z" fill="#D02D42"/>
<path fill-rule="evenodd" clip-rule="evenodd" d="M118.795 6.45838H117.203V4.15319H116.599L114.994 6.45838H113.094L114.994 3.85343C114.603 3.68736 114.302 3.45375 114.089 3.15258C113.876 2.85141 113.77 2.463 113.77 1.98732C113.77 1.66645 113.842 1.38639 113.986 1.14715C114.13 0.907903 114.314 0.712287 114.536 0.560296C114.73 0.428007 114.966 0.330199 115.245 0.266869C115.523 0.203539 115.842 0.171875 116.201 0.171875H118.795V6.45838ZM117.203 3.0217V1.32869H116.689C116.441 1.32869 116.25 1.33643 116.116 1.35191C115.982 1.36739 115.852 1.42158 115.726 1.51446C115.629 1.58483 115.555 1.677 115.504 1.791C115.452 1.90499 115.427 2.03095 115.427 2.16886C115.427 2.31241 115.454 2.44118 115.508 2.55517C115.562 2.66917 115.638 2.76275 115.735 2.83593C115.843 2.92037 115.971 2.97244 116.118 2.99215C116.265 3.01185 116.458 3.0217 116.698 3.0217H117.203Z" fill="#D02D42"/>
<path fill-rule="evenodd" clip-rule="evenodd" d="M119.88 6.45838V0.171875H124.19V1.37091H121.472V2.47284H123.976V3.67188H121.472V5.25934H124.19V6.45838H119.88Z" fill="#D02D42"/>
<path fill-rule="evenodd" clip-rule="evenodd" d="M93.3477 11.3984C93.3477 11.6911 93.3006 11.9698 93.2065 12.2343C93.1123 12.4989 92.9767 12.7199 92.7998 12.8972C92.6914 13.007 92.5722 13.1083 92.4424 13.2012C92.3126 13.294 92.1692 13.3729 92.0122 13.4376C91.8553 13.5023 91.6848 13.553 91.5007 13.5896C91.3167 13.6262 91.1105 13.6445 90.8822 13.6445H90.0432V15.7006H88.4424V9.41406H90.9164C91.2846 9.41406 91.602 9.44713 91.8688 9.51328C92.1356 9.57942 92.3775 9.68427 92.5944 9.82781C92.8341 9.98544 93.0195 10.1958 93.1508 10.459C93.2821 10.7222 93.3477 11.0353 93.3477 11.3984ZM91.704 11.4364C91.704 11.2591 91.6612 11.1064 91.5756 10.9783C91.49 10.8502 91.3873 10.7623 91.2674 10.7144C91.1162 10.6497 90.9714 10.6124 90.833 10.6025C90.6946 10.5927 90.507 10.5878 90.2701 10.5878H90.0432V12.4708H90.1545C90.3058 12.4708 90.4485 12.4694 90.5826 12.4665C90.7167 12.4637 90.8337 12.4539 90.9336 12.437C91.0192 12.4229 91.1098 12.3955 91.2054 12.3547C91.301 12.3138 91.3744 12.2681 91.4258 12.2174C91.5342 12.1133 91.6077 12.0049 91.6463 11.8924C91.6848 11.7798 91.704 11.6278 91.704 11.4364Z" fill="#D02D42"/>
<path fill-rule="evenodd" clip-rule="evenodd" d="M99.567 15.7006H97.9661V12.9141H95.7874V15.7006H94.1865V9.41406H95.7874V11.715H97.9661V9.41406H99.567V15.7006Z" fill="#D02D42"/>
<path fill-rule="evenodd" clip-rule="evenodd" d="M114.201 15.7013H112.626V11.5595L110.177 15.7013H108.696V9.41478H110.271V13.1597L112.536 9.41478H114.201V15.7013ZM113.717 7.3418C113.714 7.84843 113.53 8.25374 113.163 8.55772C112.796 8.8617 112.228 9.01369 111.457 9.01369C110.701 9.01369 110.136 8.85959 109.762 8.55139C109.388 8.24318 109.2 7.83999 109.197 7.3418H110.601C110.607 7.64859 110.672 7.87165 110.798 8.01098C110.924 8.1503 111.143 8.21997 111.457 8.21997C111.771 8.21997 111.991 8.1496 112.116 8.00887C112.242 7.86813 112.308 7.64578 112.313 7.3418H113.717Z" fill="#D02D42"/>
<path fill-rule="evenodd" clip-rule="evenodd" d="M105.559 13.6909C105.559 13.9977 105.5 14.2799 105.382 14.5374C105.263 14.795 105.101 15.0053 104.896 15.1686C104.65 15.3628 104.386 15.5 104.102 15.5802C103.818 15.6605 103.472 15.7006 103.064 15.7006H100.534V9.41406H102.131V11.7741H103.09C103.463 11.7741 103.802 11.8002 104.104 11.8522C104.407 11.9043 104.682 12.026 104.93 12.2174C105.15 12.3863 105.31 12.5981 105.41 12.8529C105.509 13.1076 105.559 13.3869 105.559 13.6909ZM103.907 13.7374C103.907 13.6332 103.896 13.5347 103.873 13.4418C103.85 13.3489 103.8 13.2631 103.723 13.1843C103.646 13.1055 103.54 13.0442 103.406 13.0006C103.272 12.957 103.087 12.9352 102.85 12.9352H102.131V14.5353H102.85C103.175 14.5353 103.433 14.467 103.622 14.3305C103.812 14.194 103.907 13.9963 103.907 13.7374ZM107.635 15.7006H106.034V9.41406H107.635V15.7006Z" fill="#D02D42"/>
<path fill-rule="evenodd" clip-rule="evenodd" d="M121.759 10.6131H119.063V15.7006H117.462V9.41406H121.759V10.6131Z" fill="#D02D42"/>
<path fill-rule="evenodd" clip-rule="evenodd" d="M127.506 11.3984C127.506 11.6911 127.459 11.9698 127.365 12.2343C127.27 12.4989 127.135 12.7199 126.958 12.8972C126.85 13.007 126.73 13.1083 126.601 13.2012C126.471 13.294 126.327 13.3729 126.17 13.4376C126.013 13.5023 125.843 13.553 125.659 13.5896C125.475 13.6262 125.269 13.6445 125.04 13.6445H124.201V15.7006H122.601V9.41406H125.075C125.443 9.41406 125.76 9.44713 126.027 9.51328C126.294 9.57942 126.536 9.68427 126.753 9.82781C126.992 9.98544 127.178 10.1958 127.309 10.459C127.44 10.7222 127.506 11.0353 127.506 11.3984ZM125.862 11.4364C125.862 11.2591 125.819 11.1064 125.734 10.9783C125.648 10.8502 125.545 10.7623 125.426 10.7144C125.274 10.6497 125.13 10.6124 124.991 10.6025C124.853 10.5927 124.665 10.5878 124.428 10.5878H124.201V12.4708H124.313C124.464 12.4708 124.607 12.4694 124.741 12.4665C124.875 12.4637 124.992 12.4539 125.092 12.437C125.177 12.4229 125.268 12.3955 125.364 12.3547C125.459 12.3138 125.533 12.2681 125.584 12.2174C125.692 12.1133 125.766 12.0049 125.804 11.8924C125.843 11.7798 125.862 11.6278 125.862 11.4364Z" fill="#D02D42"/>
<path fill-rule="evenodd" clip-rule="evenodd" d="M133.609 9.41406L131.481 14.4424C131.356 14.7351 131.215 14.9659 131.06 15.1348C130.904 15.3037 130.741 15.4318 130.57 15.519C130.399 15.6063 130.227 15.6647 130.056 15.6942C129.885 15.7238 129.705 15.7386 129.517 15.7386C129.32 15.7386 129.091 15.7343 128.83 15.7259C128.569 15.7175 128.394 15.709 128.305 15.7006V14.3664H128.404C128.43 14.3721 128.47 14.3791 128.524 14.3875C128.578 14.396 128.646 14.4044 128.729 14.4129C128.798 14.4185 128.872 14.4241 128.952 14.4298C129.032 14.4354 129.104 14.4382 129.17 14.4382C129.361 14.4382 129.542 14.415 129.712 14.3685C129.881 14.3221 129.995 14.2426 130.052 14.13L127.693 9.41406H129.423L130.788 12.361L131.944 9.41406H133.609Z" fill="#D02D42"/>
<path fill-rule="evenodd" clip-rule="evenodd" d="M138.512 12.7254C138.654 12.8465 138.768 12.9963 138.854 13.1751C138.94 13.3538 138.982 13.5712 138.982 13.8274C138.982 14.455 138.738 14.9448 138.248 15.2966C137.759 15.6484 137.056 15.8243 136.14 15.8243C135.724 15.8243 135.326 15.7878 134.948 15.7146C134.57 15.6414 134.224 15.5415 133.91 15.4148V14.0089H134.056C134.27 14.1553 134.551 14.2981 134.901 14.4374C135.251 14.5768 135.592 14.6464 135.926 14.6464C136.357 14.6464 136.7 14.5704 136.954 14.4184C137.207 14.2664 137.334 14.0328 137.334 13.7176C137.334 13.4446 137.242 13.2426 137.056 13.1117C136.871 12.9809 136.537 12.9154 136.055 12.9154H135.139V11.7924H136.012C136.411 11.7924 136.704 11.7326 136.889 11.6129C137.075 11.4933 137.168 11.3139 137.168 11.0746C137.168 10.8635 137.066 10.7101 136.861 10.6144C136.657 10.5187 136.386 10.4709 136.046 10.4709C135.855 10.4709 135.673 10.4906 135.5 10.53C135.328 10.5694 135.159 10.6187 134.993 10.6778C134.839 10.7341 134.697 10.796 134.567 10.8635C134.437 10.9311 134.338 10.9818 134.27 11.0155H134.12V9.70672C134.305 9.63073 134.609 9.54277 135.029 9.44285C135.45 9.34293 135.892 9.29297 136.354 9.29297C137.176 9.29297 137.791 9.42737 138.199 9.69617C138.607 9.96497 138.811 10.3386 138.811 10.8171C138.811 11.1746 138.699 11.4828 138.475 11.7417C138.251 12.0007 137.962 12.1738 137.608 12.261V12.3243C137.74 12.3469 137.892 12.3933 138.066 12.4637C138.24 12.534 138.389 12.6213 138.512 12.7254Z" fill="#D02D42"/>
<path fill-rule="evenodd" clip-rule="evenodd" d="M59.3682 0.197801C60.2842 0.0659338 61.2414 0 62.2399 0C63.2383 0 64.1955 0.0659338 65.1116 0.197801V4.96833H59.3682V0.197801Z" fill="#D02D42"/>
<path fill-rule="evenodd" clip-rule="evenodd" d="M59.3682 15.8022C60.2842 15.9341 61.2414 16 62.2399 16C63.2383 16 64.1955 15.9341 65.1116 15.8022V11.0317H59.3682V15.8022Z" fill="#D02D42"/>
<path fill-rule="evenodd" clip-rule="evenodd" d="M38.7812 0.369141V15.675H44.2261V9.8077H46.286L50.8094 15.675H57.5579L50.8094 7.55346L57.2511 0.369141H50.8094L46.286 6.00891H44.2261V0.369141H38.7812Z" fill="#242265"/>
<path fill-rule="evenodd" clip-rule="evenodd" d="M19.5039 0.302398L20.2175 4.3549C22.6469 4.1934 24.6625 4.11265 26.2644 4.11265C27.8662 4.11265 29.4555 4.1934 31.0322 4.3549L31.3069 5.91751H24.1287V9.94614H31.3069L31.0322 11.6994C29.6581 11.8134 28.0007 11.8704 26.0601 11.8704C24.1194 11.8704 22.1719 11.8134 20.2175 11.6994L19.5039 15.6463C22.3957 15.8016 25.0996 15.8792 27.6156 15.8792C30.1316 15.8792 32.6312 15.8016 35.1144 15.6463C36.0351 13.2009 36.4954 10.6937 36.4954 8.12458C36.4954 5.55549 36.0351 2.9481 35.1144 0.302398C33.1975 0.160695 30.8313 0.0898438 28.0161 0.0898438C25.2008 0.0898438 22.3634 0.160695 19.5039 0.302398Z" fill="#242265"/>
<path fill-rule="evenodd" clip-rule="evenodd" d="M0 0.361328V15.62H5.5645V4.58601H11.9581V15.62H17.5756V0.361328H0Z" fill="#242265"/>
</svg>
