<svg width="196" height="30" viewBox="0 0 196 30" fill="none" xmlns="http://www.w3.org/2000/svg">
<path d="M147.765 22.8191V16.1651H145.271V26.499H147.377L153.38 19.7866V26.499H155.857V16.1651H153.75L147.765 22.8191ZM174.467 22.8776V16.1651H171.977V26.499H174.083L180.086 19.7323V26.499H182.58V16.1651H180.372L174.467 22.8776ZM166.653 20.1792H161.177V16.1651H158.687V26.499H161.177V22.4557H166.653V26.499H169.146V16.1651H166.653V20.1792ZM136.299 16.1651L130.321 26.499H133.27L137.209 19.6738L141.172 26.499H144.26L138.283 16.1651H136.299ZM193.784 16.1651L187.887 22.8776V16.1651H185.398V26.499H187.504L193.506 19.7323V26.499H196V16.1651H193.784ZM133.236 16.1651H121.627V18.4416H131.91L133.236 16.1651ZM121.627 20.1792V22.4557H129.584L130.915 20.1792H121.627ZM66.5762 16.1651H54.9671V18.4416H65.2451L66.5762 16.1651ZM45.6999 13.8887H43.6612L37.6881 24.2225H36.1885V29.5315H38.5642V26.499H50.78V29.5315H53.16V24.2225H51.6604L45.6999 13.8887ZM40.6451 24.2225L44.5837 17.4015L48.5475 24.2225H40.6451ZM83.8678 15.9103C79.7019 15.9103 77.7221 18.4416 77.7221 21.2736C77.7221 24.2225 79.6471 26.641 83.8678 26.641C85.7086 26.641 89.9547 25.8056 89.9547 21.2736C89.9673 18.3288 88.0718 15.9103 83.8805 15.9103H83.8678ZM83.8384 24.3646C81.4331 24.3646 80.4095 22.9903 80.4095 21.3028C80.4095 19.4524 81.5722 18.216 83.8384 18.216C86.3868 18.216 87.263 19.4691 87.263 21.3028C87.2756 23.5208 85.6075 24.3646 83.851 24.3646H83.8384ZM69.6218 16.1651L63.6487 26.499H66.5973L70.5316 19.6738L74.4954 26.499H77.5831L71.61 16.1651H69.6218ZM116.32 26.499H118.788V16.1651H116.324L116.32 26.499ZM111.627 19.8534H107.836V16.1484H105.347V26.4823H111.627C113.312 26.4823 115.081 25.555 115.081 23.1115C115.06 19.9286 112.794 19.8534 111.627 19.8534ZM111.484 24.2936H107.836V21.9879H111.488C111.909 21.9879 112.566 22.1006 112.566 23.1407C112.566 24.1098 112.048 24.3103 111.488 24.3103L111.484 24.2936ZM54.9628 20.1625V22.439H62.9199L64.251 20.1625H54.9628ZM121.623 26.4823H127.259L128.565 24.2058H121.627L121.623 26.4823ZM100.86 20.3881C101.245 20.2602 101.575 20.0078 101.797 19.6714C102.02 19.335 102.121 18.9342 102.086 18.5335C102.086 16.399 100.271 16.1484 98.9986 16.1484H92.2504V26.4823H99.1165C102.259 26.4823 102.908 24.7697 102.908 23.195C102.908 21.4407 101.897 20.7097 100.865 20.4048L100.86 20.3881ZM94.723 18.3372H98.7121C99.3061 18.3372 99.5546 18.6463 99.5546 19.2352C99.5677 19.3524 99.5556 19.471 99.5191 19.5832C99.4827 19.6954 99.4227 19.7987 99.3431 19.8863C99.2636 19.9739 99.1662 20.0438 99.0574 20.0914C98.9487 20.139 98.831 20.1632 98.7121 20.1625H94.723V18.3372ZM99.1123 24.2936H94.7272V22.0714H99.1165C99.8242 22.0714 100.334 22.2427 100.334 23.17C100.334 23.9135 100.022 24.3103 99.1165 24.3103L99.1123 24.2936ZM54.9628 26.4823H60.5947L61.9006 24.2058H54.9671L54.9628 26.4823Z" fill="#1A1A18"/>
<path d="M19.343 18.7088L8.98069 11.0816L6.45329 15.4256L18.2941 20.509L19.343 18.7088ZM20.9353 15.977L12.0557 5.8102L9.52829 10.125L19.9033 17.7648L20.9353 15.977ZM22.8393 12.7064L15.4382 0L12.637 4.81607L21.525 14.9662L22.8393 12.7064ZM2.79278 21.7245L0 26.5364H14.7979L16.1122 24.2809L2.79278 21.7245ZM16.0827 26.5364H20.0212L23.4795 20.5968L26.9589 26.5364H30.8932L23.4964 13.83L16.0827 26.5364ZM17.7339 21.4948L5.89726 16.3947L3.36986 20.7137L16.6893 23.2491L17.7339 21.4948Z" fill="#F8AF00"/>
</svg>
