<svg width="180" height="29" viewBox="0 0 180 29" fill="none" xmlns="http://www.w3.org/2000/svg">
<path d="M18.0163 27.1411H1.01391C0.467956 27.1411 0 26.6731 0 26.1272C0 25.5812 0.467956 25.1133 1.01391 25.1133H18.0163C18.5623 25.1133 19.0302 25.5812 19.0302 26.1272C19.0302 26.7511 18.6403 27.1411 18.0163 27.1411Z" fill="#00A0DE"/>
<path d="M17.548 0H18.5619C18.8739 0 19.0299 0.233978 19.0299 0.467956V1.48186C19.0299 1.79383 18.7959 1.94982 18.5619 1.94982H17.548C17.2361 1.94982 17.0801 1.71584 17.0801 1.48186V0.545949C17.0801 0.233978 17.2361 0 17.548 0Z" fill="#00A0DE"/>
<path d="M0.467956 0H1.48186C1.79383 0 1.94982 0.233978 1.94982 0.467956V1.48186C1.94982 1.79383 1.71584 1.94982 1.48186 1.94982H0.467956C0.233978 2.02781 0 1.87183 0 1.55985V0.545949C0 0.233978 0.233978 0 0.467956 0Z" fill="#00A0DE"/>
<path d="M1.01391 16.2995C0.467956 16.2995 0 15.8316 0 15.2856V3.82068C0.0779927 3.27473 0.545949 2.88477 1.0919 2.88477C1.55985 2.96276 1.94982 3.35272 2.02781 3.82068V15.2856C2.02781 15.8316 1.55985 16.2995 1.01391 16.2995Z" fill="#00A0DE"/>
<path d="M18.094 16.3013C17.548 16.3013 17.0801 15.8334 17.0801 15.2874V3.8225C17.0801 3.27655 17.548 2.80859 18.094 2.80859C18.6399 2.80859 19.1079 3.27655 19.1079 3.8225V15.2874C19.1079 15.8334 18.6399 16.3013 18.094 16.3013Z" fill="#00A0DE"/>
<path d="M15.2081 2.02781H3.82114C3.27519 2.1058 2.80723 1.71584 2.72924 1.16989C2.65125 0.623942 3.1192 0.0779927 3.66515 0C3.74314 0 3.82114 0 3.82114 0H15.2081C15.754 0.0779927 16.144 0.545949 16.144 1.0919C16.144 1.63785 15.754 2.02781 15.2081 2.02781Z" fill="#00A0DE"/>
<path d="M17.548 17.002H18.5619C18.8739 17.002 19.0299 17.2359 19.0299 17.4699V18.4838C19.0299 18.7958 18.7959 18.9518 18.5619 18.9518H17.548C17.2361 18.9518 17.0801 18.7178 17.0801 18.4838V17.4699C17.0801 17.2359 17.3141 17.002 17.548 17.002Z" fill="#00A0DE"/>
<path d="M0.467956 17.002H1.55985C1.87183 17.002 2.02781 17.2359 2.02781 17.4699V18.4838C2.02781 18.7958 1.79383 18.9518 1.55985 18.9518H0.467956C0.155985 18.9518 0 18.7178 0 18.4838V17.4699C0 17.2359 0.233978 17.002 0.467956 17.002Z" fill="#00A0DE"/>
<path d="M15.2075 17.002H3.82055C3.2746 17.002 2.80664 17.4699 2.80664 18.0159C2.80664 18.5618 3.2746 19.0298 3.82055 19.0298H15.2075C15.7534 19.0298 16.2214 18.5618 16.2214 18.0159C16.2214 17.4699 15.8314 17.002 15.2075 17.002Z" fill="#00A0DE"/>
<path d="M15.2855 16.2213C15.0515 16.2213 14.8176 16.1433 14.5836 15.9093L3.11864 4.44439C2.72868 4.05443 2.72868 3.43048 3.11864 3.04052C3.50861 2.65056 4.05456 2.65056 4.44452 3.04052L15.9095 14.5834C16.2994 14.9734 16.2994 15.5974 15.9095 15.9873C15.7535 16.0653 15.5195 16.2213 15.2855 16.2213Z" fill="#00A0DE"/>
<path d="M3.74259 16.2213C3.50861 16.2213 3.27463 16.1433 3.11864 15.9093C2.72868 15.5194 2.72868 14.8954 3.11864 14.5055L14.6616 3.04052C15.0515 2.65056 15.5975 2.65056 15.9874 3.04052C16.3774 3.43048 16.3774 4.05443 15.9874 4.44439L4.44452 15.9093C4.28854 16.1433 4.05456 16.2213 3.74259 16.2213Z" fill="#00A0DE"/>
<path d="M34.8634 8.03307L32.0557 7.95508L32.1337 8.03307H34.4734H34.8634Z" fill="#00A0DE"/>
<path d="M93.3564 18.9527L95.3842 12.0894L97.4121 18.9527H100.22L96.7881 8.57968L96.7101 8.3457H94.0584L93.9804 8.57968L90.4707 18.9527H93.3564Z" fill="#00A0DE"/>
<path d="M77.4479 8.26562H74.2502L70.6625 11.8533V8.26562H68.0107V18.9506H70.6625V15.5189L71.3644 14.661L74.8741 18.9506H78.1498L73.1583 12.6332L77.4479 8.26562Z" fill="#00A0DE"/>
<path d="M50.3054 8.26718V9.28109C49.5255 8.50116 48.5116 8.0332 47.4977 8.0332H47.4197C45.0799 8.0332 42.9741 9.67105 42.3502 11.9328C42.1942 12.4788 42.1162 13.0247 42.1162 13.6487C42.1162 13.7267 42.1162 13.8047 42.1162 13.8827C42.1942 16.8464 44.534 19.1862 47.4977 19.2642C48.3556 19.2642 49.2135 19.0302 49.9155 18.4842C50.0715 18.3282 50.2275 18.1723 50.3834 18.0163V19.0302H53.1912V8.26718H50.3054ZM50.3054 14.8966L50.2275 15.0525C49.6815 16.0665 48.6676 16.6904 47.4977 16.6904C46.7958 16.6904 46.1718 16.4564 45.6259 15.9885C45.0019 15.4425 44.612 14.5846 44.534 13.7267C44.534 13.6487 44.534 13.5707 44.534 13.4927C44.534 12.9467 44.69 12.4008 44.9239 11.9328C45.4699 10.9189 46.4838 10.295 47.6537 10.295C48.3556 10.295 48.9796 10.529 49.5255 10.9189C49.8375 11.2309 50.1495 11.6209 50.3054 12.0108C50.4614 12.4008 50.5394 12.7908 50.6174 13.1807C50.6174 13.2587 50.6174 13.3367 50.6174 13.4147C50.5394 14.0386 50.4614 14.5066 50.3054 14.8966Z" fill="#00A0DE"/>
<path d="M85.9472 8.34531V9.35921C85.2452 8.57928 84.1533 8.11133 83.1394 8.11133H83.0614C80.7217 8.11133 78.6159 9.74918 78.0699 12.011C77.9139 12.5569 77.8359 13.1029 77.8359 13.7268V13.9608C77.9139 16.8465 80.2537 19.2643 83.2174 19.3423C84.0754 19.3423 84.9333 19.1083 85.6352 18.5624C85.7912 18.4064 85.9472 18.2504 86.1032 18.0944V19.1083H88.9109V8.34531H85.9472ZM85.9472 14.9747C85.9472 15.0527 85.8692 15.0527 85.8692 15.1307C85.3232 16.1446 84.3093 16.7685 83.1394 16.7685C82.4375 16.7685 81.8136 16.5345 81.2676 16.0666C80.6437 15.5206 80.2537 14.6627 80.1757 13.8048C80.1757 13.7268 80.1757 13.6488 80.1757 13.6488C80.1757 13.1029 80.3317 12.5569 80.5657 12.089C81.1116 11.0751 82.1255 10.4511 83.2954 10.4511C83.9974 10.4511 84.6213 10.6851 85.1672 11.153C85.4792 11.465 85.7912 11.855 85.9472 12.2449C86.1032 12.6349 86.1812 13.0249 86.2591 13.4148C86.2591 13.4928 86.2591 13.5708 86.2591 13.6488C86.2591 14.0388 86.1812 14.5067 85.9472 14.9747Z" fill="#00A0DE"/>
<path d="M40.4 13.2582C40.322 11.5423 39.4641 10.0605 38.0602 9.04656C37.0463 8.34462 35.8765 7.95466 34.6286 7.95466H31.8208V4.60097H38.3722V1.94922H29.2471V2.02721V18.8736H34.7846C34.9405 18.8736 35.0185 18.8736 35.1745 18.8736C37.4363 18.7177 39.4641 17.2358 40.1661 15.052C40.322 14.506 40.4 13.9601 40.4 13.4141V13.2582ZM36.9684 14.818C36.5004 15.5979 35.7205 16.0659 34.8625 16.2999H31.8208V10.6844H34.0826H34.7846L35.0185 10.7624C35.4085 10.8404 35.7985 10.9964 36.1884 11.2304C36.8124 11.6983 37.2023 12.4002 37.2803 13.2582C37.2803 13.3362 37.2803 13.4141 37.2803 13.4141C37.3583 13.8821 37.2803 14.3501 36.9684 14.818Z" fill="#00A0DE"/>
<path d="M65.8256 18.5624V18.4844V18.4064C65.7476 17.7824 65.6696 16.6905 65.6696 15.7546V8.11133H62.8619V13.4928C62.8619 13.4928 62.8619 13.5708 62.8619 13.7268C62.8619 14.3507 62.6279 14.9747 62.316 15.5206C61.848 16.1446 61.1461 16.5345 60.3661 16.5345H60.1322C59.7422 16.5345 59.3522 16.3786 58.9623 16.1446C58.4943 15.8326 58.1823 15.3647 58.0264 14.8187C57.9484 14.5067 57.8704 14.1948 57.8704 13.8828C57.8704 13.7268 57.8704 13.6488 57.8704 13.6488C57.7144 11.543 57.8704 8.18932 57.8704 8.18932H55.1406C55.1406 9.20323 55.1406 13.1029 55.1406 13.8048C55.1406 14.6627 55.2966 15.5206 55.5306 16.3006C55.6866 16.6905 55.9206 17.0805 56.1545 17.3925C56.2325 17.4705 56.2325 17.5484 56.3105 17.6264L56.5445 17.8604C56.8565 18.1724 57.3244 18.4844 57.7924 18.7183C58.4163 18.9523 59.0403 19.1083 59.7422 19.1083H60.0542C61.2241 19.1083 62.238 18.5624 62.9399 17.6264C62.9399 18.0164 63.0179 18.4844 63.2519 18.8743H65.8256C65.7476 18.7183 65.8256 18.6403 65.8256 18.5624Z" fill="#00A0DE"/>
<path d="M177.434 15.2883C176.966 16.2243 175.952 16.8482 174.86 16.9262C173.223 16.8482 171.897 15.5223 171.897 13.8845V13.8065C171.897 13.7285 171.897 13.7285 171.897 13.6505C171.897 13.1045 172.053 12.5586 172.287 12.0906C172.989 10.6868 174.704 10.0628 176.108 10.7648C176.732 11.0767 177.2 11.5447 177.434 12.0906L177.512 12.1686L179.852 11.2327L179.774 11.1547C178.604 8.34699 175.328 7.02111 172.599 8.191C171.039 8.81494 169.869 10.2188 169.401 11.8567C169.245 12.4026 169.167 13.0266 169.167 13.6505C169.167 13.7285 169.167 13.8065 169.167 13.8845C169.245 16.9262 171.663 19.422 174.704 19.4999C176.888 19.4999 178.838 18.2521 179.696 16.3022L179.774 16.2243L177.434 15.2883Z" fill="#3D3834"/>
<path d="M129.233 8.81287L128.921 8.57889H128.843L128.609 8.50089H128.531C128.375 8.4229 128.297 8.4229 128.219 8.34491L128.141 8.26692L127.985 8.18892L127.907 8.11093L127.595 8.03294L127.439 7.95494H127.283L127.049 7.87695H126.893H126.581H126.348H126.036H125.568H125.49L125.1 7.95494H125.022C124.944 7.95494 124.788 8.03294 124.71 8.03294H124.632C124.476 8.03294 124.398 8.11093 124.32 8.11093H124.242L123.852 8.26692C122.604 8.81287 121.59 9.82677 121.044 10.9967V11.0747C120.966 11.3086 120.81 11.5426 120.732 11.7766C120.576 12.3225 120.498 12.9465 120.498 13.5704V13.8044C120.498 14.2724 120.576 14.7403 120.732 15.2863V15.3643C120.81 15.5982 120.888 15.8322 120.966 16.0662C120.966 16.0662 120.966 16.1442 121.044 16.1442L121.122 16.2222C121.2 16.4562 121.356 16.6901 121.512 16.8461V16.9241C121.668 17.1581 121.824 17.3141 121.98 17.5481L122.058 17.626L122.214 17.782C122.292 17.86 122.448 18.016 122.526 18.094L122.604 18.172L122.76 18.328H122.838C122.916 18.406 123.072 18.484 123.15 18.562L123.228 18.6399L123.384 18.7179H123.462C123.54 18.7959 123.696 18.7959 123.774 18.8739L123.852 18.9519L124.008 19.0299L124.164 19.1079L124.476 19.1859L124.632 19.2639H124.788L125.022 19.3419H125.178H125.412H125.568H125.958C126.114 19.3419 126.27 19.3419 126.425 19.3419H126.503L126.893 19.2639H126.971L127.283 19.1859H127.361L127.673 19.1079H127.751C127.907 19.0299 127.985 19.0299 128.141 18.9519C129.389 18.406 130.403 17.4701 131.027 16.3002L131.105 16.2222L128.531 15.1303L128.453 15.2083C127.907 16.1442 126.971 16.7681 125.88 16.7681C124.632 16.7681 123.462 15.9102 123.228 14.6623H131.261V14.5843C131.339 13.5704 131.417 10.5287 129.233 8.81287ZM128.687 12.4785H123.384C123.462 12.4005 123.462 12.2445 123.54 12.1666C124.008 11.1526 125.022 10.5287 126.192 10.5287C126.581 10.5287 126.971 10.6067 127.361 10.7627C127.907 11.0747 128.453 11.6986 128.687 12.4785Z" fill="#3D3834"/>
<path d="M116.755 13.648L116.677 13.726C115.897 15.2858 114.337 16.2997 112.543 16.3777C109.891 16.3777 107.629 13.804 107.629 10.6063C107.629 7.40858 109.813 4.83482 112.543 4.83482C114.649 4.91281 116.443 6.39467 117.067 8.42248V8.50048L119.874 7.33059L119.796 7.25259C118.704 4.13288 115.819 1.94909 112.465 1.87109C108.097 1.87109 104.51 5.84872 104.51 10.6843C104.51 15.5198 108.097 19.4974 112.465 19.4974C115.351 19.4195 118.003 17.7816 119.328 15.1299L119.406 14.9739L116.755 13.648Z" fill="#3D3834"/>
<path d="M143.974 11.9326C143.35 9.59279 141.166 7.87695 138.748 7.87695H138.592C137.579 7.87695 136.565 8.34491 135.785 9.04684V8.18892H132.665V25.4253H135.785V18.484C135.863 18.562 135.941 18.6399 136.019 18.7959C136.799 19.3419 137.657 19.6539 138.592 19.6539C141.712 19.5759 144.13 17.0801 144.208 13.9604C144.208 13.8824 144.208 13.8044 144.208 13.7264C144.208 13.1025 144.13 12.5565 143.974 11.9326ZM136.487 11.2306C137.033 10.8407 137.657 10.6067 138.358 10.5287C139.528 10.5287 140.542 11.1526 141.088 12.1666C141.322 12.6345 141.478 13.1805 141.478 13.7264V13.8044V13.8824C141.4 14.7403 141.01 15.5202 140.386 16.1442C139.84 16.6121 139.216 16.8461 138.514 16.8461C137.345 16.8461 136.331 16.2222 135.785 15.2083L135.707 15.0523C135.473 14.5843 135.395 14.1164 135.395 13.6484C135.395 13.5704 135.395 13.5704 135.395 13.4924V13.4144C135.395 13.0245 135.551 12.6345 135.707 12.2445C135.863 11.9326 136.175 11.5426 136.487 11.2306Z" fill="#3D3834"/>
<path d="M155.907 15.443C155.907 14.7411 155.595 14.1172 155.127 13.6492C154.893 13.4152 154.659 13.2592 154.425 13.1033L154.581 12.8693C155.049 12.4013 155.361 11.7774 155.361 11.1534C155.205 9.67158 154.036 8.57968 152.632 8.3457C152.164 8.3457 151.852 8.3457 151.696 8.3457H151.54H145.612V19.1087H148.498H149.902H152.164C153.724 19.0307 155.049 18.0948 155.595 16.6909C155.751 16.379 155.751 15.989 155.751 15.599L155.907 15.443ZM152.866 15.833C152.788 16.301 152.476 16.6129 152.086 16.7689C152.008 16.7689 151.93 16.7689 151.852 16.7689C151.618 16.8469 151.306 16.8469 151.072 16.8469H148.654V14.2732H150.916C151.228 14.2732 151.618 14.2732 151.93 14.3511H152.008H152.164H152.242C152.554 14.5071 152.788 14.8191 152.788 15.2091L152.866 15.833ZM152.086 12.0114C151.93 12.0894 151.774 12.0894 151.618 12.1673H148.576V10.3735H151.618C151.696 10.3735 151.852 10.4515 151.93 10.4515C152.242 10.6075 152.476 10.9195 152.476 11.2314C152.554 11.5434 152.398 11.9334 152.086 12.0114Z" fill="#3D3834"/>
<path d="M168.152 18.9506C168.152 18.8726 168.074 18.7946 168.074 18.7946V18.7167V18.6387C167.996 17.7807 167.918 16.9228 167.918 15.9869V8.26562H164.877V13.7251C164.877 13.7251 164.877 13.8031 164.877 13.9591V14.0371C164.877 14.583 164.721 15.207 164.409 15.6749C163.941 16.2989 163.239 16.6108 162.537 16.6888H162.303C161.913 16.6888 161.523 16.5329 161.211 16.2989C160.743 15.9869 160.431 15.5189 160.275 15.051C160.197 14.739 160.119 14.505 160.119 14.1931C160.119 14.1151 160.119 14.0371 160.119 13.9591V13.8811C159.963 11.7753 160.119 8.4996 160.119 8.4996V8.26562H157.155V8.34362C157.155 10.2154 157.155 13.3352 157.155 13.9591C157.155 14.817 157.311 15.7529 157.623 16.5329C157.779 16.9228 158.013 17.3128 158.247 17.6248C158.325 17.7027 158.325 17.7807 158.403 17.8587C158.481 17.9367 158.559 18.0147 158.637 18.0927C158.949 18.4827 159.417 18.7946 159.807 18.9506C160.431 19.1846 161.055 19.3406 161.757 19.3406H161.835H162.147C163.239 19.3406 164.253 18.8726 164.955 18.0927C164.955 18.4827 165.033 18.7946 165.267 19.1066H168.074L168.152 18.9506Z" fill="#3D3834"/>
<path d="M62.0826 5.30469C61.6927 5.77264 61.1467 6.08462 60.4448 6.16261C59.7428 6.16261 59.1189 5.85064 58.6509 5.30469L57.2471 6.08461C58.027 7.80045 60.0548 8.58038 61.7706 7.80046C62.5506 7.48848 63.1745 6.86454 63.4865 6.08461L62.0826 5.30469Z" fill="#00A0DE"/>
<path d="M31.5094 25.034H30.6515V27.1398H29.8716V25.034H29.0137V24.332H31.4314V25.034H31.5094Z" fill="#00A0DE"/>
<path d="M33.3027 24.3358H34.0827V24.7258C34.2386 24.4138 34.6286 24.2578 34.9406 24.2578C35.7205 24.3358 36.2665 25.1157 36.1885 25.8957C36.1105 26.5196 35.5645 27.0656 34.9406 27.1435C34.6286 27.1435 34.3166 26.9876 34.0827 26.7536V28.0015H33.3027V24.3358ZM35.4085 25.7397C35.3305 25.3497 35.0186 25.1157 34.6286 25.1157C34.2386 25.1937 34.0047 25.5057 34.0047 25.8957C34.0827 26.2076 34.3166 26.5196 34.7066 26.5196C35.0966 26.5196 35.4085 26.2076 35.4085 25.7397Z" fill="#00A0DE"/>
<path d="M37.9043 26.2856C37.9043 25.6617 38.3723 25.4277 38.9962 25.4277C39.2302 25.4277 39.4642 25.4277 39.6981 25.5837V25.5057C39.6981 25.1937 39.4642 24.9597 39.0742 24.9597C38.8402 24.9597 38.5282 25.0377 38.2943 25.1157L38.0603 24.4918C38.3723 24.3358 38.7622 24.2578 39.1522 24.2578C39.4642 24.2578 39.8541 24.3358 40.0881 24.5698C40.3221 24.8038 40.4001 25.1157 40.4001 25.4277V27.0655H39.6201V26.7536C39.3862 26.9876 39.0742 27.1435 38.7622 27.1435C38.3723 27.2215 37.9043 26.8316 37.9043 26.2856C37.9043 26.3636 37.9043 26.3636 37.9043 26.2856ZM39.6981 26.1296V25.9737C39.5421 25.8957 39.3862 25.8957 39.2302 25.8957C38.9182 25.8957 38.6842 26.0516 38.6842 26.2856C38.6842 26.5196 38.8402 26.5976 39.0742 26.5976C39.3082 26.5976 39.6981 26.4416 39.6981 26.1296Z" fill="#00A0DE"/>
<path d="M45.0025 27.1398H44.2225V26.0479H43.2086V27.1398H42.4287V24.332H43.2086V25.4239H44.2225V24.332H45.0025V27.1398Z" fill="#00A0DE"/>
<path d="M46.7949 25.7397C46.7949 24.9597 47.4189 24.3358 48.1988 24.2578C48.1988 24.2578 48.1988 24.2578 48.2768 24.2578C48.6667 24.2578 49.1347 24.4138 49.3687 24.7258L48.9007 25.1937C48.7447 25.0377 48.5108 24.8818 48.2768 24.9597C47.8088 24.9597 47.4969 25.2717 47.4969 25.7397C47.4969 26.2076 47.8088 26.5196 48.2768 26.5196C48.5108 26.5196 48.7447 26.4416 48.9007 26.2076L49.3687 26.6756C48.8227 27.2995 47.8868 27.3775 47.2629 26.8316C47.0289 26.5976 46.7949 26.2076 46.7949 25.7397Z" fill="#00A0DE"/>
<path d="M53.737 27.1398H52.9571V25.034H52.0211V27.1398H51.2412V24.332H53.737V27.1398Z" fill="#00A0DE"/>
<path d="M55.6084 25.7357C55.6084 24.8778 56.2323 24.2538 57.0903 24.1759C57.9482 24.0979 58.5721 24.7998 58.6501 25.6577C58.6501 26.5156 58.0262 27.1396 57.1683 27.2176C56.3103 27.2176 55.6084 26.5936 55.6084 25.7357C55.6084 25.8137 55.6084 25.7357 55.6084 25.7357ZM57.8702 25.7357C57.8702 25.3457 57.5582 24.9558 57.1683 24.9558C56.7783 24.9558 56.4663 25.2678 56.4663 25.6577V25.7357C56.4663 26.1257 56.7783 26.5156 57.1683 26.5156C57.4802 26.5156 57.8702 26.2037 57.8702 25.7357C57.8702 25.8137 57.8702 25.7357 57.8702 25.7357Z" fill="#00A0DE"/>
<path d="M60.5215 24.3358H61.3014V24.7258C61.4574 24.4138 61.8474 24.2578 62.1593 24.2578C62.9393 24.3358 63.4852 25.1157 63.4072 25.8957C63.3292 26.5196 62.7833 27.0656 62.1593 27.1435C61.8474 27.1435 61.5354 26.9876 61.3014 26.7536V28.0015H60.5215V24.3358ZM62.6273 25.7397C62.5493 25.3497 62.2373 25.1157 61.8474 25.1937C61.4574 25.2717 61.2234 25.5837 61.3014 25.9737C61.3794 26.2856 61.6134 26.5196 62.0033 26.5196C62.3153 26.5196 62.6273 26.2076 62.6273 25.7397Z" fill="#00A0DE"/>
<path d="M67.3864 25.034H66.5285V27.1398H65.7485V25.034H64.8906V24.332H67.3084V25.034H67.3864Z" fill="#00A0DE"/>
<path d="M71.5972 27.1398H70.8173V26.0479H69.8034V27.1398H69.0234V24.332H69.8034V25.4239H70.8173V24.332H71.5972V27.1398Z" fill="#00A0DE"/>
<path d="M73.4697 26.2856C73.4697 25.6617 73.9377 25.4277 74.5616 25.4277C74.7956 25.4277 75.0296 25.4277 75.2636 25.5837V25.5057C75.2636 25.1937 75.0296 24.9597 74.6396 24.9597C74.4056 24.9597 74.0937 25.0377 73.8597 25.1157L73.6257 24.4918C73.9377 24.3358 74.3277 24.2578 74.7176 24.2578C75.0296 24.2578 75.4195 24.3358 75.6535 24.5698C75.8875 24.8038 75.9655 25.1157 75.9655 25.4277V27.0655H75.1856V26.7536C74.9516 26.9876 74.6396 27.1435 74.3277 27.1435C73.9377 27.2215 73.4697 26.8316 73.4697 26.2856C73.4697 26.3636 73.4697 26.3636 73.4697 26.2856ZM75.2636 26.1296V25.9737C75.1076 25.8957 74.9516 25.8957 74.7956 25.8957C74.4836 25.8957 74.2497 26.0516 74.2497 26.2856C74.2497 26.5196 74.4056 26.5976 74.7176 26.5976C75.0296 26.5976 75.2636 26.4416 75.2636 26.1296Z" fill="#00A0DE"/>
<path d="M80.4884 27.1419H79.7085V26.2839H79.2405L78.6166 27.2198H77.6807L78.3826 26.2059C77.9926 26.1279 77.7587 25.738 77.8367 25.348C77.8367 24.8021 78.2266 24.4121 78.9285 24.4121H80.4104L80.4884 27.1419ZM79.7085 25.66V24.9581H79.1625C78.8506 24.9581 78.6946 25.114 78.6946 25.348C78.6946 25.582 78.8506 25.66 79.1625 25.66H79.7085Z" fill="#00A0DE"/>
<path d="M85.3252 24.332H86.1051V25.5019L87.119 24.332H88.0549L87.041 25.5019L88.2109 27.1398H87.275L86.4951 26.0479L86.1051 26.4378V27.1398H85.3252V24.332Z" fill="#00A0DE"/>
<path d="M89.458 25.7357C89.458 24.8778 90.082 24.2538 90.9399 24.1759C91.7978 24.0979 92.4217 24.7998 92.4997 25.6577C92.5777 26.5156 91.8758 27.1396 91.0179 27.2176C90.1599 27.2176 89.536 26.5936 89.458 25.7357C89.458 25.8137 89.458 25.7357 89.458 25.7357ZM91.7198 25.7357C91.7198 25.3457 91.4078 24.9558 91.0179 24.9558C90.6279 24.9558 90.3159 25.2678 90.3159 25.6577V25.7357C90.3159 26.1257 90.6279 26.5156 91.0179 26.5156C91.4078 26.5156 91.7198 26.2037 91.7198 25.7357C91.7198 25.8137 91.7198 25.7357 91.7198 25.7357Z" fill="#00A0DE"/>
<path d="M94.3711 24.332H95.151L95.9309 25.5019L96.7109 24.332H97.4908V27.1398H96.7109V25.5019L95.9309 26.6718L95.151 25.5799V27.2178H94.3711V24.332Z" fill="#00A0DE"/>
<path d="M102.014 27.1398H101.234V25.034H100.298V27.1398H99.5186V24.332H102.014V27.1398Z" fill="#00A0DE"/>
<path d="M103.809 26.2856C103.809 25.6617 104.277 25.4277 104.9 25.4277C105.134 25.4277 105.368 25.4277 105.602 25.5837V25.5057C105.602 25.1937 105.368 24.9597 104.978 24.9597C104.745 24.9597 104.433 25.0377 104.199 25.1157L103.965 24.4918C104.277 24.3358 104.667 24.2578 105.056 24.2578C105.368 24.2578 105.758 24.3358 105.992 24.5698C106.226 24.8038 106.304 25.1157 106.304 25.4277V27.0655H105.524V26.7536C105.29 26.9876 104.978 27.1435 104.667 27.1435C104.277 27.2215 103.887 26.8316 103.809 26.2856C103.809 26.3636 103.809 26.3636 103.809 26.2856ZM105.68 26.1296V25.9737C105.524 25.8957 105.368 25.8957 105.212 25.8957C104.9 25.8957 104.667 26.0516 104.667 26.2856C104.667 26.5196 104.822 26.5976 105.134 26.5976C105.446 26.5976 105.602 26.4416 105.68 26.1296Z" fill="#00A0DE"/>
<path d="M110.906 27.1398H110.126V26.0479H109.19V27.1398H108.41V24.332H109.19V25.4239H110.126V24.332H110.906V27.1398Z" fill="#00A0DE"/>
<path d="M115.506 27.1398H114.726V25.5019L113.635 27.1398H112.933V24.332H113.713V25.9699L114.804 24.332H115.584L115.506 27.1398Z" fill="#00A0DE"/>
<path d="M119.953 27.1419H119.173V26.2839H118.705L118.081 27.2198H117.146L117.847 26.2059C117.457 26.1279 117.223 25.738 117.301 25.348C117.301 24.8021 117.691 24.4121 118.393 24.4121H119.875L119.953 27.1419ZM119.173 25.66V24.9581H118.627C118.315 24.9581 118.159 25.114 118.159 25.348C118.159 25.582 118.315 25.66 118.627 25.66H119.173Z" fill="#00A0DE"/>
</svg>
