<svg width="176" height="32" viewBox="0 0 176 32" fill="none" xmlns="http://www.w3.org/2000/svg">
<path fill-rule="evenodd" clip-rule="evenodd" d="M15.0763 0.436317C9.43571 3.00104 4.76139 6.4088 0.676113 10.9348C0.0769926 11.5986 0.0682727 11.613 0.0997127 11.8915C0.117233 12.047 0.178193 12.59 0.235233 13.098C0.860353 18.6719 2.80587 24.4969 5.76115 29.6433C6.22923 30.4583 6.06971 30.3687 7.60739 30.6803C13.0723 31.7876 18.9853 31.7874 24.4545 30.6797C26.0331 30.3599 25.8559 30.4613 26.3544 29.5931C29.4682 24.1702 31.4018 18.0964 31.9048 12.1583L31.9509 11.6146L31.6528 11.2676C27.8173 6.80352 22.3166 2.76432 16.8154 0.372397C15.9593 0.000156917 16.0422 -0.0029631 15.0763 0.436317ZM17.9112 2.1716C22.5844 4.49568 26.05 7.0628 29.8108 10.9867L30.7594 11.9764L30.7196 12.4686C30.3145 17.4726 28.3086 23.7948 25.6326 28.5016C25.0951 29.447 25.2599 29.3326 24.1106 29.5584C18.7508 30.6114 13.4892 30.6094 7.99747 29.5524L6.92275 29.3456L6.62843 28.8424C4.02875 24.3985 2.11875 18.6505 1.44547 13.2446C1.26507 11.7962 1.12035 12.0859 2.93603 10.261C6.52835 6.65008 10.3464 3.9348 14.7793 1.838C16.126 1.20104 15.914 1.1784 17.9112 2.1716ZM15.3732 6.96192C15.3732 7.17696 15.3875 7.19288 15.5808 7.19288H15.7884L15.7525 7.96816C15.7076 8.93752 15.4405 9.8508 15.1917 9.88616C15.0486 9.90648 15.0432 9.93192 15.0432 10.5954V11.2836H15.4061H15.769V10.8527V10.4219L16.6103 10.4404L17.4515 10.4589L17.43 10.8712L17.4086 11.2836H17.7764H18.1443V10.6282V9.9728L17.9628 9.95192L17.7814 9.93104L17.7612 8.90832C17.7324 7.44512 17.77 7.19288 18.0171 7.19288C18.1939 7.19288 18.2103 7.17328 18.2103 6.96192V6.73104H16.7917H15.3732V6.96192ZM11.267 7.38584L11.0515 7.57872L11.071 8.23768C11.0893 8.85776 11.0817 8.9028 10.9417 9.00088C10.7581 9.12944 10.7272 9.09792 10.5956 8.64896C10.4602 8.18648 10.463 8.1392 10.6289 8.09584C10.7553 8.0628 10.768 7.7248 10.6477 7.594C10.5892 7.5304 9.30307 7.93912 9.30307 8.02136C9.30307 8.26664 9.42707 8.42968 9.59003 8.39856C9.78499 8.36128 10.1114 9.20936 9.94411 9.31856C9.75147 9.44432 9.59691 9.33136 9.36899 8.89848C9.00995 8.21632 8.73115 8.01696 8.31907 8.14776C8.09867 8.21768 8.11843 8.7104 8.34163 8.7104C8.53811 8.7104 8.69691 8.86168 8.82371 9.1696C8.94683 9.46888 9.16083 9.70008 9.31451 9.70008C9.38083 9.70008 9.43499 9.72976 9.43499 9.76608C9.43499 9.80232 9.40891 9.83208 9.37699 9.83208C9.23955 9.83208 9.15339 10.2417 9.19555 10.6952C9.23643 11.1351 9.23035 11.1642 9.06427 11.3181L8.89003 11.4796L9.06411 11.7078C9.25867 11.963 9.48827 11.9494 9.74203 11.6678C9.86611 11.53 9.89475 10.8493 9.79883 10.3169C9.75731 10.0866 9.88811 9.898 10.0893 9.898C10.3622 9.898 10.5481 11.0131 10.2763 11.0186C10.2072 11.0201 10.2162 11.2966 10.2889 11.4117C10.4111 11.6047 11.6872 11.1789 11.6355 10.9623C11.5748 10.7081 11.5562 10.6898 11.3583 10.6898C11.1924 10.6898 11.1691 10.6561 11.0651 10.2657C11.0029 10.0325 10.9346 9.79616 10.9133 9.74064C10.8601 9.60208 11.1812 9.52264 11.322 9.63952C11.3791 9.68696 11.5412 9.9552 11.6823 10.2358C11.9735 10.815 12.129 10.9537 12.4868 10.9537C12.7532 10.9537 12.7684 10.9352 12.8225 10.5451C12.8549 10.312 12.8476 10.3007 12.6496 10.2812C12.4711 10.2637 12.4096 10.202 12.2018 9.83208C12.0415 9.54656 11.8827 9.35864 11.7269 9.27C11.5089 9.14592 11.4996 9.12784 11.5913 9.00608C11.6652 8.90784 11.6824 8.75344 11.6602 8.38536C11.6328 7.93096 11.6424 7.88448 11.7923 7.7456C11.9522 7.59736 11.9526 7.59368 11.8348 7.39432C11.6859 7.14208 11.5416 7.13992 11.267 7.38584ZM17.0076 8.56192L16.9896 9.86504L16.7956 9.88712C16.6888 9.89928 16.4769 9.89056 16.3247 9.86768L16.0479 9.82616L16.1732 9.49632C16.3007 9.16072 16.4256 8.23256 16.4277 7.60528L16.4288 7.25888H16.7272H17.0254L17.0076 8.56192ZM21.6612 7.45408C21.5712 7.49248 21.4912 7.6112 21.4504 7.7668C21.2721 8.4464 21.2609 8.40632 21.6501 8.47928C21.8857 8.52352 21.8901 8.52032 21.9795 8.23784C22.1712 7.63176 22.9996 8.13128 22.989 8.84664C22.9823 9.2996 22.962 9.30432 22.0606 9.066C21.9437 9.03512 21.9057 9.06944 21.8415 9.26408C21.7398 9.57216 21.7647 9.60024 22.2243 9.69784C22.7925 9.8184 22.8058 9.83256 22.6739 10.178C22.3935 10.9121 21.1922 11.1776 21.3496 10.4707C21.4298 10.1102 21.4179 10.0766 21.1878 10.0153C20.8652 9.92944 20.8134 9.97376 20.7195 10.4166C20.6105 10.9298 20.6396 10.9906 21.096 11.204C21.6076 11.4431 22.3246 11.4542 22.7497 11.2295C23.6657 10.7454 24.0179 8.60464 23.301 7.8788C22.9603 7.53384 22.0355 7.29432 21.6612 7.45408ZM13.5293 9.8944C13.3444 10.0794 13.3488 10.4448 13.5382 10.6212C13.9753 11.0285 14.6893 10.4499 14.336 9.97472C14.1602 9.73832 13.7284 9.69536 13.5293 9.8944ZM19.0246 10.0014C18.888 10.1379 18.8632 10.2113 18.8959 10.3807C19.0164 11.0046 19.9257 10.9594 19.9257 10.3294C19.9257 9.85992 19.3688 9.65712 19.0246 10.0014ZM3.56283 12.7222C3.61723 12.7559 6.44523 13.9926 9.84723 15.4702L16.0327 18.1569L22.2988 15.433C25.7451 13.9348 28.5582 12.7023 28.55 12.6942C28.5419 12.686 28.113 12.7507 27.5969 12.8379C25.0903 13.2617 21.8971 13.6719 19.5628 13.8702C18.9798 13.9198 17.5293 13.9543 16.0329 13.9543C13.4002 13.9543 12.6487 13.9126 10.0288 13.6209C8.16331 13.4131 4.57643 12.8949 3.63955 12.6978C3.51507 12.6716 3.49267 12.6787 3.56283 12.7222ZM11.5573 23.6614C9.11579 26.6594 7.12731 29.1212 7.13843 29.1318C7.14963 29.1424 9.13315 27.8046 11.5464 26.159C13.9596 24.5134 15.9723 23.1653 16.0191 23.1634C16.0887 23.1606 18.1397 24.5411 24.6597 28.9794C24.814 29.0845 24.9402 29.1559 24.9402 29.1382C24.9402 29.089 16.1015 18.2468 16.0455 18.2274C16.0185 18.2179 13.9988 20.6633 11.5573 23.6614Z" fill="#E6342A"/>
<path d="M46.2003 24.9996H44.6642C44.6003 24.9996 44.5469 24.9942 44.5043 24.9836C44.4616 24.9729 44.4243 24.9462 44.3923 24.9036C44.3602 24.8502 44.3443 24.7756 44.3443 24.6796V20.1676H43.8802C43.6456 20.1676 43.4483 20.1996 43.2882 20.2636C43.1283 20.3169 43.0056 20.4076 42.9203 20.5356C42.8456 20.6636 42.7923 20.7756 42.7603 20.8716C42.7283 20.9569 42.6963 21.0796 42.6643 21.2396L42.2803 23.1596C42.2803 23.1702 42.2696 23.2289 42.2483 23.3356C42.2269 23.4316 42.2109 23.4956 42.2003 23.5276C42.2003 23.5489 42.1896 23.6076 42.1683 23.7036C42.1576 23.7889 42.1416 23.8529 42.1203 23.8956C42.1096 23.9276 42.0883 23.9862 42.0563 24.0716C42.0349 24.1462 42.0083 24.2102 41.9763 24.2636C41.9549 24.3062 41.9229 24.3596 41.8803 24.4236C41.8483 24.4876 41.8056 24.5462 41.7523 24.5996C41.7096 24.6529 41.6616 24.7009 41.6083 24.7436C41.2136 25.0956 40.6536 25.2716 39.9283 25.2716C39.8856 25.2716 39.8483 25.2662 39.8163 25.2556C39.7949 25.2556 39.7736 25.2502 39.7523 25.2396C39.7309 25.2289 39.7096 25.2182 39.6883 25.2076C39.6776 25.2076 39.6669 25.1969 39.6562 25.1756C39.6456 25.1542 39.6349 25.1382 39.6242 25.1276C39.6242 25.1169 39.6189 25.1009 39.6083 25.0796C39.5976 25.0582 39.5922 25.0422 39.5922 25.0316L39.1763 23.8156C39.1229 23.6449 39.1763 23.5382 39.3363 23.4956L39.7523 23.3996C39.9869 23.3462 40.1416 23.2556 40.2163 23.1276C40.3016 22.9889 40.3816 22.7222 40.4563 22.3276L40.7123 20.9836C40.7976 20.5249 40.9469 20.1676 41.1603 19.9116C41.3843 19.6449 41.7149 19.4369 42.1523 19.2876V19.2396C41.4589 18.9942 41.0429 18.4769 40.9043 17.6876L40.7123 16.5516C40.6483 16.1782 40.5629 15.9276 40.4563 15.7996C40.3602 15.6716 40.2109 15.5809 40.0082 15.5276L39.6083 15.4316C39.4482 15.3996 39.3949 15.2876 39.4482 15.0956L39.7843 13.9596C39.8269 13.8316 39.9283 13.7676 40.0883 13.7676C40.5683 13.7676 41.0216 13.9009 41.4483 14.1676C41.7683 14.3596 41.9923 14.5889 42.1203 14.8556C42.2483 15.1222 42.3496 15.4636 42.4243 15.8796L42.6643 17.2396C42.7496 17.7089 42.8936 18.0289 43.0963 18.1996C43.3096 18.3596 43.6189 18.4396 44.0243 18.4396H44.3443V14.3596C44.3443 14.2209 44.3709 14.1356 44.4243 14.1036C44.4776 14.0609 44.5576 14.0396 44.6642 14.0396H46.2003C46.2643 14.0396 46.3176 14.0449 46.3602 14.0556C46.4029 14.0662 46.4402 14.0982 46.4722 14.1516C46.5043 14.1942 46.5203 14.2636 46.5203 14.3596V18.4396H46.8403C47.2456 18.4396 47.5496 18.3596 47.7523 18.1996C47.9656 18.0289 48.1149 17.7089 48.2003 17.2396L48.4403 15.8796C48.4829 15.6129 48.5309 15.3942 48.5843 15.2236C48.6376 15.0529 48.7336 14.8716 48.8723 14.6796C49.0109 14.4769 49.1923 14.3062 49.4163 14.1676C49.8429 13.9009 50.2963 13.7676 50.7763 13.7676C50.9363 13.7676 51.0376 13.8316 51.0803 13.9596L51.4163 15.0956C51.4696 15.2876 51.4163 15.3996 51.2563 15.4316L50.8563 15.5276C50.6536 15.5809 50.4989 15.6716 50.3923 15.7996C50.2963 15.9276 50.2163 16.1782 50.1523 16.5516L49.9603 17.6876C49.8216 18.4769 49.4056 18.9942 48.7123 19.2396V19.2876C49.1496 19.4369 49.4749 19.6449 49.6883 19.9116C49.9123 20.1676 50.0669 20.5249 50.1523 20.9836L50.4083 22.3276C50.4829 22.7222 50.5576 22.9889 50.6323 23.1276C50.7176 23.2556 50.8776 23.3462 51.1123 23.3996L51.5283 23.4956C51.6883 23.5382 51.7416 23.6449 51.6883 23.8156L51.2723 25.0316C51.2723 25.0422 51.2669 25.0582 51.2563 25.0796C51.2456 25.1009 51.2349 25.1169 51.2243 25.1276C51.2243 25.1382 51.2189 25.1542 51.2083 25.1756C51.1976 25.1969 51.1816 25.2076 51.1603 25.2076C51.1496 25.2182 51.1336 25.2289 51.1123 25.2396C51.0909 25.2502 51.0643 25.2556 51.0323 25.2556C51.0109 25.2662 50.9789 25.2716 50.9363 25.2716C50.2109 25.2716 49.6509 25.0956 49.2563 24.7436C49.2029 24.7009 49.1496 24.6529 49.0963 24.5996C49.0536 24.5462 49.0109 24.4876 48.9683 24.4236C48.9362 24.3596 48.9043 24.3062 48.8723 24.2636C48.8509 24.2102 48.8243 24.1462 48.7923 24.0716C48.7709 23.9862 48.7496 23.9276 48.7283 23.8956C48.7176 23.8529 48.7016 23.7889 48.6803 23.7036C48.6696 23.6076 48.6589 23.5489 48.6483 23.5276C48.6483 23.4956 48.6376 23.4316 48.6163 23.3356C48.5949 23.2289 48.5843 23.1702 48.5843 23.1596L48.2003 21.2396C48.1683 21.0796 48.1363 20.9569 48.1042 20.8716C48.0723 20.7756 48.0136 20.6636 47.9283 20.5356C47.8536 20.4076 47.7362 20.3169 47.5763 20.2636C47.4163 20.1996 47.2189 20.1676 46.9843 20.1676H46.5203V24.6796C46.5203 24.8929 46.4136 24.9996 46.2003 24.9996Z" fill="#E6342A"/>
<path d="M58.5391 21.5916H54.2351C54.2351 22.9249 54.8218 23.5916 55.9951 23.5916C56.5391 23.5916 57.0725 23.4689 57.5951 23.2236C57.8085 23.1169 57.9525 23.0636 58.0271 23.0636C58.1125 23.0636 58.1711 23.1062 58.2031 23.1916L58.6031 24.1356C58.6351 24.1996 58.6511 24.2476 58.6511 24.2796C58.6511 24.4076 58.5658 24.5249 58.3951 24.6316C57.7658 25.0582 56.9178 25.2716 55.8511 25.2716C55.2005 25.2716 54.6351 25.1649 54.1551 24.9516C53.6858 24.7382 53.3285 24.4876 53.0831 24.1996C52.8378 23.9009 52.6458 23.5489 52.5071 23.1436C52.3685 22.7276 52.2831 22.3862 52.2511 22.1196C52.2191 21.8422 52.2031 21.5542 52.2031 21.2556C52.2031 19.9542 52.5125 18.8929 53.1311 18.0716C53.7605 17.2396 54.6191 16.8236 55.7071 16.8236C57.3285 16.8236 58.3365 17.6822 58.7311 19.3996C58.8485 19.8902 58.9071 20.4502 58.9071 21.0796C58.9071 21.3036 58.8751 21.4476 58.8111 21.5116C58.7578 21.5649 58.6671 21.5916 58.5391 21.5916ZM54.2351 20.1036H56.7471C56.7578 19.7836 56.7365 19.5116 56.6831 19.2876C56.5445 18.6369 56.1818 18.3116 55.5951 18.3116C54.7951 18.3116 54.3418 18.9089 54.2351 20.1036Z" fill="#E6342A"/>
<path d="M64.8751 18.6956H63.4831V18.9036C63.4831 21.0689 63.3018 22.6156 62.9391 23.5436C62.7898 23.9169 62.5925 24.2316 62.3471 24.4876C62.1018 24.7436 61.8458 24.9196 61.5791 25.0156C61.3125 25.1222 61.0938 25.1916 60.9231 25.2236C60.7525 25.2556 60.5925 25.2716 60.4431 25.2716C60.2618 25.2716 60.1498 25.1916 60.1071 25.0316L59.7871 23.8476C59.7445 23.6982 59.8138 23.6076 59.9951 23.5756L60.2671 23.5116C60.5658 23.4369 60.8005 23.3142 60.9711 23.1436C61.1418 22.9622 61.2645 22.6742 61.3391 22.2796C61.4778 21.6076 61.5471 20.1942 61.5471 18.0396V17.3196C61.5471 17.2236 61.5578 17.1649 61.5791 17.1436C61.6111 17.1116 61.6751 17.0956 61.7711 17.0956H66.6831C66.7685 17.0956 66.8271 17.1116 66.8591 17.1436C66.8911 17.1756 66.9071 17.2342 66.9071 17.3196V24.7756C66.9071 24.8716 66.8911 24.9356 66.8591 24.9676C66.8378 24.9889 66.7791 24.9996 66.6831 24.9996H65.0991C65.0138 24.9996 64.9551 24.9836 64.9231 24.9516C64.8911 24.9196 64.8751 24.8609 64.8751 24.7756V18.6956Z" fill="#E6342A"/>
<path d="M74.5525 24.9996H70.0085V27.2716C70.0085 27.4849 69.9018 27.5916 69.6885 27.5916H68.2965C68.0832 27.5916 67.9765 27.4849 67.9765 27.2716V23.5916C67.9765 23.3782 68.0832 23.2716 68.2965 23.2716H68.6005C69.0272 22.5036 69.3258 21.6076 69.4965 20.5836C69.6565 19.6022 69.7365 18.5569 69.7365 17.4476L69.7525 14.3596C69.7525 14.1462 69.8592 14.0396 70.0725 14.0396H75.3045C75.5178 14.0396 75.6245 14.1462 75.6245 14.3596V23.2716H76.2645C76.4778 23.2716 76.5845 23.3782 76.5845 23.5916V27.2716C76.5845 27.4849 76.4778 27.5916 76.2645 27.5916H74.8725C74.6592 27.5916 74.5525 27.4849 74.5525 27.2716V24.9996ZM73.4485 23.2716V15.7676H71.8005V17.7676C71.8005 18.9622 71.6778 20.1196 71.4325 21.2396C71.2832 21.9542 71.0485 22.6316 70.7285 23.2716H73.4485Z" fill="#E6342A"/>
<path d="M83.7489 17.8796C84.4209 18.5836 84.7569 19.6396 84.7569 21.0476C84.7569 22.4556 84.4209 23.5116 83.7489 24.2156C83.0769 24.9196 82.2555 25.2716 81.2849 25.2716C80.3142 25.2716 79.4929 24.9196 78.8209 24.2156C78.1489 23.5116 77.8129 22.4556 77.8129 21.0476C77.8129 19.6396 78.1489 18.5836 78.8209 17.8796C79.4929 17.1756 80.3142 16.8236 81.2849 16.8236C82.2555 16.8236 83.0769 17.1756 83.7489 17.8796ZM80.7569 23.5756C80.9062 23.6396 81.0822 23.6716 81.2849 23.6716C81.4875 23.6716 81.6635 23.6396 81.8129 23.5756C81.9622 23.5009 82.0849 23.3942 82.1809 23.2556C82.2769 23.1169 82.3515 22.9729 82.4049 22.8236C82.4689 22.6742 82.5115 22.4876 82.5329 22.2636C82.5649 22.0396 82.5809 21.8422 82.5809 21.6716C82.5915 21.5009 82.5969 21.2929 82.5969 21.0476C82.5969 20.8022 82.5915 20.5942 82.5809 20.4236C82.5809 20.2529 82.5649 20.0556 82.5329 19.8316C82.5115 19.6076 82.4689 19.4209 82.4049 19.2716C82.3515 19.1222 82.2769 18.9782 82.1809 18.8396C82.0849 18.7009 81.9622 18.5996 81.8129 18.5356C81.6635 18.4609 81.4875 18.4236 81.2849 18.4236C81.0822 18.4236 80.9062 18.4609 80.7569 18.5356C80.6075 18.5996 80.4849 18.7009 80.3889 18.8396C80.2929 18.9782 80.2129 19.1222 80.1489 19.2716C80.0955 19.4209 80.0529 19.6076 80.0209 19.8316C79.9995 20.0556 79.9835 20.2529 79.9729 20.4236C79.9729 20.5942 79.9729 20.8022 79.9729 21.0476C79.9729 21.2929 79.9729 21.5009 79.9729 21.6716C79.9835 21.8422 79.9995 22.0396 80.0209 22.2636C80.0529 22.4876 80.0955 22.6742 80.1489 22.8236C80.2129 22.9729 80.2929 23.1169 80.3889 23.2556C80.4849 23.3942 80.6075 23.5009 80.7569 23.5756Z" fill="#E6342A"/>
<path d="M88.6858 24.8556V27.7836C88.6858 27.8476 88.6804 27.8902 88.6698 27.9116C88.6698 27.9329 88.6484 27.9596 88.6058 27.9916C88.5631 28.0236 88.4884 28.0502 88.3818 28.0716L86.9098 28.3756C86.8244 28.4076 86.7551 28.4022 86.7018 28.3596C86.6698 28.3382 86.6538 28.2369 86.6538 28.0556V19.9436C86.6538 18.9302 86.5738 18.1836 86.4138 17.7036C86.3711 17.5649 86.3498 17.4796 86.3498 17.4476C86.3498 17.3729 86.4084 17.3142 86.5258 17.2716L87.7418 16.8716C87.8591 16.8076 87.9658 16.7969 88.0618 16.8396C88.1684 16.8822 88.2591 17.0102 88.3338 17.2236C88.3551 17.2662 88.3711 17.3142 88.3818 17.3676C88.4031 17.4102 88.4191 17.4636 88.4298 17.5276C88.4511 17.5809 88.4671 17.6236 88.4778 17.6556C89.0751 17.1009 89.7418 16.8236 90.4778 16.8236C91.3738 16.8236 92.0511 17.1542 92.5098 17.8156C93.0324 18.5516 93.2938 19.6076 93.2938 20.9836C93.2938 22.3916 93.0271 23.4582 92.4938 24.1836C91.9498 24.9089 91.1818 25.2716 90.1898 25.2716C89.7204 25.2716 89.2191 25.1329 88.6858 24.8556ZM88.6858 19.0316V23.3676C89.0164 23.5702 89.4004 23.6716 89.8378 23.6716C90.3818 23.6716 90.7711 23.4476 91.0058 22.9996C91.1764 22.6582 91.2618 21.9702 91.2618 20.9356C91.2618 20.0822 91.1444 19.4369 90.9098 18.9996C90.6964 18.6156 90.3658 18.4236 89.9178 18.4236C89.4804 18.4236 89.0698 18.6262 88.6858 19.0316Z" fill="#E6342A"/>
<path d="M94.4475 24.0076L94.9435 23.1116C95.0075 23.0049 95.0768 22.9516 95.1515 22.9516C95.2048 22.9516 95.3382 23.0156 95.5515 23.1436C96.0102 23.4102 96.4582 23.5436 96.8955 23.5436C97.7062 23.5436 98.2662 23.1542 98.5755 22.3756C98.8102 21.8102 98.9275 21.1756 98.9275 20.4716V20.2316H96.3035H96.2395C96.2075 20.2316 96.1862 20.2316 96.1755 20.2316C96.1648 20.2316 96.1435 20.2316 96.1115 20.2316C96.0902 20.2209 96.0742 20.2102 96.0635 20.1996C96.0528 20.1782 96.0368 20.1569 96.0155 20.1356C96.0048 20.1036 95.9942 20.0716 95.9835 20.0396C95.9835 19.9969 95.9835 19.9489 95.9835 19.8956V18.8236C95.9835 18.6316 96.0422 18.5196 96.1595 18.4876C96.2022 18.4769 96.2555 18.4716 96.3195 18.4716H98.9275V18.2316C98.9275 17.2182 98.7142 16.4769 98.2875 16.0076C97.9995 15.6662 97.5888 15.4956 97.0555 15.4956C96.5968 15.4956 96.1275 15.6876 95.6475 16.0716C95.4982 16.1889 95.3862 16.2476 95.3115 16.2476C95.2582 16.2476 95.1995 16.1942 95.1355 16.0876L94.5435 15.1916C94.4902 15.1062 94.4635 15.0369 94.4635 14.9836C94.4635 14.8876 94.5702 14.7489 94.7835 14.5676C95.4235 14.0342 96.2235 13.7676 97.1835 13.7676C97.5568 13.7676 97.9142 13.8156 98.2555 13.9116C98.5968 13.9969 98.9542 14.1729 99.3275 14.4396C99.7008 14.6956 100.016 15.0316 100.272 15.4476C100.538 15.8636 100.757 16.4289 100.928 17.1436C101.109 17.8582 101.2 18.6849 101.2 19.6236C101.2 20.0396 101.178 20.4396 101.136 20.8236C101.104 21.1969 101.034 21.6129 100.928 22.0716C100.832 22.5196 100.682 22.9249 100.48 23.2876C100.277 23.6502 100.026 23.9862 99.7275 24.2956C99.4395 24.6049 99.0608 24.8449 98.5915 25.0156C98.1328 25.1862 97.6048 25.2716 97.0075 25.2716C95.9728 25.2716 95.1515 25.0209 94.5435 24.5196C94.4155 24.4236 94.3515 24.3329 94.3515 24.2476C94.3515 24.2156 94.3835 24.1356 94.4475 24.0076Z" fill="#E6342A"/>
<path d="M104.833 24.9996H103.377C103.249 24.9996 103.169 24.9836 103.137 24.9516C103.105 24.9089 103.089 24.8502 103.089 24.7756V17.4316C103.089 17.3249 103.11 17.2556 103.153 17.2236C103.196 17.1916 103.35 17.1489 103.617 17.0956L104.865 16.8396C105.036 16.7969 105.121 16.8609 105.121 17.0316V20.0876H105.825C106.06 20.0876 106.241 20.0502 106.369 19.9756C106.508 19.8902 106.593 19.8049 106.625 19.7196C106.668 19.6236 106.71 19.4849 106.753 19.3036L106.961 18.3916C107.068 17.9222 107.265 17.5649 107.553 17.3196C107.926 16.9889 108.417 16.8236 109.025 16.8236C109.185 16.8236 109.281 16.8769 109.313 16.9836L109.633 18.1516C109.676 18.2902 109.606 18.3756 109.425 18.4076L109.185 18.4556C109.057 18.4769 108.961 18.5036 108.897 18.5356C108.844 18.5569 108.78 18.6209 108.705 18.7276C108.641 18.8342 108.582 18.9889 108.529 19.1916L108.353 19.8156C108.182 20.3916 107.857 20.7276 107.377 20.8236V20.8716C107.558 20.9142 107.713 20.9729 107.841 21.0476C107.969 21.1222 108.076 21.2342 108.161 21.3836C108.246 21.5329 108.3 21.6396 108.321 21.7036C108.353 21.7676 108.406 21.9009 108.481 22.1036L108.785 22.9836C108.838 23.1329 108.881 23.2396 108.913 23.3036C108.945 23.3676 108.993 23.4262 109.057 23.4796C109.121 23.5329 109.212 23.5702 109.329 23.5916L109.681 23.6556C109.852 23.6769 109.91 23.7942 109.857 24.0076L109.569 25.0316C109.526 25.1916 109.388 25.2716 109.153 25.2716C108.513 25.2716 108.022 25.1542 107.681 24.9196C107.361 24.7062 107.137 24.3329 107.009 23.7996L106.705 22.4716C106.662 22.2902 106.62 22.1569 106.577 22.0716C106.545 21.9756 106.46 21.8902 106.321 21.8156C106.193 21.7302 106.012 21.6876 105.777 21.6876H105.121V24.7756C105.121 24.8289 105.116 24.8662 105.105 24.8876C105.105 24.9089 105.078 24.9356 105.025 24.9676C104.982 24.9889 104.918 24.9996 104.833 24.9996Z" fill="#E6342A"/>
<path d="M116.686 17.9436L116.094 18.9836C116.073 19.0369 116.036 19.0636 115.982 19.0636C115.961 19.0636 115.806 18.9676 115.518 18.7756C115.166 18.5409 114.809 18.4236 114.446 18.4236C113.881 18.4236 113.47 18.6742 113.214 19.1756C113.001 19.6342 112.894 20.3009 112.894 21.1756C112.894 22.0076 112.996 22.5996 113.198 22.9516C113.486 23.4316 113.913 23.6716 114.478 23.6716C114.841 23.6716 115.177 23.5756 115.486 23.3836C115.774 23.2129 115.934 23.1276 115.966 23.1276C116.02 23.1276 116.057 23.1542 116.078 23.2076L116.494 24.2636C116.526 24.3276 116.542 24.3809 116.542 24.4236C116.542 24.5622 116.409 24.7009 116.142 24.8396C115.62 25.1276 115.012 25.2716 114.318 25.2716C113.284 25.2716 112.425 24.9516 111.742 24.3116C111.07 23.6716 110.734 22.6422 110.734 21.2236C110.734 19.7302 111.086 18.6262 111.79 17.9116C112.505 17.1862 113.39 16.8236 114.446 16.8236C115.161 16.8236 115.806 17.0049 116.382 17.3676C116.617 17.5276 116.734 17.6716 116.734 17.7996C116.734 17.8422 116.718 17.8902 116.686 17.9436Z" fill="#E6342A"/>
<path d="M122.549 18.6956H120.293V24.7756C120.293 24.8716 120.277 24.9356 120.245 24.9676C120.224 24.9889 120.165 24.9996 120.069 24.9996H118.485C118.389 24.9996 118.325 24.9889 118.293 24.9676C118.272 24.9356 118.261 24.8716 118.261 24.7756V17.3196C118.261 17.2236 118.272 17.1649 118.293 17.1436C118.325 17.1116 118.389 17.0956 118.485 17.0956H124.357C124.453 17.0956 124.512 17.1116 124.533 17.1436C124.565 17.1649 124.581 17.2236 124.581 17.3196V24.7756C124.581 24.8716 124.565 24.9356 124.533 24.9676C124.512 24.9889 124.453 24.9996 124.357 24.9996H122.773C122.688 24.9996 122.629 24.9836 122.597 24.9516C122.565 24.9196 122.549 24.8609 122.549 24.7756V18.6956Z" fill="#E6342A"/>
<path d="M132.695 21.5916H128.391C128.391 22.9249 128.978 23.5916 130.151 23.5916C130.695 23.5916 131.229 23.4689 131.751 23.2236C131.965 23.1169 132.109 23.0636 132.183 23.0636C132.269 23.0636 132.327 23.1062 132.359 23.1916L132.759 24.1356C132.791 24.1996 132.807 24.2476 132.807 24.2796C132.807 24.4076 132.722 24.5249 132.551 24.6316C131.922 25.0582 131.074 25.2716 130.007 25.2716C129.357 25.2716 128.791 25.1649 128.311 24.9516C127.842 24.7382 127.485 24.4876 127.239 24.1996C126.994 23.9009 126.802 23.5489 126.663 23.1436C126.525 22.7276 126.439 22.3862 126.407 22.1196C126.375 21.8422 126.359 21.5542 126.359 21.2556C126.359 19.9542 126.669 18.8929 127.287 18.0716C127.917 17.2396 128.775 16.8236 129.863 16.8236C131.485 16.8236 132.493 17.6822 132.887 19.3996C133.005 19.8902 133.063 20.4502 133.063 21.0796C133.063 21.3036 133.031 21.4476 132.967 21.5116C132.914 21.5649 132.823 21.5916 132.695 21.5916ZM128.391 20.1036H130.903C130.914 19.7836 130.893 19.5116 130.839 19.2876C130.701 18.6369 130.338 18.3116 129.751 18.3116C128.951 18.3116 128.498 18.9089 128.391 20.1036Z" fill="#E6342A"/>
<path d="M140.919 17.3196V23.3996H141.687C141.698 23.3996 141.709 23.3996 141.719 23.3996C141.762 23.3996 141.794 23.4049 141.815 23.4156C141.837 23.4156 141.858 23.4316 141.879 23.4636C141.901 23.4956 141.911 23.5489 141.911 23.6236V27.0156C141.911 27.1116 141.895 27.1702 141.863 27.1916C141.842 27.2236 141.783 27.2396 141.687 27.2396H140.183C140.098 27.2396 140.039 27.2236 140.007 27.1916C139.975 27.1596 139.959 27.1009 139.959 27.0156V24.9996H135.895V27.0156C135.895 27.1116 135.879 27.1702 135.847 27.1916C135.826 27.2236 135.767 27.2396 135.671 27.2396H134.167C134.082 27.2396 134.023 27.2236 133.991 27.1916C133.959 27.1596 133.943 27.1009 133.943 27.0156V23.6236C133.943 23.5169 133.959 23.4529 133.991 23.4316C134.023 23.4102 134.071 23.3996 134.135 23.3996C134.146 23.3996 134.157 23.3996 134.167 23.3996H134.679C135.106 22.6102 135.373 21.8369 135.479 21.0796C135.586 20.3222 135.639 19.3089 135.639 18.0396V17.3196C135.639 17.3089 135.639 17.2982 135.639 17.2876C135.639 17.2449 135.639 17.2129 135.639 17.1916C135.65 17.1702 135.671 17.1489 135.703 17.1276C135.735 17.1062 135.789 17.0956 135.863 17.0956H140.695C140.845 17.0956 140.919 17.1702 140.919 17.3196ZM138.887 23.3996V18.6956H137.447V19.2076C137.447 20.8609 137.175 22.2582 136.631 23.3996H138.887Z" fill="#E6342A"/>
<path d="M143.386 24.7756V17.4316C143.386 17.3676 143.386 17.3249 143.386 17.3036C143.397 17.2822 143.423 17.2556 143.466 17.2236C143.509 17.1916 143.583 17.1649 143.69 17.1436L145.162 16.8396C145.333 16.7969 145.418 16.8609 145.418 17.0316V20.3596C145.418 20.8502 145.391 21.4262 145.338 22.0876H145.402C145.701 21.4369 146.037 20.7862 146.41 20.1356L147.962 17.4316C147.994 17.3782 148.026 17.3356 148.058 17.3036C148.09 17.2609 148.111 17.2289 148.122 17.2076C148.143 17.1862 148.17 17.1702 148.202 17.1596C148.245 17.1489 148.271 17.1436 148.282 17.1436C148.293 17.1329 148.325 17.1222 148.378 17.1116C148.442 17.1009 148.485 17.0956 148.506 17.0956L149.786 16.8396C149.957 16.7969 150.042 16.8609 150.042 17.0316V24.7756C150.042 24.8716 150.026 24.9356 149.994 24.9676C149.973 24.9889 149.914 24.9996 149.818 24.9996H148.234C148.138 24.9996 148.074 24.9889 148.042 24.9676C148.021 24.9356 148.01 24.8716 148.01 24.7756V21.7356C148.01 21.4796 148.037 20.9036 148.09 20.0076H148.026C147.855 20.3809 147.519 21.0316 147.018 21.9596L145.498 24.7756C145.423 24.9036 145.359 24.9729 145.306 24.9836C145.274 24.9942 145.237 24.9996 145.194 24.9996H143.61C143.514 24.9996 143.45 24.9889 143.418 24.9676C143.397 24.9356 143.386 24.8716 143.386 24.7756Z" fill="#E6342A"/>
<path d="M152.277 24.7756V17.4316C152.277 17.3249 152.298 17.2556 152.34 17.2236C152.383 17.1916 152.543 17.1489 152.821 17.0956L154.053 16.8396C154.223 16.7969 154.309 16.8609 154.309 17.0316V23.3996H156.356V17.4316C156.356 17.3676 156.356 17.3249 156.356 17.3036C156.367 17.2822 156.394 17.2556 156.437 17.2236C156.479 17.1916 156.554 17.1649 156.66 17.1436L158.132 16.8396C158.303 16.7969 158.389 16.8609 158.389 17.0316V23.3996H159.157C159.167 23.3996 159.178 23.3996 159.188 23.3996C159.231 23.3996 159.263 23.4049 159.285 23.4156C159.306 23.4156 159.327 23.4316 159.349 23.4636C159.37 23.4956 159.381 23.5489 159.381 23.6236V27.0156C159.381 27.1116 159.365 27.1702 159.333 27.1916C159.311 27.2236 159.253 27.2396 159.157 27.2396H157.653C157.567 27.2396 157.508 27.2236 157.477 27.1916C157.445 27.1596 157.429 27.1009 157.429 27.0156V24.9996H152.501C152.405 24.9996 152.34 24.9889 152.309 24.9676C152.287 24.9356 152.277 24.8716 152.277 24.7756Z" fill="#E6342A"/>
<path d="M160.823 24.7756V17.4316C160.823 17.3676 160.823 17.3249 160.823 17.3036C160.834 17.2822 160.861 17.2556 160.903 17.2236C160.946 17.1916 161.021 17.1649 161.127 17.1436L162.599 16.8396C162.77 16.7969 162.855 16.8609 162.855 17.0316V20.3596C162.855 20.8502 162.829 21.4262 162.775 22.0876H162.839C163.138 21.4369 163.474 20.7862 163.847 20.1356L165.399 17.4316C165.431 17.3782 165.463 17.3356 165.495 17.3036C165.527 17.2609 165.549 17.2289 165.559 17.2076C165.581 17.1862 165.607 17.1702 165.639 17.1596C165.682 17.1489 165.709 17.1436 165.719 17.1436C165.73 17.1329 165.762 17.1222 165.815 17.1116C165.879 17.1009 165.922 17.0956 165.943 17.0956L167.223 16.8396C167.394 16.7969 167.479 16.8609 167.479 17.0316V24.7756C167.479 24.8716 167.463 24.9356 167.431 24.9676C167.41 24.9889 167.351 24.9996 167.255 24.9996H165.671C165.575 24.9996 165.511 24.9889 165.479 24.9676C165.458 24.9356 165.447 24.8716 165.447 24.7756V21.7356C165.447 21.4796 165.474 20.9036 165.527 20.0076H165.463C165.293 20.3809 164.957 21.0316 164.455 21.9596L162.935 24.7756C162.861 24.9036 162.797 24.9729 162.743 24.9836C162.711 24.9942 162.674 24.9996 162.631 24.9996H161.047C160.951 24.9996 160.887 24.9889 160.855 24.9676C160.834 24.9356 160.823 24.8716 160.823 24.7756Z" fill="#E6342A"/>
<path d="M175.394 24.9996H173.81C173.714 24.9996 173.65 24.9889 173.618 24.9676C173.597 24.9356 173.586 24.8716 173.586 24.7756V22.0556H172.834C172.525 22.0556 172.311 22.1142 172.194 22.2316C172.077 22.3382 171.975 22.5409 171.89 22.8396L171.634 23.7516C171.485 24.2956 171.25 24.6796 170.93 24.9036C170.578 25.1489 170.098 25.2716 169.49 25.2716C169.277 25.2716 169.149 25.1916 169.106 25.0316L168.818 24.0076C168.765 23.7942 168.823 23.6769 168.994 23.6556L169.314 23.5916C169.474 23.5596 169.586 23.5009 169.65 23.4156C169.725 23.3302 169.794 23.1862 169.858 22.9836L169.954 22.6316C170.146 21.9489 170.477 21.5436 170.946 21.4156V21.3836C170.541 21.2769 170.199 21.0796 169.922 20.7916C169.602 20.4396 169.442 19.9756 169.442 19.3996C169.442 18.6529 169.714 18.0716 170.258 17.6556C170.738 17.2822 171.431 17.0956 172.338 17.0956H175.394C175.49 17.0956 175.549 17.1116 175.57 17.1436C175.602 17.1649 175.618 17.2236 175.618 17.3196V24.7756C175.618 24.8716 175.602 24.9356 175.57 24.9676C175.549 24.9889 175.49 24.9996 175.394 24.9996ZM173.586 20.5356V18.6156H172.642C172.183 18.6156 171.874 18.7169 171.714 18.9196C171.554 19.1116 171.474 19.3302 171.474 19.5756C171.474 20.2156 171.89 20.5356 172.722 20.5356H173.586Z" fill="#E6342A"/>
</svg>
